<?xml version="1.0" standalone="no"?>
<!DOCTYPE svg PUBLIC "-//W3C//DTD SVG 1.1//EN" "http://www.w3.org/Graphics/SVG/1.1/DTD/svg11.dtd" >
<svg xmlns="http://www.w3.org/2000/svg">
<metadata></metadata>
<defs>
<font id="street_magicregular" horiz-adv-x="661" >
<font-face units-per-em="2048" ascent="1536" descent="-512" />
<missing-glyph horiz-adv-x="538" />
<glyph unicode="tt" horiz-adv-x="729" d="M532 455q0 -8 -1 -10.5t1 -6.5l-4 -26q-4 -6 -7 -11.5t-3 -9.5q-20 -23 -24 -37q-2 0 -2 -2v-2q-2 -2 -3 -4q0 -2 -2 -2l-6 -6l-16 -23l-6 -6q2 -10 0 -4t-8 -4q-10 -12 -13.5 -17t-6.5 -10.5t-8 -11.5t-17 -18q-12 -18 -25.5 -33.5t-28.5 -30.5l-6 -4q-4 -6 -7 -12 t-13 -10q-10 -14 -13.5 -17.5l-5.5 -5.5t-6 -5t-16 -17q-10 -2 -21 -17q-16 -12 -24.5 -20.5l-15.5 -15.5t-16 -14t-26 -15q-12 -8 -16 -11.5t-7 -4.5t-7.5 -4t-16.5 -9q-10 -4 -18 -5t-19 -5q-23 -10 -62.5 -6t-55.5 32q-12 14 -19.5 37t-9.5 47.5t0 51t6 49.5 q18 98 59 181t88 155q12 20 21.5 35.5t19 29.5t19.5 28.5t24 33.5q0 6 3.5 10t7.5 10q-8 -2 -24.5 -4t-35 -3t-36 -1h-29.5q-18 4 -19.5 17.5t7 27.5t20.5 25.5t20 13.5q8 4 23.5 5t26.5 3q25 0 38 1t24 3t23.5 4t32.5 2q10 10 22.5 29.5t20.5 32.5q10 18 28.5 39.5 t35.5 48.5q33 51 61.5 56t42.5 -30q0 -2 1 -3t1 -5l13 -22q0 -4 -4.5 -5.5t-4.5 -5.5t3.5 -3t3.5 -1l-19 -30q-2 -2 -1 -4.5t-1 -4.5l-65 -86q35 2 54 4t31.5 3.5t23.5 1.5t30 -3q14 2 15 -10t-6 -27.5t-19.5 -28.5t-26.5 -13q-2 0 -10 2t-8 -2q-29 -4 -42.5 -5.5 t-23.5 -2.5t-24.5 -2t-43.5 -7q-23 -29 -64.5 -84t-88.5 -141q-8 -14 -12.5 -19.5t-7.5 -9.5t-7 -11t-12 -26q-6 -16 -11 -23t-11.5 -17.5t-15.5 -28t-26 -49.5l-14 -35q-6 -12 -10 -25q-2 -6 -4 -10q-2 -10 -6.5 -26.5t-6.5 -35t-1 -34t12 -23.5q4 0 8 -2t10 -3t15.5 2 t23.5 13q31 23 53.5 42.5t43 40t41 43t44.5 49.5q16 18 33.5 39.5t34.5 41.5l49 66q2 0 0 -2t2 -2v4l2 -2q4 4 6 9t6 7q4 0 6.5 9.5t8.5 9.5q4 12 21.5 13t27.5 7q2 -4 6 -5t6 -5q0 4 4 4q-4 -10 1 -6t1 -6q4 -4 5 -2t-3 -2q4 -4 4 -2zM901 477q0 -8 -1 -10t1 -6l-4 -27 q-4 -6 -7 -11t-3 -9q-20 -23 -25 -37q-2 0 -2 -2v-2q-2 -2 -2 -4t-2 -2l-6 -7l-16 -22l-7 -6q2 -10 0 -4t-8 -4q-10 -12 -13 -17.5t-6 -10.5t-8.5 -11t-17.5 -19q-12 -18 -25.5 -33.5t-27.5 -29.5l-6 -4q-4 -6 -7 -12.5t-14 -10.5q-10 -14 -13 -17l-5 -5t-6 -5.5t-17 -17.5 q-10 -2 -20 -16q-16 -12 -24.5 -20.5l-15.5 -15.5t-16.5 -14.5t-25.5 -15.5l-16.5 -11t-7.5 -4t-7 -4t-16 -10q-10 -4 -18.5 -5t-18.5 -5q-23 -10 -62.5 -6t-56.5 33q-12 14 -19 36.5t-9.5 47t0 51.5t6.5 49q18 98 59 181t88 155q12 20 21.5 35.5t18.5 30t19.5 29t24.5 32.5 q0 6 3 10t7 11q-8 -2 -24.5 -4.5t-35 -3.5t-35.5 -1h-30q-18 4 -19 17.5t7 28t20.5 25.5t20.5 13q8 4 23.5 5t25.5 3q25 0 38 1.5t24.5 3.5t23.5 4t33 2q10 10 22.5 29.5t20.5 31.5q10 18 28.5 40t34.5 48q33 51 62 56.5t43 -29.5q0 -2 1 -3t1 -5l12 -23q0 -4 -4 -5t-4 -5 t3 -3t3 -1l-18 -31q-2 -2 -1 -4t-1 -4l-66 -86q35 2 54.5 4t31.5 3t23.5 1t29.5 -2q14 2 15.5 -10.5t-5.5 -27.5t-19.5 -28.5t-26.5 -13.5q-2 0 -10.5 2t-8.5 -2q-29 -4 -42 -5t-23.5 -2t-24.5 -2t-43 -7q-23 -29 -64.5 -84.5t-89.5 -141.5q-8 -14 -12 -19t-7 -9t-7 -11.5 t-12 -25.5q-6 -16 -11.5 -23.5t-11.5 -17.5t-15.5 -27.5t-25.5 -50.5l-14 -35q-6 -12 -11 -24q-2 -6 -4 -10q-2 -10 -6 -26.5t-6 -35t-1 -34t11 -23.5q4 0 8.5 -2t10.5 -3t15 2t24 13q31 23 53 42t42.5 39.5t41 43t45.5 49.5q16 18 33.5 39.5t34.5 42.5l49 66q2 0 0 -2.5 t2 -2.5v5l2 -3q4 4 6 9.5t6 7.5q4 0 6 9t8 9q4 12 21.5 13.5t28.5 7.5q2 -4 6 -5t6 -5q0 4 4 4q-4 -10 1 -6t1 -7q4 -4 5 -2t-3 -2q4 -4 4 -2z" />
<glyph horiz-adv-x="0" />
<glyph unicode="&#xd;" horiz-adv-x="538" />
<glyph horiz-adv-x="0" />
<glyph horiz-adv-x="0" />
<glyph unicode=" "  horiz-adv-x="538" />
<glyph unicode="&#x09;" horiz-adv-x="538" />
<glyph unicode="&#xa0;" horiz-adv-x="538" />
<glyph unicode="!" horiz-adv-x="770" d="M229 193q-4 0 -6 -3l-4 -12q-2 0 -1 3t-1 3q-2 -2 -1 -5t-1 -5q-8 0 -8 10l-10 -24q-4 0 -2 5t0 9l-9 -16q0 2 -4 10l-4 -10q-6 8 -11 14t-13 4q2 6 -1 13.5t-1 13.5q0 -2 -5 2q0 8 -4 13t-6 15q-2 14 4 35t11 37q2 2 2 10q2 12 5 24.5t5 25.5q8 16 13 32.5t13 30.5 q8 25 18.5 48.5t18.5 47.5q6 6 4 6q37 88 83 173t81 153q4 10 13.5 20.5t15.5 24.5q10 18 29.5 51t43 70t48 75t47.5 66q8 16 20.5 30.5t22.5 29.5q12 16 28.5 31.5t26.5 29.5q0 4 1 1t5 1q4 -2 8.5 4t6.5 0q20 10 43 0l4 -8q2 -4 4 -4t4 -2l6 -12q2 -6 4 -9.5t2 -9.5 q0 -4 2 -8t-2 -14q0 -4 -1 -5t-1 -6q-4 -4 -4 -10q0 -12 -2 -14q0 -4 -6 -7t-8 -7q-8 -20 -15 -25q-2 -8 -7 -13.5t-9 -13.5q-12 -10 -22.5 -24.5t-22.5 -26.5q-16 -20 -31.5 -38.5t-30.5 -43.5q-115 -180 -215 -369.5t-163 -410.5q-2 -2 -2 0t-5 0q0 -6 -2 -7t-2 -9z M127 -156q-4 0 -4 2t-2 2q-4 -2 -7 -5t-8 -7q-4 0 -6 1t-4 1q-4 4 -4 8l-31 15q-6 10 -12 15t-10 18q-2 8 2 30q2 16 5 27.5t7 23.5q4 14 11.5 22.5t15.5 16.5q10 4 25.5 7.5t25.5 1.5q12 -2 18.5 -10.5t12.5 -12.5q0 -4 4 -7t8 -7q0 -2 1 -5.5t1 -7.5q4 -6 8 -10t4 -18 q-8 -14 -11 -34t-13 -36q-2 0 -6 -4t-5 -8t-8 -8q-4 -4 -10 -3.5t-8 -7.5z" />
<glyph unicode="&#x22;" horiz-adv-x="499" d="M197 1026q0 -4 -1 -5t-1 -5q10 16 23 45t22 33q2 4 7 17t11 26.5t10 26.5l4 12l15 18q4 2 7 3t3 9l39 11l6 -7q4 0 -1 3.5t-1 3.5t5 -1.5t5 1.5q18 -14 24.5 -28.5t10.5 -31.5q0 -4 -2 -7t0 -7q-2 -8 -3 -12.5t-4 -8.5t-7 -12t-11 -23q-18 -25 -22 -31.5t-9 -13 t-15.5 -20.5t-39.5 -51q-2 -2 -2 -4l-4 -2q-6 -4 -14 -8.5t-14 -12.5q-6 0 -3 -3t-4 -7q0 4 -1 1t-5 -1q-2 4 1 4t3 2q-8 0 -13 -6t-15 -6q4 4 6 5t6 5q-12 2 -20 -6q0 4 5 6t5 8l-15 6q0 4 2 6q-2 4 -3 1t-3 2q2 2 1 3t3 5q-2 2 -3 0t-3 0q4 6 4 9t4 7q0 4 -2 2t-4 -2 q-2 2 2 4t0 4q0 2 -4 -2q4 4 5 9.5t6 9.5q0 4 2 6q-4 -4 -4 -2t6 12zM373 1028q0 -4 -1 -5t-1 -5q6 8 13 22.5t14.5 28.5t14.5 25.5t11 13.5q2 4 6 17.5t9 26.5t9 26l5 12l14 18q4 2 7 3t3 10l39 10l6 -6q4 0 -1 3t-1 3t5 -1t5 1q18 -14 24.5 -28.5t10.5 -31.5q0 -4 -2 -7 t0 -7l-3 -12t-4 -8t-7 -12.5t-10 -22.5q-18 -25 -23.5 -33t-10.5 -17.5t-16.5 -25.5t-39.5 -53q-2 -2 -3 -4l-4 -2q-6 -4 -14 -8.5t-14 -12.5q-6 0 -3 -3t-3 -7q0 4 -1 1t-6 -1q-2 4 1.5 4t3.5 2q-8 0 -13.5 -6t-15.5 -6q4 4 6 5t6 5q-12 2 -20 -6q0 4 5 6t5 8l-14 6 q0 4 2 7q-2 4 -3.5 0.5t-3.5 1.5q2 2 1 3t4 5q-2 2 -3.5 0t-3.5 0q4 6 4 9t5 7q0 4 -2.5 2t-4.5 -2q-2 2 2.5 4t-0.5 4q0 2 -4 -2q4 4 5.5 9.5t5.5 9.5q0 4 2 6q-4 -4 -4 -2t6 12z" />
<glyph unicode="#" horiz-adv-x="1140" d="M311 561q-6 0 -2 -6q-4 0 -6 4q0 -8 -2 -8q-4 0 -4 2q-4 0 -5 1t-3 1v8q-4 0 -4 4q-6 0 -4 -3t-5 -3q0 4 -2 11.5t-6 2.5q2 12 0 27q-4 -4 -4 -6q-2 10 1 19.5t7 21.5v2l25 68q-25 2 -50.5 -8.5t-47.5 -6.5h-13q-4 4 -8 4h-6q-6 4 -10 8.5t-12 4.5q0 2 1 2t1 2h-2 q-2 2 -1 0t-2 -2v4q2 4 1 12t-3 12l7 31q8 2 12 6t10 4l8 4q35 4 72 14.5t82 14.5l74 172q-29 -2 -61 -9t-60 -11h-4q-6 0 -8.5 3t-6.5 1q-2 2 -5 3t-3 7q-2 2 -4 2q0 2 1 2t1 2t-6 6q4 4 2 9.5t2 9.5q0 2 -2 1t-2 1q0 4 3 4t3 4q0 2 -3 1t-3 1l7 7t1 11q10 4 10 9 q41 10 91.5 19t89.5 11q10 16 19 37t22 39l-2 4q29 43 40 92q10 4 17 15q6 2 9 5t7 3h14.5t16.5 -4q2 -6 9 -11.5t9 -15.5q0 -8 9 -8q0 -4 -2.5 -6t-4.5 -6q0 -12 -2 -23l-18 -43q0 -8 -6 -14l-25 -49q18 -2 39 1t39 -1q2 0 6 1t8 1t6.5 -1t4.5 -1q4 0 5 1t3 1h2l2 -2 q4 2 7 11t7 13l13 25q2 12 10 24l12 21q8 12 13.5 26.5t9.5 30.5q-4 12 12 17q0 4 4 8q12 0 14 14q4 -2 9.5 0t9.5 6q4 -2 4 -1t4 1q4 -2 4 -6q6 6 14 6q0 -6 -8 -6q0 -2 1 -2t1 -2v-4q2 0 6 4q2 -10 9.5 -11t5.5 -9l4 -5q-2 -8 0 -15t0 -15q0 -4 -1 -4t-1 -2 q-4 -6 -4 -14.5t-2 -14.5l-9 -6q0 -2 -1 -4t-1 -6q-8 -8 -10 -17q0 -4 -2 -8l-18 -35q-2 -2 -3 -4t-6 -4q8 -6 17.5 -6t15.5 -2q6 6 16.5 4t16.5 -2q12 0 23.5 -1t21.5 -1v-2h2v2q10 -4 22.5 -6t24.5 -7l-2 -4q2 -2 12 -2q0 -4 -1 -3t-3 1q0 -4 3.5 -2t9.5 -2v-6q0 -4 2 -6 t2 -6q-4 -2 -9.5 0t-9.5 0q4 -4 11.5 -4t11.5 -7q-2 -2 -17 3l-6 -3q4 -4 11.5 -3t9.5 -5q-2 0 -2 -4l-4 6q-2 -2 -1 -4t-1 -2q-4 -2 -7.5 -1t-5.5 -1q2 -4 4 -4t2 -4q-2 2 -4 -1t-6 1v-4q-4 2 -6 -1t-6 -1l-4 -6q-45 4 -92 4t-95 -2q-20 -43 -37.5 -90.5t-35.5 -94.5 q35 -4 70.5 -6t70.5 -10q10 -4 22.5 -5t24.5 -3q0 -2 -2 -2t-2 -4t4 -4h6v-5q4 2 4 1t2 -1q0 -2 5 -6h-3q2 -4 3.5 -8t7.5 -4l-4 -4q2 -2 1 -5t1 -5q-4 -4 -6 -4q2 -4 1 -6.5t1 -6.5h-7v-6q-4 0 -7 -1t-9 -1v-6q-2 2 -3 1t-5 1q-2 -4 0 -3t2 -3q-12 -2 -23.5 -1t-27.5 5 q-12 0 -19.5 1t-17.5 1q-18 6 -25 6h-6h-4l-88 4q-6 -14 -9 -27.5t-12 -25.5q-4 -8 -4 -10q-6 -10 -8 -18.5t-6 -18.5l-10 -37q-8 -18 -12.5 -37.5t-10.5 -40.5q0 4 -2 4q0 -8 -2 -10h-2l-3 -6t3 -6q-6 0 -6 -4l-2 2q0 -2 -2 -4t-2 -6h-4v-7q-2 -2 -2 0t-2 2t-2 -2 q-6 0 -9 2q-2 -2 0 -2t2 -2q-2 0 -6 9q-4 0 -4 -2.5t-2 -2.5q0 4 -3 8.5t-5 2.5q-2 2 -2 6q-4 0 -4 -4q-4 8 -5 19t-1 22q-2 0 -1 -1t-1 -1q-2 10 1 18t1 18q-2 -6 -2 -14t-4 -12q4 27 13 53.5t15 50.5v9q0 6 2 8l19 65q-16 0 -28.5 1t-27.5 -3h7q-2 -8 -13 -2q-2 -4 -2 2 q-2 0 -1 -3t-1 -3q-2 4 -1 4t1 2q-25 0 -51 -6l-2 -2v2q-4 0 -10 -1t-13 -1q0 -2 -2 -4h-2q-4 -4 -6 -12.5t-6 -16.5l-41 -88q-4 -4 -5 -10t-3 -10l-2 2q-6 -6 -6 -11q-4 -2 -4 -7t-5 -7v-2q-2 2 -5 -1t-3 1q-2 0 0 2zM573 1004q-14 0 -27.5 -3.5t-25.5 -5.5 q-45 -84 -78 -170q29 2 59.5 1t59.5 3q2 -2 14 -2q16 47 34 90.5t32 90.5q-16 -2 -34 -3t-34 -1zM952 1059h6v2q-2 -2 -4 -1t-2 -1zM965 1059q0 -4 1 -3t3 -1q0 4 -4 4z" />
<glyph unicode="$" horiz-adv-x="874" d="M152 215q2 2 2 0t4 0q4 -6 10 -9t10 -7l-8 12q0 -2 -1 -2t-1 4q-2 0 -1 -2t-1 0q-6 4 -11 8t-10 12q4 -6 10.5 -10t10.5 -8q2 2 0 3t2 3q-2 2 -2 0t-2 0q0 4 -1 5t1 5l8 -12q2 0 2 2q0 -2 4 -6h4l-14 16q0 8 -6 9q-4 0 -2 2t-2 2q-20 23 -38 51.5t-18 75.5q2 -4 2 -13 q2 -29 10.5 -43t18.5 -34v4q-10 16 -12 32l20 -45v4q4 -2 5 -8t4 -12q4 0 2 4t2 4l10 -12v10q-2 4 -7 4t-5 6l-2 -2q-6 6 -5 11q-31 39 -36 108l2 -8q0 4 2 11t4 13q0 4 2 9q2 6 0 9t2 7q0 -4 2 -6l2 2q0 -14 -1 -25.5t3 -27.5q4 4 2 9t-2 11v16.5t4 14.5q2 -10 4 -21.5 t0 -23.5q6 20 9 41.5t14 38.5q6 0 6 -2v-2q4 -4 4 2v-6q2 0 2 6l2 -2v-2q4 0 8 -6.5t10 -2.5q0 -4 -1 -7t1 -7h3l2 2q0 -20 -5.5 -40.5t-1.5 -39.5v4l7 -10v2q6 -39 32.5 -65.5t67.5 -36.5q37 -10 78 -7t73 17q33 10 54.5 31.5t38.5 50.5q4 16 7 29.5t1 35.5q-2 35 -11.5 68 t-19.5 57q-12 35 -28.5 68t-36.5 68q-23 45 -46.5 87t-31.5 103q0 16 1 34.5t7 35.5q8 23 18.5 44t24.5 38q6 10 12 14t17 10q8 4 8 8q4 -2 9 4.5t9 10.5t10.5 5t12.5 5q14 6 28.5 14t30.5 12l33 9q4 4 0 10q4 29 17.5 54.5t23.5 49.5l14 35l10 19q4 6 7.5 11t9.5 9 q4 18 17.5 29.5t23.5 23.5q16 10 36.5 7t30.5 -15q0 -8 3.5 -11t7.5 -7q4 -10 4 -21.5t-2 -21.5q-2 -4 -4 -7.5t-2 -7.5v-6q-4 -10 -10.5 -18t-12.5 -19l-61 -116q47 -14 69 -62q2 0 2 -1t2 -1q6 -14 13.5 -27.5t9.5 -33.5q2 -33 -11.5 -61.5t-23.5 -57.5l-4 -2 q-8 -12 -14.5 -25.5t-16.5 -23.5l-4 2q-2 -6 -8 -7t-8 -12q-6 2 -14.5 4t-18.5 2q0 4 -1 4.5t1 4.5q-4 -2 -5 -1t-5 1q0 4 2 5t0 5q0 2 0 -1t-2 -1q0 2 -1 2t-1 2q-2 0 -3 -1t-6 -1q4 6 2 10t3 14q0 2 -2.5 0t-4.5 0l7 17q-4 2 -3 8t-4 2q8 18 20.5 39t20.5 43q10 33 -8 51 q-47 10 -91 -5t-75 -34q-2 -2 -2 -4v-2q-8 -4 -15 -12t-13 -14q-6 -10 -9.5 -20.5t-7.5 -18.5q-8 -31 2 -56.5t21 -50.5q10 -25 23.5 -47t25.5 -47q12 -23 23.5 -47.5t23.5 -46.5l31 -72q4 -8 5 -13t3 -12q4 -8 4 -10q8 -29 8 -67.5t-4 -69.5q-2 -23 -16 -53 q-10 -27 -25.5 -46.5t-32.5 -39.5q-4 0 -4 1t-2 1v-4l-28 -23q-10 -4 -20.5 -10t-22.5 -10v-4q-2 -2 -2.5 0t-4.5 2q0 -2 -4 -2l-4 -4q-4 0 -7 -1.5l-7 -3.5l-41 -14l-31 -4q-16 0 -18 -4q-2 -10 -9.5 -19.5t-11.5 -19.5l-6 -14l-10 -21q-4 -6 -5 -13t-3 -13l-13 -11 q-4 -10 -7 -24.5t-3 -24.5q-2 -8 -2 -16v-17q-2 0 -1 2t-1 2q0 -8 -2 -10t-2 0t-2 2v-10t-2 -10q-2 2 -1 6t-1 4q-8 0 -4 -6h-2q-4 0 -4 2q-2 -2 -1 -5t-1 -5q-2 0 -3 4v-6l-6 6h-2q-2 0 0 -2t0 -6q-2 0 -3 2t-3 2q-4 2 -3 -1t-1 -1q-4 0 -3 2t-3 2q-4 -2 -1 -4t-1 -2 q0 10 -5 13t-3 13q-4 -2 -2 -8t-2 -10q-4 4 -5 18q-6 4 -8 9.5t-8 9.5v-4q-2 8 -5 13t-3 13q-4 -2 -2 -6t-2 -6q-2 20 3 43.5t9 46.5q8 29 18.5 53.5t20.5 48.5q-23 10 -43 19.5t-37 25.5q-4 6 -12 12.5t-12 12.5zM201 178q0 -4 2 -4t4 -2q0 6 -6 6zM180 199q0 -8 4 -4 q-2 0 -2 2zM166 254q0 -4 2 -6q0 6 -2 6zM117 395v2v4v-6zM195 350q0 8 1 5t-1 -9v4zM457 1034q0 -2 -2 -4q0 2 2 4zM131 358v4v-4zM539 180q-2 -2 -4 -2q4 0 4 2z" />
<glyph unicode="%" horiz-adv-x="1245" d="M129 -190q-2 -2 -2 -7l2 7l2 2h-2q-4 -4 -5 -8.5t-5 -4.5q8 14 6 19q-6 -6 -6 -15q-2 2 -2 4l-8 -8v2l-9 -6q2 10 2 12q-4 -8 -8 -11t-10 -9q2 10 0 12t-2 6l-2 2q2 8 -1 16.5t3 22.5q6 8 8 13.5t4 19.5h-4q4 4 8 15q-4 4 -7 -0.5t-3 0.5q8 12 12 29.5t9 29.5 q74 117 140 223.5t136 200.5q14 23 27.5 41t21.5 41q47 66 94 127t97 121q49 61 95 117.5t95 113.5q66 70 128.5 144.5t127.5 152.5q16 12 28.5 32.5t30.5 37.5q16 16 33 20q0 2 2 4l2 2q4 -8 11.5 -1t17.5 3l-4 -4q-2 -2 -2 -8q4 0 6 4t4 0q4 -14 8 -18q4 -6 3 -10.5 t3 -8.5q2 -12 1 -21.5t4 -17.5q-6 -33 -18.5 -50t-22.5 -30q-8 -8 -11.5 -16t-7.5 -10q-12 -23 -33 -31q-2 -16 -16 -16q-6 -8 -12 -20.5t-17 -16.5q-6 -10 -13 -16.5t-11 -20.5q-25 -25 -47.5 -52.5t-42.5 -51.5q-25 -27 -49.5 -54.5t-49.5 -50.5l-57 -65 q-27 -35 -57.5 -63t-57.5 -60q-4 -10 -7 -15.5t-11 -15.5l-96 -123l-78 -100q-12 -25 -26.5 -47.5t-31.5 -44.5q-10 -12 -16 -22.5t-14 -23.5q-4 -8 -4 -14t-4 -10q-2 0 -2 2t-1.5 3t-1.5 5q-66 -94 -129 -197.5t-124 -207.5q0 4 2 6t4 6q-4 0 -7.5 -6t-5.5 -8q-4 2 -9 -6.5 t-9 -8.5l2 6h-2zM1020 229q0 -16 -2 -31.5t-6 -27.5q0 -18 -6 -27q0 -2 2 -2l2 2q-4 -14 -10.5 -26.5t-10.5 -22.5h-2l2 2l-2 -2q-4 -4 -6 -8t-6 -8v-2l-31 -56h-4v3l-22 -31q-4 0 -2 2t-3 2l-16 -23v-2q-2 2 -7 -1t-5 -5h4q-4 0 -4 -2t0 2q-8 -4 -21 -16q2 0 2 1t4 1 q-10 -10 -21 -16.5t-26 -14.5l-18 -14q-6 -4 -12.5 -4t-8.5 -2q-6 0 -13 -2t-11 -2q-18 -8 -51 -9q-2 0 -1 -3t-1 -3q-4 4 -7.5 3t-3.5 3q-6 0 -13 3.5t-13 5.5q-14 10 -26.5 19t-22.5 26q-16 20 -22.5 49.5t-6.5 62.5q4 12 6 28.5t6 33.5q4 8 5 16t12 12q10 29 23 53.5 t34 45.5q8 16 20.5 28.5t22.5 26.5q23 16 44 35.5t42 36.5q8 8 8 6q16 0 25 -2q2 0 2 2q4 0 2 -1t2 -1q0 2 8 2l-2 -2q2 2 4 1t2 1v4h8v-4q10 6 19 4q4 0 7 1t5 -1q23 0 43 -10l10 -7l15 -6v-4q0 -2 4 -2q8 -6 15 -10t11 -12v6q8 -16 15 -25q-4 -2 -4 -6q0 4 4 4q0 -6 6 -6 q4 -14 4 -26.5v-26.5v-8q0 -4 2 -4t2 -5h-4v-2zM643 1022l-4 -8v-2q-6 -14 -14.5 -26.5t-18.5 -27.5h-2l-18 -26q-2 0 -1 1t-1 1l-21 -16v-7q-4 4 -7 1t-3 -7h4h-4q-8 -2 -21 -14q4 0 4.5 1t2.5 1q-10 -10 -21.5 -16.5t-21.5 -12.5l-19 -14q0 2 -2 0q-4 -4 -10 -4t-8 -2 q-6 0 -11.5 -2t-9.5 -2q-25 -8 -49 -9q-4 0 -2 -1t-2 -1q-2 2 -4 1t-4 1q-8 0 -15.5 3.5t-11.5 5.5q-12 10 -25.5 19t-21.5 24q-29 41 -25 108q4 10 6.5 25.5t6.5 32.5q4 8 5 14t7 12q8 29 22.5 51.5t30.5 42.5q8 14 20.5 27.5t22.5 24.5q25 16 43.5 34.5t40.5 32.5q2 4 5 5 t3 3q10 0 17 -2q4 0 4 2q2 0 1 -1t1 -1q0 2 4 2h8l-4 -2l6 2l4 4h7v-4q8 6 16 4q4 0 5 1.5t5 -1.5q25 0 41 -12l10 -6l13 -6q4 0 4 -1t2 -1q10 -8 15 -12.5t9 -12.5v6q2 -10 13 -20q-4 -4 -4 -8q0 4 4 4q0 -8 8 -8q2 -10 4 -22.5t2 -24.5v-11q0 -4 1 -4t1 -2h-2 q0 -16 -3 -32.5t-9 -26.5v-2q0 -14 -6 -23q0 -2 2 -2l2 2q-4 -12 -9.5 -24.5t-9.5 -22.5h-4q4 0 4 4l-4 -4l-2 -4v2q-8 -6 -6 -8zM825 266q-4 -4 -9 -8t-9 -10l-33 -33l-26 -33l-21 -32q-10 -16 -20 -39l-13 -41q-10 -45 4 -70q6 -4 19.5 -7t25.5 1q16 4 31 10 q20 10 33.5 22.5t30.5 20.5q16 23 31.5 45.5t27.5 44.5q8 12 12 26.5t9 31.5h4q8 20 0 45v4l-11 18v2q-8 10 -19 13.5t-28 5.5q-4 0 -5 -1t-3 -1v-5h-8q0 -2 -8 -6l-2 2q-6 -4 -7 -6h-6zM502 1196q-4 -4 -9.5 -6t-9.5 -10l-16 -19l-18 -12l-23 -33l-18 -31l-19 -34 q-10 -23 -12 -37q-10 -45 4 -70q6 -4 17.5 -7t21.5 1q23 4 29 12q20 8 34.5 20.5t24.5 18.5q20 20 34.5 42t26.5 44q10 10 13.5 24.5t7.5 28.5h2q6 23 0 46v2l-8 14v2q-10 12 -21.5 15t-25.5 7q-2 0 -2 -2t-3 -2v-4h-12q0 -2 -3 -2t-5 -4q-4 0 -1 2t1 2q-8 -6 -8 -8h-2z M807 365q8 0 24 8q-16 0 -24 -8zM481 1286q12 0 19 8q-4 0 -10.5 -3t-8.5 -5zM84 -131q0 2 4 10q0 -6 -4 -10zM975 82q0 2 2 4t2 4q-8 -4 -4 -8zM659 1231q0 4 -2 4zM999 307q0 2 -4 2zM539 1296q0 -2 2 -2t2 2h-4zM680 1159v-2v-2v4zM559 1296h2q2 -2 2 0h-4zM895 375 q2 -2 2 0h-2zM870 375q0 -2 1 -2t1 2h-2z" />
<glyph unicode="&#x26;" horiz-adv-x="1028" d="M532 952q-4 2 -4 1t-2 -1q-10 -16 -24 -22q-2 0 -2 -4q-37 -20 -61.5 -51t-41.5 -72q-2 -10 -5 -17.5t-5 -15.5q-4 -23 4 -44t19 -38q6 -10 19 -13t24 -7q45 -6 81.5 5t63.5 34q12 2 23 10q2 -2 2 0q18 8 34.5 13t32.5 9q6 -2 14.5 -3t12.5 3q2 -4 2 -8q2 -4 4 -4t2 4 q2 -4 1 -6t1 -4t4 1t6 3q2 -4 -1 -4t-3 -4q4 0 5 1t3 1q2 -2 -1 -2t-1 -4q0 -4 2 -2t2 0q2 -10 6.5 -20.5t4.5 -20.5q-2 -27 -23 -47q-4 0 -10 -4.5t-12 -6.5h-17q-2 0 -5 -2t-7 -2l-17.5 -7t-11.5 -7q-10 -4 -17 -6t-13 -6q-4 -2 -10.5 -5.5t-10.5 -7.5q-4 -2 -12 -2 q-14 -4 -25.5 -12t-23.5 -16q-8 0 -14.5 -3.5t-14.5 -7.5l-37 -16q-10 -8 -20.5 -16.5t-24.5 -12.5q-4 -8 -8 -10t-6 -8h-4q-4 -4 -10.5 -6t-10.5 -8q-2 2 -5 -2.5t-5 -4.5q-4 -4 -8 -6t-9 -8q-10 -4 -16 -9t-12 -11q-16 -8 -30.5 -21.5t-27.5 -26.5q-43 -43 -75 -98 q-6 -12 -13.5 -29.5t-9.5 -36t2 -35t19 -24.5q35 -10 70.5 -2t66.5 21l72 37q29 18 56.5 33.5t53.5 35.5q8 6 16.5 11.5t18.5 13.5l20 24q0 4 2 6q2 -2 5 0q2 0 2 9q2 0 2 2t4 2q-2 6 1 8t3 6q4 2 4 6t4 6q2 2 4 2q4 2 8 5.5t9 5.5q2 0 2 -1t2 -1q4 0 6 2t4 2q4 0 12 -4 q10 -2 22.5 -5.5t16.5 -7.5l4 -6q4 -8 10.5 -16t6.5 -25q0 -10 -5.5 -21.5t-9.5 -21.5q-10 -27 -27.5 -55.5t-31.5 -50.5q-4 -10 -8 -18.5t-9 -20.5q-16 -23 -30 -62l-13 -30l-6 -6q-4 -4 -5 -10.5t-7 -8.5q-12 -39 -24.5 -80t-22.5 -82q0 -2 -2 -1t-4 -1q-4 -12 -7 -27.5 t-8 -29.5q0 -4 -2 -1t-2 -1q-2 -6 -3 -12.5t-1 -16.5q-2 -2 -1 0t-3 2q-2 -2 -2 -10q-12 4 -12 -12q-2 0 -2 4q-2 0 -6 -2t-4 -8q-2 -2 -4.5 2t-2.5 6q-2 -8 -10 -8l-6 6l-6 6q-4 -2 -8 1t-9 5q-4 4 -3 9t1 14l-4 8t-2 8q-4 16 0 31.5t6 29.5q4 37 15.5 74t21.5 72l25 78 l20 55q-16 -8 -33.5 -17.5t-33.5 -19.5l-35 -18q-10 -4 -24.5 -10.5t-30.5 -10.5q-35 -12 -78 -14t-78 8q-23 6 -45 22q-16 16 -30.5 33t-18.5 45q-2 14 -2 31.5v34.5q10 41 28.5 73.5t36.5 63.5q8 16 21.5 31.5t23.5 27.5q23 27 54 56q2 0 2 1t4 1q33 31 68.5 59.5 t70.5 59.5q-10 6 -20.5 11t-16.5 15q-20 16 -33 35q-10 16 -18 38.5t-8 53.5v31.5t4 32.5q4 6 6 12t4 16t5 16.5t7 16.5q6 14 14.5 26.5t16.5 24.5l25 33q6 10 12 15.5t16 11.5l23 30l31 27q12 6 22 15.5t23 15.5q8 4 16 6t16 6t16.5 9t14.5 9q23 4 46.5 16.5t45.5 16.5 q10 2 23.5 2h25.5q23 2 38.5 -5t31.5 -17q16 25 30.5 52.5t26.5 53.5q10 14 14.5 17.5t14.5 19.5t20.5 29.5t20.5 30.5q-2 0 4 6q6 2 9 5t8 7q0 8 10 14q6 0 6 -6q16 0 33 -4q2 -4 3 -8t7 -2q4 -4 3 -11.5t9 -7.5q-4 -6 -2 -9t4 -7q0 -2 -1 -3t-1 -3q4 -27 -8 -44.5 t-20 -33.5q-10 -12 -11.5 -13t-7.5 -12q-16 -23 -30.5 -47t-30.5 -47q-2 -23 -12.5 -36t-20.5 -29l-6 -15q-2 -2 -4 -3t-4 -5l-13 -26q-4 -6 -8 -12.5t-8 -10.5l-4 -20l-15 -37q2 -6 0 -7.5t-6 -5.5q-2 -2 -2 -6v-2q-4 -4 -12 -6q-4 0 -5 -3t-3 -3q-4 -2 -5 -1t-5 1 q0 -2 -5 -2q-20 0 -37.5 21.5t-15.5 50.5q2 16 7 30.5t10 26.5q2 14 -5 18q-4 6 -22 6q-2 0 -5 -1t-7 -1q-2 0 -4 1t-5 1q-10 2 -25.5 -2t-27.5 -8q-2 -2 -10 -2l-33 -16q-8 -4 -17.5 -8.5t-13.5 -12.5z" />
<glyph unicode="'" horiz-adv-x="143" d="M197 1026q0 -4 -1 -5t-1 -5q10 16 23 45t22 33q2 4 7 17t11 26.5t10 26.5l4 12l15 18q4 2 7 3t3 9l39 11l6 -7q4 0 -1 3.5t-1 3.5t5 -1.5t5 1.5q18 -14 24.5 -28.5t10.5 -31.5q0 -4 -2 -7t0 -7q-2 -8 -3 -12.5t-4 -8.5t-7 -12t-11 -23q-18 -25 -22 -31.5t-9 -13 t-15.5 -20.5t-39.5 -51q-2 -2 -2 -4l-4 -2q-6 -4 -14 -8.5t-14 -12.5q-6 0 -3 -3t-4 -7q0 4 -1 1t-5 -1q-2 4 1 4t3 2q-8 0 -13 -6t-15 -6q4 4 6 5t6 5q-12 2 -20 -6q0 4 5 6t5 8l-15 6q0 4 2 6q-2 4 -3 1t-3 2q2 2 1 3t3 5q-2 2 -3 0t-3 0q4 6 4 9t4 7q0 4 -2 2t-4 -2 q-2 2 2 4t0 4q0 2 -4 -2q4 4 5 9.5t6 9.5q0 4 2 6q-4 -4 -4 -2t6 12z" />
<glyph unicode="(" horiz-adv-x="657" d="M500 -399q0 -2 -3 -1t-5 -3q0 -4 2 -7.5t2 -7.5q-4 0 -3 2t-4 0q-2 -4 1.5 -7t3.5 -7q-4 0 -3 3t-4 3q0 -4 7 -16q-4 -8 -8.5 -13.5t-14.5 -9.5q-10 4 -16 14q-4 0 -2 -2t2 -4q-2 0 -3 4.5t-3 -0.5q-4 0 -5 -6q-2 0 -1 2t-3 4q-8 2 -8 -2q-6 10 -14 16.5t-15 12.5 q-8 6 -12 13.5t-12 11.5q-55 80 -98 174t-78 200q0 -4 -4 13.5t-6 27.5q-16 59 -28.5 129t-17.5 136q0 59 4.5 112t14.5 105q2 39 10 73.5t14 71.5q39 143 93 264q-2 10 3 16.5t5 12.5q8 4 8 12l18 31l17 29l45 69q10 16 22.5 30.5t22.5 35.5q39 39 73.5 80t75.5 75l25 21 q14 10 25.5 21.5t27.5 19.5l27 16l45 37q20 10 37.5 24.5t40.5 22.5q16 16 38.5 24.5t41.5 20.5q10 4 26.5 9.5t28.5 13.5l12 -4q2 -2 3 -4t5 -7q8 -8 16.5 -12t18.5 -8q2 -6 2 -18l11 -13q4 -16 -1.5 -26.5t-7.5 -22.5l-16 -16t-12 -15q-23 -12 -46.5 -24t-46.5 -29 l-36 -22l-50 -31q-23 -10 -41 -23.5t-36 -29.5q-6 -6 -14.5 -11.5t-12.5 -9.5l-12 -20q-4 -2 -7 -3t-6 -5l-10 -9q-4 -4 -8 -6t-8 -6l-17 -14q-2 -10 -8 -17.5t-14 -15.5q-4 -4 -7 -10t-7 -11l-23 -16l-16 -20q-57 -66 -100.5 -147t-80.5 -173q-29 -82 -48 -167t-29 -183 q-4 -35 -5.5 -73t1.5 -77q2 -27 5 -53t7 -51q6 -31 12 -59.5t16 -57.5q2 -4 3 -16q27 -90 63.5 -170t83.5 -152h-2q8 -18 16.5 -32t16.5 -37z" />
<glyph unicode=")" d="M127 -240q-2 0 -1 1t-1 1q-4 -6 -11.5 -11t-11.5 -15q-4 2 -8 -3t-8 -9t-11 -7.5t-12 -7.5l-22 -20q-4 -2 -7 -5t-7 -6q-8 -10 -16.5 -16t-16.5 -10q-4 -2 -4 -6t-4 2l-2 -4v4q-6 -2 -9.5 -5t-7.5 -8l-4 3q-16 -6 -31.5 -16.5t-29.5 -18.5q-2 -2 -6 -2l-15 -11 q-2 0 -3 -2t-3 -2l-29 -12q-8 -2 -14 -4t-14 0q0 6 -5.5 6t-7.5 6q-4 -4 -8 2q4 4 12.5 5t8.5 5q-6 6 -12.5 2t-10.5 -2q4 6 11.5 5.5t11.5 3.5v4q-4 4 -9.5 0t-9.5 -4q0 4 4 7t2 9q10 0 11.5 2t5.5 6q-4 2 -9.5 -2t-9.5 2q0 4 2 3t5 1q0 2 -1.5 3t1.5 6q2 4 -1.5 6t1.5 2 q2 6 18 10q4 2 2 4t2 6q29 16 53 43q10 0 15 10q80 61 153 132q6 14 19 26l10 6l53 64l41 51l64 98q16 25 29.5 51.5t29.5 55.5q41 86 74 183t51 218q4 29 5 59.5t3 63.5v88q0 47 -4 102.5t-12 104.5q-10 59 -28.5 110.5t-39.5 98.5q-8 8 -11 18.5t-13 14.5q-4 10 -11.5 18 t-13.5 14q-2 4 -5 10.5t-9 2.5q0 6 -3 8t-6 8q-8 6 -16 15.5t-18 13.5q-4 10 -8.5 16t-14.5 12q-12 29 -2 66q4 29 20.5 44t38.5 24q8 0 11.5 -4.5t9.5 -6.5q12 -12 24.5 -20t22.5 -25q2 0 2 -2t4 -2q0 -6 4 -10q16 -10 28.5 -28.5t25.5 -33.5q4 -4 4 -10l28 -41 q33 -61 62 -149q2 -4 4 -7t2 -8q14 -59 24.5 -127.5t12.5 -142.5q2 -29 2 -64.5v-66.5q0 -98 -12.5 -182t-28.5 -164q-29 -92 -61.5 -178t-75.5 -158q0 -2 -1 -2t-1 2q-2 -6 -6.5 -13t-8.5 -16q0 -2 -1 -1t-1 -1q-43 -76 -91 -138t-95 -124q-12 -2 -17 -12q-4 0 -6 -5t-6 -9 h-2q-2 -2 -2 -4.5t-4 -4.5zM406 164q6 12 12 23.5t10 25.5zM504 426q0 -2 -3 -3t1 -3q0 2 2 3t0 3z" />
<glyph unicode="*" horiz-adv-x="882" d="M764 1126q2 -2 -1 -2t1 -2q2 2 2 0t4 0l6 -8q2 -2 2 0t4 2q-4 -4 -2 -5t4 1q2 -4 0 -4t-2 -4h4v-2h-2q0 -8 7 -2q-4 -4 -5.5 -9.5t7.5 -5.5q-10 0 -11 -14q-23 -16 -53.5 -31.5t-63 -31t-63.5 -29.5t-55 -31l65 -80q10 -10 17.5 -19t19.5 -20q20 -20 31 -38l8 -13 q-2 -6 4 -12q0 -4 -1 -1t-5 3q0 -4 2 -4t2 -4q0 -2 -1 1t-5 1q4 -4 3 -7t3 -5q-4 0 -5 1t-5 1q-2 -2 2 -4.5t2 -6.5q-6 0 -10 2v-6q-6 -2 -8 1t-4 3t1 -3t1 -7q-8 0 -13 2q-10 -4 -16 2q0 -4 -2 -4q-6 8 -16.5 13.5t-16.5 13.5q-2 0 -1 -2t-1 -2l-58.5 58.5t-54.5 61.5 q-18 -47 -35.5 -92t-29.5 -96q0 -2 -2 -2l-4 -22q-8 -2 -8 -11q2 -4 1 -2t-4 2q-2 -2 -1 -4t-1 -2v-18q0 -2 -1 -4t-1 2v6q-2 2 -2 6q-2 -6 -2 -14q-2 -2 -6 2q0 -4 -4 -4q0 -2 2 -3q0 -2 1 -2t1 -2q-4 0 -4 2t-4 5v-13q-4 4 -6 2t-6 -2q0 4 -1 5t-1 3l-5 -6q-4 4 -8 4 q-2 0 0 -2t0 -2q-8 4 -12 15q-6 -4 -7 3t-3 11q-2 0 -4 -2q-2 2 -1 5t-1 7q-2 0 -1 -3t-1 -1q-2 14 -1 25.5t1 23.5q-2 10 2 21.5t4 21.5q10 27 19 54.5t20 56.5q-4 -2 -8.5 -5t-10.5 -3q-10 -10 -21.5 -18.5t-25.5 -16.5q-10 -10 -22.5 -16.5t-22.5 -16.5q-10 -8 -22.5 -14 t-26.5 -10q-10 -4 -16.5 -3.5t-10.5 -3.5q-31 -6 -47 9q-6 2 -9 6t-5 8v10q-4 4 -3 6l3 6t1 6.5t1 6.5t6 5t6 3q8 0 12 8q33 18 57.5 35.5t47 35t48.5 35t58 35.5q-43 43 -73.5 81t-71.5 85q-6 2 -8 15q0 4 2 4q-2 2 -4 2q2 2 2 4t4 4v6q2 2 3 0t3 0q2 4 -3 5t-1 5 q4 -4 11 -2t11 0q0 2 -5 4t-5 7q10 0 10 -7q4 4 7.5 4.5t7.5 4.5h8l-2 2q4 0 4 -1t4 1q2 0 -1 0t-3 4q4 -4 6 -5l6 -3q0 2 4 2q8 -2 11.5 -5.5t7.5 -3.5q39 -31 73.5 -62.5t71.5 -59.5q10 23 19.5 44t13.5 44q16 18 23.5 38.5t21.5 36.5q0 4 3 6.5t3 8.5l4 4q2 14 16.5 19 t26.5 14q6 0 10.5 -1t8.5 1q4 0 4 -2.5t2 2.5q4 -4 12 -6.5t12 -6.5l11 -12v-4q8 -12 1 -24.5t-12 -24.5q-16 -31 -29.5 -61.5t-27.5 -65.5q23 10 64 22.5t61 24.5h6q14 14 37 18q0 -2 3 1t5 -1h6q2 0 5 -2q12 2 16 6zM399 645q-4 -2 0 -10v10z" />
<glyph unicode="+" horiz-adv-x="784" d="M709 412q-4 -4 -8.5 -4t-4.5 -5q-2 0 -4 -2h-6l-4 -6q-8 6 -14 -2q-39 2 -71 1t-71 -1q-10 0 -20 1t-21 1q-2 0 -2 -1t-2 -1h-2q-6 2 -13 1t-15 -1q-6 0 -12.5 1t-10.5 -1t-7 -10t-5 -12q-4 -6 -6 -11.5t-7 -13.5q-23 -43 -45 -84t-36 -90q-2 0 -1 1t-2 1q-2 -4 -2 -27 q-4 2 -5 -1t-5 -1q0 -2 -1 -2t1 -4q-4 2 -6 -1t-6 1q-2 -4 -10 -8q-2 0 -2 4q-2 0 -1 -2t-1 -2q-4 4 -7.5 4t-7.5 4q-2 0 0 -2v-2q-6 0 -6 -2q-6 0 -6 4v6q-2 -4 -4 -4t0 -6q-4 2 -2 6t0 6q0 2 -4 2q-4 4 -5 11.5t-1 13.5q-2 0 -2 2q-2 0 -2.5 -3t-2.5 -3q0 6 1 11t4 11 q-2 2 -2.5 0t-2.5 -2q10 57 34 101.5t42 93.5l-104 -14q-4 -2 -5 -1t-5 -1q-6 2 -21 -2q-10 0 -21.5 3t-19.5 9q0 12 -8 18q-4 10 -8 19.5t-2 25.5q4 2 6 6.5t6 10.5h2q6 6 4 6q0 4 2 4l17 8q23 6 49 9t53 10l123 8l10 18q6 23 19.5 40.5t23.5 35.5q4 0 4 2t2 4 q10 20 22.5 36.5t18.5 37.5q4 4 8 7t9 7q4 12 12 12q8 8 18 9q4 0 8.5 -4.5t12.5 -4.5h2q10 0 16 -9t10 -17q4 -6 3 -16.5t-1 -16.5q0 -10 -4 -18q-4 -4 -6 -10.5t-6 -10.5q-4 -10 -11 -18t-14 -19l-12 -20t-16 -19l-12 -24q35 -4 71.5 -4t77.5 -4q6 -8 15.5 -9.5t17.5 -5.5 q2 -4 5 -4t5 -4q6 -6 14 -6q0 -10 13 -10q0 -4 -1 -5t-1 -3q6 -4 5 -16.5t-5 -20.5z" />
<glyph unicode="," horiz-adv-x="374" d="M160 -147q-6 -4 -10.5 -9.5t-8.5 -11.5v2q-4 0 -4 2q0 -2 -4 -6q0 4 2 4t2 2q-2 2 -2 0t-4 -2q4 4 2 6q2 0 4 2h-2q-4 -2 -6 -5t-6 -3q4 4 4 10q-6 -6 -8 -6v4q-2 0 -2 -1t-2 -1q0 4 1 4t1 2q-2 2 -4 0q0 2 1 2t1 5q-2 0 -2 -2.5t-2 -2.5q0 6 2 7.5t2 5.5h-2v4q0 2 1 2 t1 2q2 12 14 25l4 6q8 12 15.5 22t17.5 21l2 4q12 18 20.5 39.5t18.5 46.5q-4 -4 -7 -9.5t-10 -7.5q0 -4 -3 -6t-5 -6q-10 -8 -15 -11t-15 -3q-6 0 -9 2q-4 0 -7 -1t-5 -1q-12 4 -16 4l-6 6q-14 14 -19 25q0 6 -2 8q0 8 -1 21.5t3 17.5q4 12 8 24.5t11 18.5h4l6 15t6 9 q0 -4 -2 -7t-2 -7q10 10 21.5 17.5t23.5 17.5q2 0 1 -1t1 -1l20 8q0 2 -6 -4h6v-2q4 4 8.5 2t10.5 -2q4 0 4 -4h10q0 -2 1 -2t1 -4q4 -4 8.5 -4.5t8.5 -4.5q10 -10 17 -25.5t11 -33.5v-14q0 -10 1 -17.5t-1 -15.5l-18 -58q-6 -16 -19 -32q0 -4 -2 -7.5t-4 -7.5q-2 0 -2 -2 q-4 -8 -4 -9v-1l-1 -1t-7 -9q-8 -16 -16 -21q-4 -4 -7.5 -8t-5.5 -8h-2q-4 -4 -7 -8t-11 -8v-2q0 -4 -4 -5zM143 -160q0 -2 -1 -3t-1 -3z" />
<glyph unicode="-" horiz-adv-x="870" d="M713 455q-2 -2 -6.5 0t-4.5 0l5 -21q-2 -2 -5 -2v-2v-4h-4q0 -4 1 -3t1 -3q-4 0 -6 -2t-6 0q-2 -2 0 -2t2 -2q0 -4 -2 -3t-2 -3q0 -2 2 -2q-8 -4 -12 -3q-4 -4 -6 -4t-6 -2q-102 18 -201 13h-17q-2 0 -4 -2t-4 -2t-3 2t-5 2q0 -2 -2 -2h-4q-4 2 -4 0t-2 -2 q-8 2 -18.5 -0.5t-22.5 -2.5h-8q-4 -2 -11 -2l-4 2q0 -4 -10 -4q-18 0 -27 -2q-20 -6 -43.5 -13t-44.5 -15q-10 -4 -17 -8.5t-19 -2.5q-2 2 -4.5 0t-4.5 -2q-4 2 -8 5.5t-10 -1.5q-8 8 -12 11v8l-4 4q0 6 -5 10q-4 23 1.5 33t9.5 27q2 4 5 4t3 2q18 14 39.5 21t44.5 14v2 l2 4q2 0 1 -2t1 -2q29 12 60.5 16t66.5 6q12 2 21.5 3t25.5 1q88 6 186 -6l41 -4q6 -2 11.5 -7t13.5 -9q6 -8 16 -11q-2 -4 1 -3t3 -3t-2 -1t-4 1q4 -8 9.5 -9t9.5 -5h-6h-3q1 -6 11 -10z" />
<glyph unicode="." horiz-adv-x="452" d="M299 49q-4 -14 -12 -18t-19 -15q-4 -4 -10 -6t-10 -2t-5 1t-5 1q-8 4 -17.5 3t-15.5 1q-10 4 -16.5 10.5t-12.5 10.5q-25 31 -8 76l6 12l10 22q6 6 11.5 14.5t11.5 16.5q16 4 32.5 5t30.5 -9l6 -6q10 -8 20.5 -19.5t14.5 -21.5q4 -18 1 -42t-13 -34z" />
<glyph unicode="/" horiz-adv-x="471" d="M-137 -268q-4 -4 -5 -10.5t-5 -8.5q2 4 4 10.5t2 10.5q-4 -4 -6.5 -9.5t-6.5 -9.5q0 2 2 3t0 3l-8 -10v2q-6 -6 -8 -6v6q-4 -12 -22 -18q0 4 -4.5 5t-4.5 7q-2 -4 -2 -1t-4 1q4 6 0 13.5t-2 17.5q4 8 11.5 16t2.5 19q-4 -2 -4 -5.5t-4 -5.5q-2 6 3 11.5t3 13.5 q-4 2 -6 -3t-2 -1q6 14 12.5 30.5t10.5 28.5q70 125 136.5 243t141.5 228q14 23 29.5 44.5t26.5 45.5q51 72 100 142.5t100 138.5q49 70 100.5 137.5t106.5 132.5q72 86 139.5 173t135.5 180q23 18 39 40.5t38 41.5l27 30l10 11q10 -4 17.5 2t17.5 6q2 0 -1 -3t1 -3q2 0 5 2 t7 2q0 -10 9 -15q6 -4 7 -7t5 -7q2 -10 4 -17.5t6 -17.5q-2 -29 -15.5 -46t-23.5 -36q-6 -8 -8 -15t-10 -11q-10 -12 -17.5 -22.5t-17.5 -18.5q-6 -14 -14 -19q-10 -10 -18.5 -21.5t-14.5 -21.5q-8 -10 -17.5 -18t-13.5 -23q-53 -61 -104 -129q-27 -29 -51.5 -60.5 t-53.5 -60.5l-61 -77q-29 -41 -60.5 -77t-60.5 -73q-4 -10 -11 -17.5t-16 -15.5l-102 -145l-80 -113l-65 -100l-29 -49q-4 -8 -5 -14.5t-5 -10.5q-2 0 -2 4q-72 -104 -134.5 -215.5t-128.5 -226.5q-2 4 0 5t2 5q-4 -2 -5 -7t-5 -9q-6 -2 -11 -10.5t-9 -8.5q4 8 2 15v2z M-137 -274q0 -2 -1 -2t-1 2q2 2 2 4v-4z" />
<glyph unicode="0" horiz-adv-x="874" d="M905 1042q-2 -4 -3 -3t-1 -1q8 -10 6 -21t0 -22q-2 4 -1 6.5t-1 6.5v-13.5t2 -11.5v-6l2 -2v-2h-2v-2q-2 -4 -1 -6t1 -4q2 2 2 -2.5v-8.5q-2 -16 -2 -32.5v-32.5q2 0 2 2q2 -2 1 -5t1 -8q-4 2 -3 -3t-3 -1l-6 -30q0 -4 1 -4t1 -2q-10 -82 -34.5 -164t-57.5 -154l-16 -24 q-4 -12 -8.5 -24.5t-12.5 -21.5q0 -4 -5 -8t-3 -8h-2q-8 -16 -15.5 -26.5t-17.5 -26.5q-23 -49 -57 -98l-31 -52l-4 -2q-74 -98 -166 -184q-25 -18 -45 -38.5t-49 -33.5q-14 -6 -27.5 -13t-27.5 -9q-41 -14 -93.5 -7t-85.5 29q-2 4 -6 7.5t-10 7.5q-2 2 -10 2 q-12 14 -26.5 28.5t-27.5 34.5q-4 4 -4 8t-8 9q-35 66 -38 131t-1 120q0 31 4 61t9 58q4 29 9 58.5t11 58.5q8 31 17.5 60.5t19.5 60.5q16 35 28.5 66.5t28.5 64.5q10 20 17.5 40.5t17.5 39.5q39 68 77 121t84 101t104.5 92t140.5 91q2 2 6 1t8 1q8 2 13 6.5t9 6.5 q8 0 15.5 2t11.5 2q2 2 4 0q8 4 37 4t37 -4q35 0 62.5 -19.5t52.5 -48.5q2 -6 8 -13t8 -18q4 0 4 -8v8q6 -6 11 -20t10 -31l2 4q4 -12 7 -25.5t7 -27.5q0 -14 5 -31t7 -37zM791 987q-4 29 -9.5 61.5t-17.5 61.5q-4 14 -10 28.5t-11 26.5q-4 6 -18 11l-10 8q-12 6 -29 4 q-47 -8 -97 -41t-96.5 -74t-84 -86t-62.5 -78l-14 -20q-43 -66 -78 -134.5t-59 -140.5q-10 -27 -14.5 -37t-6.5 -16t-4 -16t-6 -35q-6 -27 -12.5 -52.5t-10.5 -51.5q-10 -59 -12 -127t25 -146q6 -23 18 -41t25 -31q25 -14 53 -14q33 2 48 10.5t30 18.5q53 29 91 66.5 t73 78.5l18 27q14 12 27 26q23 35 45 72t45 76q18 25 33.5 51.5t29.5 61.5q16 37 33.5 80.5t28.5 84.5q10 27 17 57.5t13 59.5q4 37 7.5 78t1.5 82v10zM881 1147q0 2 -1 2t-1 2q0 -2 2 -4z" />
<glyph unicode="1" horiz-adv-x="499" d="M692 1233q-4 -16 -14 -34.5t-21 -37.5q0 -2 -2 -2t-2 -2v-6l-6 -6l-41 -53l-22 -23l-4 -16l-13 -13q-16 -23 -30.5 -47t-30.5 -51q-12 -10 -27 -31q-2 -4 -1 -9t-3 -7q-4 -4 -4 -9t-4 -9l-74 -136q-16 -29 -35.5 -62.5t-29.5 -64.5q-39 -78 -73 -154.5t-62 -160.5 q-35 -86 -63 -171t-60 -171q-4 -4 -9.5 -7t-9.5 -13q0 -4 -2 -2t-6 2q-2 -2 -2 -5q-2 0 -3 1t-3 1q-4 0 -9.5 -6t-9.5 -6q-6 0 -14 3t-18 3q0 2 -1 4t-1 7q-4 0 -6.5 2t-4.5 2q-16 18 -15 43.5t15 42.5q12 35 23.5 67.5t21.5 67.5q8 12 10.5 25.5t8.5 23.5q-2 8 2 10t0 6 q6 8 9 18.5t7 18.5q12 25 20.5 51.5t18.5 53.5l8 22l19 49q12 29 24.5 54.5t16.5 42.5q18 43 39.5 87t44.5 85q2 4 0 6t0 2q18 20 28 49v10q4 0 6.5 4t6.5 9q0 4 4 8t8 10l14 33q10 18 16.5 35.5t14.5 37.5q2 2 2 7q10 8 17.5 21t11.5 24q16 25 25.5 41t25.5 36 q6 20 17.5 39t21.5 41l-47 -28q-4 -4 -9.5 -6.5t-11.5 -10.5q-6 -2 -12 -5l-14 -7q-8 -6 -13.5 -11t-17.5 -7q-4 0 -7 -1t-7 -1q-14 2 -22.5 7t-20.5 13q-4 10 -11.5 19.5t-11.5 19.5q0 6 2 13t2 14q0 6 -2 11t2 9q6 2 8 8q8 10 18.5 17.5t20.5 11.5l58 27q16 10 28.5 18 t28.5 10l49 21q35 12 56.5 22t58.5 25q2 0 13 1t13 1h31q4 -4 14 -4h15q12 -4 15 -7.5t9 -17.5q2 -4 1 -10t1 -10z" />
<glyph unicode="2" horiz-adv-x="825" d="M223 190q2 -2 10.5 -2t18.5 1t19.5 1t13.5 -2q14 -4 21 -5t22 -5q4 -4 10 -3t12 -5q23 -8 41.5 -13t40.5 -18q2 0 2 1t2 1q0 -2 2 -2t4 -2t2 0t2 0q2 0 3 -4q4 0 4 -2q16 -6 26 -12t27 -10q29 -12 52.5 -18.5t47 -6.5t50 4t59.5 12q2 -8 8 -8t10 2q4 -4 9.5 -5t9.5 -5 q0 2 2 2q2 -4 0 -5t0 -5t3 -1t3 1q4 -6 1 -9.5t-5 -7.5q2 -2 3 -1t5 -1q-4 -12 -9 -21t-16 -13q-2 -2 1 -2.5t1 -0.5q-4 -10 -13 -10t-11 -10q-16 -8 -33.5 -10t-36.5 -8q-29 -4 -46 -5.5t-32.5 -1.5t-31 3.5t-39.5 11.5l-47 20q-2 0 -6.5 2t-8.5 -2q-4 12 -28 13 q-4 8 -7.5 8t-7.5 2q-12 4 -18 9t-10 7h-13l-4 4q-20 4 -43.5 14.5t-46.5 10.5h-6q-4 2 -6 1t-6 3l-45 -4q-2 0 -2 -2q-6 4 -11 -4q-6 4 -14 -2.5t-12 -10.5q-12 2 -25 -10q-2 0 -2 1t-2 1q-4 -4 -6 -5t-4 -9q-14 4 -19 -12q-10 -2 -14 -9.5t-12 -11.5v-8h-9q4 -8 1 -11 t-1 -10q-4 0 -5 -1t-7 -1q0 -4 5 -4t5 -4q-16 0 -16 -12q-2 6 -7 6t-7 -10q-4 4 -5 2t-6 -2q-6 2 -9 -1t-7 1q-2 -2 -5 -2t-5 -2l-4 4q-8 -2 -11.5 0t-13.5 0l-16 16l-23 25q-10 35 3.5 63.5t31.5 44.5q12 16 29.5 29.5t32.5 32.5q4 -2 12 2l8 8q0 -2 1 -2t1 2q6 0 8 5t6 9 q-2 4 0 4t2 5q16 2 21.5 13t15.5 15q4 4 9.5 8t9.5 13q4 6 13 14t13 14q2 2 5.5 3t7.5 6q8 10 16 21t18 22l132 127v6q16 8 25 20t26 27l26 26l19 21l24 26q14 8 33 33l10 6q4 0 4 7l82 79v5q6 4 10.5 11t8.5 11q6 0 6 2q12 16 25.5 26.5t21.5 26.5q10 4 10 9q10 8 13.5 15 t7.5 11q0 6 2 8q0 4 2 1t2 1q4 2 6 4.5t6 6.5q8 16 20.5 30.5t16.5 34.5l2 2q23 33 37 78q10 41 12 86q-4 4 -6 11t4 12q-4 12 -5 23t-9 18l-2 10q-2 4 -4 5t-2 5q-10 20 -29 31h-8q4 4 1 4t-3 4q-18 10 -43 14t-47 4q-61 2 -117.5 -26.5t-101.5 -61.5q-2 -4 1 -6t-1 -6 q-4 0 -3 2t-4 2q-6 -6 -11 -12t-7 -17q-4 0 -10 -4t-6 -10q-8 -4 -15 -29q4 0 4 -2q0 -6 -2 -10h-6q-2 -2 -1 -3t-1 -5q-2 -2 -5 -3t-3 -7h-6q-6 -10 -18.5 -16.5t-20.5 -16.5q-6 4 -12.5 2t-12.5 -2t-14 6t-14 6q-4 6 -10.5 8t-10.5 13q-2 0 -2 -1t-2 -1q-4 10 -2 12 q0 2 -1 2t-1 2q2 8 0 10l-6 6q4 0 4 10.5t-4 12.5q4 4 5 12t3 17q6 2 6 7t4 9q16 29 40 53.5t46 48.5l13 13h4q2 4 7 6t7 6q53 35 127 68q4 4 6 4t6 4v-2q29 10 60.5 16t64.5 10q6 0 7 2t5 0q18 -2 37 -2t31 -4q12 -2 23.5 -7t23.5 -7q-2 0 2 -4q92 -35 135 -125q0 -2 3 -4 t3 -4q14 -41 19.5 -90.5t-0.5 -96.5q-6 -27 -16.5 -51t-20.5 -47q-25 -57 -58.5 -104.5t-72.5 -92.5q-57 -63 -114.5 -119.5t-116.5 -115.5l-39 -37q-53 -53 -116 -119t-116 -119z" />
<glyph unicode="3" horiz-adv-x="821" d="M-53 156q16 18 29.5 11t21.5 -26q2 -2 2 -4q4 2 4 -1t4 -3q8 -14 13.5 -26.5t9.5 -16.5h4q25 -10 49.5 -11t52.5 1q74 6 148.5 41t136.5 69q18 12 28.5 19.5t18.5 12.5t16.5 12.5t22.5 21.5q10 6 19.5 13t13.5 12q23 25 43 46t37 46q8 8 13 17t13 16l33 63 q14 33 23.5 67.5t9.5 77.5l-8 41q-4 12 -10.5 22.5t-10.5 18.5q-25 41 -70 54q-4 4 -11 6t-13 4h-12q-8 0 -21 8q-16 0 -22 -4q-4 0 -4.5 3t-4.5 3l-20 -8q-18 -2 -34.5 -1t-35.5 -3q-4 0 -7 -1t-11 -1q-4 0 -9.5 -1t-9.5 -5q-14 -2 -23 -8.5t-20 -12.5h-4q-4 -2 -5 -4 t-3 -2h-4l-37 -23q-2 2 -2 0t-2 -2l-14 -20h-15.5t-9.5 -4q-4 4 -8 2t-8 0q-4 0 -7.5 2t-7.5 -2q-8 4 -11 10t-13 2q0 12 -12 17q0 10 -5 10q-2 0 -2 6q0 2 2 2q-4 8 -4 16.5v18.5q6 16 11.5 31.5t15.5 25.5q14 4 21.5 10t17.5 13q10 4 14 8t8 4l19 10l133 33q2 0 6 4 q2 0 1 -1t1 -1q18 10 34.5 21.5t37.5 21.5l2 8q4 2 8 2t6 2l39 31q16 14 32.5 26.5t31.5 28.5q10 8 18 15.5t12 17.5l4 4l17 19q4 14 10 18q16 23 11 50.5t-21 43.5q-8 6 -26.5 18.5t-35.5 14.5h-4q-4 0 -4 1t-4 1q-6 2 -14 1t-17 -1h-57q-2 0 -6 -4q-10 0 -22.5 -2 t-18.5 -8h-4q-12 -8 -19.5 -7t-17.5 -8h-6q-2 0 -2 -2v2q-14 -6 -19 -14q-10 0 -12 -4t-8 -4q-12 -12 -33 -14q-14 -16 -31.5 -31t-27.5 -27q-16 -12 -27.5 -27.5t-24.5 -25.5q-37 -12 -75 8q-4 14 -8.5 23.5t0.5 23.5q0 4 2 6t2 4q0 18 2 21q0 4 3 4t5 2t2 10q8 0 8 11 q2 0 6 4q2 4 7.5 7t5.5 13l40 37q4 4 11.5 7t17.5 9q37 23 75 43.5t85 34.5q37 10 80 15.5t90 3.5q10 -2 22.5 -3t22.5 -6l33 -14l47 -14q37 -25 57 -56q14 -18 23.5 -41.5t7.5 -58.5l-10 -51q-6 -23 -15.5 -38t-19.5 -32q-16 -29 -39 -51t-47 -43q-10 -10 -19.5 -17 t-17.5 -18q-10 -8 -18.5 -12t-14.5 -8q14 -10 31.5 -14.5t34.5 -12.5q16 -6 33.5 -18.5t33.5 -26.5q10 -10 20.5 -19.5t20.5 -25.5q6 -10 12.5 -18.5t10.5 -18.5q4 -6 4 -13t4 -18q20 -45 14 -104q-4 -72 -26.5 -126t-51.5 -101q-29 -51 -64.5 -92t-76.5 -80 q-8 -8 -16 -17.5t-19 -13.5q-4 -4 -7 -6t-5 -6q-18 -12 -27.5 -18.5t-16.5 -11.5t-16.5 -11t-27.5 -15l-31 -16v-2q-10 0 -14 -8l-113 -51q-6 -2 -12 -5.5t-14 -5.5h-4l-35 -14l-29 -8l-24 -4q-25 -10 -46.5 -11.5t-48.5 0.5h-14q-10 0 -17.5 2.5t-17.5 6.5q-4 0 -2 -2t-2 0 q-63 6 -104 53l-9 6q-4 10 -6 17.5t-4 19.5q-4 18 2 33.5t10 31.5q13 9 13 13z" />
<glyph unicode="4" horiz-adv-x="835" d="M727 852q27 -4 43 -6t28.5 -8.5t24 -16.5t27.5 -30h-4q4 -4 7 -7.5t3 -9.5q-2 0 -2 1t-2 1q0 -4 1 -9t-1 -9h-4h-2q-6 -2 -3 -2t3 -2q-8 2 -10 0t-7 -2q-2 0 -1 -3.5t-1 -5.5q-4 4 -6 3t-10 4q-2 0 -1 -4.5t-1 -4.5q-4 6 -12.5 3t-18.5 -3t-3 2t-3 0l-35 -6q-4 -2 -8 -2 h-2h-4q-6 0 -6 2q-10 -4 -21.5 -3t-27.5 -3q-25 -37 -44.5 -76t-41.5 -80q-12 -8 -17 -30q-4 -10 -11 -21.5t-11 -25.5q-23 -43 -42.5 -85t-41.5 -81q0 -4 -1 -5t-1 -5q-4 -6 -7.5 -14.5t-7.5 -16.5q-6 -16 -10 -22.5t-7 -11.5t-7 -11t-12 -21l-39 -90l-25 -47 q-4 -10 -8 -21.5t-12 -21.5q-2 -16 -7.5 -29.5t-11.5 -23.5l-6 -19q-2 -4 -1 -4t1 -2q-2 0 -2 4q-4 -2 -4 -6t-2 -8q-4 -4 -4 10q-4 0 -2 -7t-2 -9q-2 0 -1 4t-1 4q0 -10 -9 -10q-4 0 -2 2t-2 2q0 -2 -1 -1t-1 5q-2 -4 -2 -8v8q-8 0 -5 -4t-1 -4t-5 1t-3 1v2q-2 0 -2 -2 t-2 2t-5 6t-6 8q-2 0 -6 -6q2 6 2 12q-4 2 -3 -1t-1 -1q-4 14 -10 15v16q0 -2 -4 2l8 47q4 8 7 18.5t7 20.5q0 4 4.5 7t4.5 7q4 14 6 17v10l90 174l39 84q14 27 22.5 53.5t22.5 51.5l20 45q12 14 25 36v9q2 4 4 12t6 16l17 25l6 8q0 2 1 2t1 2l4 15q0 4 2 4q0 4 1 5t1 5 l25 39q-8 0 -22.5 -5t-29.5 -5q-18 -4 -43.5 -9.5t-46.5 -11.5q-27 -6 -46 -13t-38.5 -14.5t-40 -14.5t-47.5 -15q-10 -6 -16 -7t-19 -4q-20 -2 -36.5 -4t-34.5 0q-49 0 -84 29q-4 16 -12.5 31.5t-6.5 42.5q0 8 2 16t6 21q8 45 36 84t44 69l29 49l27 41q16 20 28.5 43 t26.5 50q4 4 10 9t8 15q14 20 28.5 38.5t31.5 43.5q4 0 4 2t4 4q0 6 5 9t9 12q2 4 4 10t9 6q0 2 4 5t8 7t2 4t2 7v6l25 22l8 13l30 28q39 10 64 -16q8 -8 12 -29q0 -4 -1 -8t-1 -10q-2 -6 -1 -13.5t-1 -15.5q-4 0 -8 -12q-6 -4 -11 -8.5t-10 -8.5q-8 -10 -16 -19t-18 -17 l-33 -37q-2 -4 -2 -11q-10 -10 -19.5 -21t-19.5 -26q-10 -10 -23.5 -25.5t-21.5 -31.5q-16 -16 -26.5 -32.5t-20.5 -33.5q-23 -37 -51.5 -76.5t-49.5 -84.5q-14 -25 -20 -64q20 -6 40.5 0t39.5 10q47 10 77.5 24.5t82.5 25.5q53 14 111.5 25t117.5 22q25 49 47.5 100 t54.5 92q8 16 17.5 30.5t19.5 31.5q4 2 4 6l2 4q12 35 33 59.5t39 52.5q2 0 13.5 18.5t25.5 41t25.5 42t13.5 23.5l22 11q12 2 23.5 3t26.5 -3q4 -6 9 -10.5t11 -8.5q8 -20 8 -39q0 -4 -2 -8t-2 -8q0 -10 2 -17.5t-2 -17.5l-16 -14q-4 -8 -10.5 -18.5t-16.5 -20.5 q-4 -4 -8 -6t-4 -8q-12 -29 -25.5 -48.5t-17.5 -17.5t-4 -8t-6 -10q-16 -29 -37 -54.5t-35 -60.5q-2 0 -2 -1t-2 -1q-18 -31 -38 -60.5t-36 -60.5z" />
<glyph unicode="5" horiz-adv-x="765" d="M1010 1239q0 -8 -1 -15t-10 -7q2 -4 3.5 -6.5t-1.5 -6.5q-4 -6 -10 1t-8 1q-14 2 -25 -4q-10 0 -25 4t-28 2q-12 0 -14 -2h-17.5t-17.5 2l-2 2l-14 -8q-4 0 -12.5 1t-14.5 -3q-10 2 -22.5 0t-22.5 -2q-8 -2 -7 -3l2 -2t1 -2t-10 -1q-14 -2 -14.5 -1t-0.5 3q0 -2 -2 -2 t-4 -1t-4 -1q-6 -2 -10 -1t-8 -3q-25 0 -47.5 -5t-42.5 -10q-20 -8 -41 -11t-37 -11l-66 -19q-4 0 -10 -15t-12 -21q-16 -14 -32.5 -28.5t-27.5 -27.5l-92 -98q-4 -6 -10 -15.5t-14 -19.5q-4 -6 -12.5 -17.5t-15.5 -23.5t-14.5 -22.5t-9.5 -16.5q-10 -10 -16 -21t-14 -24 q16 -4 40.5 2t43.5 11q72 12 156.5 18t144.5 -18q23 -10 43 -13.5t37 -19.5q18 -14 28 -37q4 -4 6 -10t6 -17l11 -24q12 -31 9 -82t-7 -86q-10 -37 -23.5 -71t-32.5 -62q-33 -61 -73 -115q-18 -27 -39 -50.5t-41 -47.5q-25 -25 -50.5 -46.5t-47.5 -37.5q-47 -35 -104.5 -67 t-125.5 -48q-31 -6 -65.5 -9t-63.5 -5q-16 0 -41 6q-27 0 -47 10t-39 27q-31 16 -53.5 43.5t-32.5 60.5q-4 6 -7 21.5t-4 33t-1 33t4 21.5q10 10 8 26.5t4 28.5q4 6 5 14t10 15l16 -9q4 -2 4 2.5t2 -0.5q2 4 5 5.5t9 7.5q0 -6 1.5 -8t1.5 -7q6 0 9 -4t7 -6q2 0 2 -2q2 0 1 1 t1 1l1 -1t2 -10t2 -27.5t5 -53.5q2 -18 8.5 -32.5t14.5 -26.5q18 -23 50 -37.5t62 -18.5q47 -4 91.5 7.5t78.5 21.5q27 20 57.5 36.5t53.5 35.5q27 18 52.5 41.5t45.5 46.5l66 90q10 20 23.5 40.5t27.5 43.5q8 27 23.5 58.5t21.5 66.5q4 23 2 47t-12 43l-8 14l-4 6 q-6 8 -14.5 11.5t-12.5 13.5q-41 14 -87 14t-93 -6q-4 0 -6.5 -1t-6.5 -1q-20 -2 -42.5 -7t-43.5 -15h-6q-4 -4 -11 -5.5t-11 -3.5q-12 -6 -23 -6q-6 -4 -15 -6t-13 -4l-13 -8l-26 -8q-8 -2 -13.5 -6.5t-15.5 -4.5q-8 0 -12 -2q-4 2 -15.5 0t-17.5 0q-6 6 -12 6 q-8 2 -12.5 5.5t-8.5 5.5q-4 8 -13 17t-14 20q-6 31 5 57q2 18 18 31q2 2 2 8q4 10 9 15t9 13q10 2 13.5 6.5t7.5 6.5q31 45 53 94q12 16 20.5 33.5t20.5 34.5l51 59q10 14 18.5 27.5t20.5 27.5q12 16 23.5 27.5t21.5 30.5q20 14 39 31.5t35 35.5q6 20 19.5 30.5t29.5 22.5 q8 6 13.5 12.5t15.5 10.5q10 2 22.5 0t20.5 0q4 0 7 1t9 1q33 12 76 16q27 8 53.5 10.5t53.5 6.5h17t4 -1t3 -1t17 2h12t3 1t3 1h14q57 2 107.5 -1t97.5 -20q4 -10 10 -14t11 -12q0 -4 -1 -4t-1 -2q4 -4 10 -4.5t8 -6.5q0 -4 -4 -6t-8 -6z" />
<glyph unicode="6" horiz-adv-x="813" d="M780 295v-2q-2 -8 -4 -10t-6 -7q-2 0 -2 3q-18 -8 -16 -25v-2q-6 -8 -25 -27q-2 0 -3 -5t-5 -7v-6q-10 -10 -20.5 -16.5t-16.5 -20.5q-29 -29 -60.5 -50.5t-60.5 -45.5l-53 -33q-37 -29 -102 -55l-68 -31q-18 -4 -38.5 -6t-37.5 -4q-16 -4 -31.5 -3t-35.5 1q-18 -4 -41 2 t-43 10q-6 4 -13.5 5t-11.5 5q-27 12 -41 29.5t-29 40.5q-10 20 -19 39.5t-15 38.5l-7 26q-4 16 -4 35t-4 33q0 4 2 9t2 9v49.5t4 51.5q0 10 5.5 24.5t9.5 26.5v35l16 34q20 53 43 106.5t47 96.5q4 16 14.5 28.5t16.5 27.5q18 29 34.5 60.5t33.5 57.5q16 27 35.5 48.5 t35.5 46.5q10 10 21.5 20t21.5 25l56 55q4 4 5 10t5 8q2 2 7 6.5t9 10.5q6 2 8 8t7 10q10 4 18 14.5t18 16.5q6 14 20.5 25.5t22.5 27.5q2 2 2 0q10 2 19 6q6 4 16 12.5t21 12.5q4 8 9 11t11 7q16 4 29 23q16 10 31.5 24.5t29.5 28.5l25 16q2 2 3 1t3 1q8 6 16.5 11.5 t18.5 7.5q2 4 4 3t4 3q16 -4 25.5 -6t21.5 -4q4 -4 8 -11.5t9 -11.5l16 -45q-6 -31 -21 -49q-4 0 -6 -4l-4 -8q-4 0 -12 -3t-12 -10q-25 -4 -33 -20q-27 -14 -37 -29q-23 -10 -39 -24q-6 -4 -17.5 -13.5t-15.5 -15.5q-14 -8 -24.5 -15t-20.5 -18l-57 -45l-10 -10 l-15.5 -15.5t-19.5 -15.5q-4 -6 -8 -11t-9 -9l-28 -27l-15 -10q-2 -4 -3 -10t-5 -13l-22 -18l-15 -21q-14 -12 -28.5 -28.5t-26.5 -30.5q-4 -12 -14 -23.5t-19 -25.5l-65 -111q-16 -29 -29.5 -55.5t-25.5 -54.5q18 10 38 30q12 8 21.5 14.5t23.5 16.5q16 8 32 17.5t32 19.5 l70 37q39 25 87 40t95 32q37 8 71.5 11t73.5 -1q23 -6 43.5 -12.5t38.5 -16.5q2 0 3 -2t3 -2q4 0 4 -2q4 -2 7.5 -4t7.5 -2h2q6 -8 11 -14.5t9 -8.5q23 -16 32 -38.5t13 -57.5q10 -47 -2 -94t-30 -80l-5 -8l-8 -23q-6 -14 -16 -26.5t-21 -26.5v2l-6 -6v-2zM207 53 q39 -2 73.5 6.5t63.5 22.5l57 27q16 8 33 17t27 19q25 14 47 29.5t41 32.5q43 31 79 67.5t68 81.5q18 31 37 65t21 75q6 41 -2 67q-4 6 -20.5 13.5t-33.5 11.5q-4 4 -8 2t-8 2l-18 6q-10 0 -21.5 -2t-26.5 -2q-18 -2 -36.5 -8t-36.5 -11q-33 0 -39 -6l-43 -10 q-29 -10 -55.5 -24.5t-51.5 -24.5q-70 -41 -127 -86q-27 -16 -46 -35.5t-42 -40.5q-8 -10 -16 -17t-21 -12q-2 -8 -9 -11t-11 -9v-13.5t-2 -17.5q-2 -25 -1 -52.5t3 -49.5q0 -23 8 -35t12 -25l27.5 -27.5t36.5 -19.5zM745 248q0 4 5 8q0 -2 2 -4q-4 0 -5.5 -3t-1.5 -1z" />
<glyph unicode="7" horiz-adv-x="739" d="M176 -29q-2 2 -2 6q-4 0 -2 -5t-2 1q-4 -4 0 -8q-10 -4 -11 -8t-3 -8v6l-6 -8q-4 -2 -6.5 -1t-4.5 -3q-2 0 -3 2t-3 2q-4 -4 -6 -13q-4 4 -6 2t-4 -2q-16 6 -25.5 13.5t-11.5 23.5q-12 25 -9 46.5t9 41.5l6 21q0 12 10 22q0 2 1 2t1 2q2 6 3 17.5t5 17.5q8 14 10.5 23.5 t2.5 21.5q10 12 18 29.5t13 36.5q8 18 14 35.5t8 36.5q14 23 20.5 40t18.5 37q10 20 20.5 38t16.5 40q8 4 10 14.5t8 18.5v8q4 4 7 11.5t8 11.5q-14 6 -15 -4q-12 4 -16 2q-2 0 -1 -3t-1 -3q-12 0 -12 -7q-6 6 -9 7q-4 -4 -8 -3.5t-8 -3.5q-10 4 -14 -1t-4 -7 q-12 0 -16.5 -5t-20.5 -5q-4 2 -13 6q-4 2 -3 -1t-3 -3q-10 8 -18 15.5t-23 11.5q-2 2 -2 4l2 2q-10 12 -10 24q0 4 -2 4t-2 2q-2 29 3 48.5t21 27.5q12 6 16.5 8.5t7.5 4.5t8 3t18 1q29 4 56.5 8t53.5 6h32.5t37.5 2h10t10 2q6 4 8.5 11.5t6.5 9.5l26 49l23 41q4 4 8 4 l23 53q2 4 4 7t6 7l22 33l37 60l41 55l19 26l41 56q16 14 26 29.5t25 31.5q-16 0 -37 -4q-33 0 -60.5 1t-54.5 3q-37 4 -73.5 13.5t-71.5 13.5q-35 10 -73 14t-66 -10l-7 -6q-23 -4 -37 -18.5t-20 -30.5l-2 6q-6 -4 -7 -7.5t-3 -7.5l-4 2q2 0 -11 -4q-6 2 -6 4 q-6 -4 -12 1.5t-10 0.5q-4 4 -5 9.5t-6 1.5q2 4 -1 7t-5 7q0 6 -4 9t-4 10q0 2 -2 2t0 2q-2 4 2 6t6 6q-4 6 -1 7t3 5t-2 5t0 3q0 2 2 7.5t4 9.5q4 12 9 12q20 27 57 43t82 25q20 2 40.5 0t45.5 0q2 0 0 2t2 2v-2l2 2q2 -4 1 -3t-1 -3q4 0 3 3t3 1l103 -25q0 -4 2 -4 q61 -20 139 -16q4 0 2 2q16 -4 30.5 0t26.5 8l58 10l34 8q16 2 36 10.5t40 12.5q4 2 12.5 2t16.5 4q4 4 7 8t13 8q8 12 25 13q6 0 12 -2t10 -2q10 -6 18.5 -11.5t14.5 -15.5q10 -10 11.5 -22.5t3.5 -28.5q-10 -10 -17.5 -20.5t-17.5 -20.5v-15q-6 -2 -7 -5t-6 -5 q-10 -14 -18 -21t-23 -18l-55 -57q-12 -10 -24.5 -23.5t-26.5 -19.5q-12 -16 -23.5 -24.5t-27.5 -24.5q-8 -8 -15.5 -16.5t-17.5 -18.5q-25 -27 -46.5 -57.5t-39.5 -61.5q-29 -43 -55.5 -86t-48.5 -88q12 -4 25 -4h24q18 0 37.5 -2t40.5 -4q14 0 25 1t26 -1q4 0 5 -1t5 -1h8 q6 0 14.5 -2t12.5 0l16 -21q4 0 6 -1t6 -1q0 -4 3.5 -4t3.5 -4q0 -2 -2 -3t0 -5q2 -2 8 -2q2 -6 1 -9.5t1 -7.5h-8q4 -4 -2.5 -8t0.5 -12q-6 0 -8.5 -4t-10.5 -4q2 -4 -1 -6t-5 -5q-8 -4 -17.5 -3t-13.5 -7q-6 0 -13 1t-9 -3q-16 0 -29.5 1t-30.5 -1q-23 -2 -41 -1t-36 -1 q-6 0 -14.5 1t-16.5 1t-13.5 -1t-11.5 -1h-51q-10 -4 -16 -16.5t-15 -24.5l-57 -106q-16 -35 -32.5 -76t-33.5 -76q-4 -4 -6 -10t-6 -10q-2 -18 -12 -36t-14 -38l-5 -2q4 -4 -2 -11.5t-4 -17.5q-16 -41 -31.5 -80t-17.5 -86zM170 -35v-6v6z" />
<glyph unicode="8" horiz-adv-x="884" d="M948 1026q-4 -20 -12 -36.5t-16 -31.5l-2 3q-23 -41 -49.5 -77t-54.5 -66t-53.5 -51.5t-43.5 -29.5q-14 -4 -20.5 -9t-16.5 -9q-2 0 -1 -2t-1 -2q-2 2 -7 -1t-5 -5q2 -4 6 -3t4 3q10 -2 16 -4.5t13 -2.5q0 4 -5.5 4.5t-9.5 4.5q10 0 23.5 -5.5t23.5 -9.5q14 -4 25.5 -11 t21.5 -15q2 -2 2 -3t5 -3l12 -13q4 -2 9 -5t11 -5q2 -12 8.5 -18.5l10.5 -10.5q25 -35 30 -79t-6 -93l6 6l-12 -45q-2 -6 -2 -14q0 -2 -1 -4t-1 -6q-2 -10 -7 -20.5t-11 -20.5l-9 -12q-10 -16 -20 -36t-27 -34q-6 -20 -23.5 -35.5t-29.5 -30.5q-16 -14 -29.5 -27.5 t-27.5 -23.5q-35 -27 -68 -49t-65 -41q-39 -20 -76 -38.5t-72 -35.5q-35 -4 -66.5 -13t-62.5 -13l-43 -2l-20 -4q-23 -2 -49.5 1t-49.5 7h-18q-23 12 -47.5 22.5t-44.5 26.5q-6 4 -8 8t-9 8q-31 29 -46 58.5t-27 70.5q-4 16 -6.5 31.5t0.5 32.5q-4 6 -1 11t1 13q2 10 1 24.5 t3 31.5q4 27 13 49t19 39q14 41 33 76.5t45 58.5l27 29l26 20l7 12l10 4l12 19l27 14l6 10q16 10 36.5 21.5t35.5 24.5q12 2 17 6t13 8q-10 10 -19 14t-13 13q-12 10 -21.5 20t-15.5 20q0 6 -2 10.5t-2 8.5q-14 27 -11 61q-2 14 -3 24.5t3 20.5q10 35 22.5 69t31.5 56 q10 10 15 17.5t15 23.5q20 27 45 53.5t54 47.5q27 23 55.5 45t58.5 39l94 47l19 4l29 16q25 6 53.5 11.5t56.5 7.5q10 2 16.5 4t12.5 4h9t15 -2q6 -2 9 -15q2 4 4 2t4 3q18 -6 41.5 -12.5t44.5 -16.5q8 -8 10 -8q10 -6 18.5 -14.5t18.5 -16.5l29 -27q20 -33 30.5 -74.5 t-0.5 -84.5q0 2 2 2l-4 -15q-2 -4 -2 -10zM578 612q-10 -6 -24.5 -2t-29.5 2l-18 6q-14 0 -25.5 -2t-23.5 -2l-62 -6l-92 -43l-33 -10l-30 -18q-12 0 -29 -17q-4 -4 -13.5 -7t-15.5 -7l-37 -35l-39 -35l-43 -57q-25 -35 -44 -72t-21 -86q-2 -27 6 -53.5t19 -48.5 q25 -29 53 -43q20 -12 41.5 -15.5t44.5 -7.5q76 2 145.5 24.5t138.5 51.5l43 25l70 43q20 14 39 32q18 14 32.5 26.5t31.5 27.5l16 16l12 25q20 16 32.5 38.5t29.5 47.5l18 49q2 6 5 16t1 21q-4 35 -14 56t-37 38l-12 6t-17 6q-10 2 -19 2t-20 10q-10 4 -28.5 8.5t-30.5 8.5 zM854 1096q4 20 -8 37q-8 16 -27.5 29.5t-36.5 23.5q-4 2 -12 2t-18 4q-4 6 -7 6l-83 -12q-23 -4 -42.5 -10.5t-39.5 -12.5q-156 -51 -258 -184q-27 -25 -52 -70q-6 -16 -18 -40.5t-8 -53.5q8 -33 49 -43q55 -20 105.5 -15t93.5 15q14 4 29.5 9t27.5 10q16 0 25.5 5t25.5 11 q59 29 107 63q16 14 30.5 28.5t30.5 35.5q25 33 53 65q10 27 22.5 46.5t10.5 50.5zM950 1036q2 0 4 2l-6 -12q2 4 2 10zM633 1171q-2 0 -2 3v2q2 0 3 -2.5t-1 -2.5zM877 465q2 -2 -0.5 -2t-2.5 -2q1 2 3 4z" />
<glyph unicode="9" horiz-adv-x="718" d="M184 -86q-6 0 -3 4t1 6q-2 -8 -6 -10t-8 -12q-4 2 -6 -2t-6 -4q-2 0 -2 1t-2 1q-8 -2 -10.5 -3t-4.5 -1t-7 1t-9 -1q-4 2 -7 5t-8 -1q-2 8 -6 6q-10 10 -15 30.5t-3 36.5q4 18 12 33.5t15 34.5l28 61q12 31 27.5 62t28.5 63q4 12 14 26.5t14 31.5l10 32l48 91 q8 16 17 29.5t13 29.5q16 29 30.5 56.5t31.5 56.5q16 20 28.5 42.5t32.5 45.5q10 16 22.5 31.5t18.5 27.5l-39 -23v-8q-2 0 -1 2t-1 2l-31 -16q-4 -10 -24 -14l-10 -11q-6 -4 -11.5 -6t-11.5 -6q-4 0 -4 -6q-14 -6 -27.5 -9t-27.5 -12q-29 -12 -56 -18q-4 -4 -10 -4 q-20 -2 -39.5 -2h-40.5q-14 0 -30 8q-53 23 -76 66q-12 20 -18.5 41.5t-2.5 50.5v21.5t4 19.5l19 63q10 29 23.5 56.5t27.5 54.5q39 63 85 123.5t103 103.5q12 2 21.5 6t17.5 9q2 10 6.5 13t8.5 9q18 4 31.5 13.5t35.5 17.5l31 12l35 12q4 2 6 8.5t6 8.5q12 4 22.5 3 t16.5 -1q23 2 43 4t37 -2q20 -4 40.5 -11.5t41.5 -11.5q25 -14 38 -31.5t33 -37.5q10 -35 11 -74q20 18 36.5 47t41.5 43q23 10 43 2t34 -24l11 -9q8 -8 8 -12q0 -8 -1 -11t-1 -9q0 -16 -2 -25l-17 -6l-16 -27l-19 -20l-18 -31l-33 -35q-4 -4 -8 -12t-10 -12q-4 -6 -9 -7.5 t-10 -5.5q-2 -2 -2 -4v-4q-14 -6 -20 -20q-8 -8 -11 -15.5t-8 -15.5q-16 -10 -23 -26.5t-15 -26.5q-16 -10 -25.5 -22.5t-17.5 -26.5l-37 -56q-23 -25 -40.5 -51.5t-35.5 -54.5q-35 -55 -65.5 -110.5t-65.5 -115.5q-63 -115 -118.5 -236.5t-108.5 -250.5q0 -6 -2.5 -8 t2.5 -4q-4 -4 -4.5 -9.5t-4.5 -7.5q0 -6 -1 -9t1 -7zM643 1147q-6 31 -18 43q-14 10 -25.5 11t-26.5 3q-10 4 -22 2t-23 -2q-23 0 -24 -2q-18 0 -28.5 -3t-24.5 -13q-10 -2 -15.5 -6t-15.5 -9q-4 2 -5 1t-3 -1q-12 -16 -32 -26t-36 -29q-16 -6 -30.5 -20.5t-24.5 -28.5 l-45 -55q-16 -18 -32.5 -38t-23.5 -44q-10 -20 -23 -44t-24 -46q-10 -29 -17 -70t13 -68q20 -10 43 -10t41.5 10.5t40.5 16.5q4 2 9 2t14 4q25 18 53.5 35.5t56.5 38.5l39 28l17 25l22 12l35 29l27 12q18 16 30.5 34.5t26.5 35.5q2 20 11 41.5t18.5 42t16.5 42t5 46.5z M408 672q2 6 20 10q-2 -2 -2 -4q0 -4 0 -2t4 2q0 -6 -10 -6v6q-10 -8 -12 -6zM395 655q0 2 1 7.5t5 5.5q0 -4 -2 -6.5t-4 -6.5zM449 692q0 -2 -5 -6q1 2 5 6zM385 655q-6 0 -2 0t6 2q-2 -2 -4 -2zM432 684h-2l2 2v-4v-2v4zM401 668v2l2 -2h-2zM436 686q-2 0 -2 2l2 2v-4z " />
<glyph unicode=":" horiz-adv-x="577" d="M319 49q-4 -14 -12 -18t-18 -15q-4 -4 -10.5 -6t-10.5 -2t-5 1t-5 1q-8 4 -17.5 3t-15.5 1q-10 4 -16 10.5t-12 10.5q-25 31 -9 76l7 12l10 22q6 6 11 14.5t11 16.5q16 4 32.5 5t31.5 -9l6 -6q10 -8 20.5 -19.5t14.5 -21.5q4 -18 0.5 -42t-13.5 -34zM406 436 q-4 -16 -12.5 -20t-18.5 -15q-4 -4 -11.5 -6t-11.5 -2q-2 0 -3 1t-5 1q-8 4 -16.5 3t-16.5 1q-10 4 -17 9.5t-11 9.5q-20 33 -9 78l7 12l8 22q8 4 13 13.5t11 15.5q16 4 32.5 5t31.5 -7l6 -6q10 -10 20.5 -19.5t16.5 -21.5q2 -18 -1 -41t-13 -33z" />
<glyph unicode=";" horiz-adv-x="395" d="M197 -92q-6 -4 -10.5 -9t-8.5 -12v2h-4v2q0 -2 -4 -6q0 4 2 4t2 2q-2 2 -2 0t-4 -2q4 4 2 7q2 0 4 2h-2q-4 -2 -6 -5.5t-6 -3.5q4 4 4 11q-6 -6 -8 -6v4q-2 0 -2 -1t-2 -1q0 4 1 4t1 2q-2 2 -4 0q0 2 1 2t1 4q-2 0 -2 -2t-3 -2q0 6 2.5 7t2.5 5h-2v2q0 2 1 2t1 2 q2 12 14 25l4 6q8 12 5 12t7 10l29 45q6 8 8 11.5t3 4.5t2 5t5 16q-4 -4 -7 -9t-9 -7q0 -4 -3 -5t-5 -5q-8 -8 -13.5 -11.5t-15.5 -3.5q-6 0 -8 2q-4 0 -7 -1t-5 -1q-12 4 -15 4l-6 7l-10 10t-8 12q0 6 -2 8q0 8 -1 21.5t3 17.5q4 10 8 22.5t10 18.5h4q2 14 11 23 q0 -4 -2.5 -6t-2.5 -7q10 10 21.5 16.5t23.5 16.5q2 0 1 -1t2 -1l18 8q0 2 -6 -4h6v-2q4 4 8 2t10 -2q4 0 4 -4h11q0 -2 1 -2t1 -4q4 -4 8 -4t8 -4q10 -8 16.5 -23.5t10.5 -34.5v-12q0 -10 2 -17t-2 -16q-6 -18 -8 -25t-3.5 -9t-2.5 -2t-3 -5q0 -4 -2 -7t-4 -7q-2 0 -2 -2 q-4 -16 -6 -21.5t-12 -19.5q-8 -16 -17 -20q-4 -4 -7 -8.5t-5 -8.5h-2l-7 -7t-9 -7v-2q0 -4 -4 -4zM326 426q-4 -16 -12.5 -21.5t-18.5 -15.5q-6 -8 -21 -8q-4 0 -5 1t-7 1q-6 4 -14 3t-19 1q-8 4 -14 10t-16 11q-18 33 -9 79l7 13q4 8 7 12t7 10q6 6 10 14.5t10 16.5 q16 4 35 5t31 -7l8 -8q10 -8 20.5 -18.5t14.5 -22.5q4 -20 0 -43t-14 -33zM180 -104q0 -2 -1 -3.5t-1 -3.5z" />
<glyph unicode="&#x3c;" horiz-adv-x="714" d="M557 662q2 0 3 4t5 4q4 -8 11.5 -7t9.5 -8q0 -2 4 -2q4 -4 4 -12t2 -14q-4 -14 -7 -27.5t-14 -19.5q-4 -10 -11 -16.5t-13 -12.5l-21 -21q-6 -6 -16 -15t-22.5 -20.5t-22.5 -20.5t-16 -11l-13 -6q-59 -53 -131 -99q6 -6 10 -4l25 -18l25 -12l8 -9l8 -4l12 -10 q37 -33 71 -61.5t40 -32.5q6 -8 24.5 -25.5t28.5 -23.5q2 -2 0 -8q2 -4 1 -4.5t-1 -4.5l8 -18q-2 -2 -4 -7t2 -7q-2 -4 -1 -7.5t1 -7.5q-4 -4 -4 -6q0 -4 -2 -5t2 -3q-4 -2 -4 1t-4 -1q0 -2 2 -3t2 -5q-4 0 -5 -3t-3 -3q0 4 -4 4q-2 -4 0 -6.5t0 -6.5q-2 4 -4 2t-6 -2l-2 -4 q-4 4 -7 2q2 2 -6 2l-2 -4q-4 4 -9 7t-13 6q-4 6 -24.5 24.5t-44 39t-44 36.5t-27.5 20l-22 17q-8 6 -18.5 10t-20.5 10q-4 4 -11 4t-12 4q-6 0 -10 9q-10 2 -17 4t-16 6q-2 0 -2 1t-4 1q-18 4 -34.5 9t-28.5 20q-4 8 -6 17t-6 19q2 12 2 26.5t10 29.5q2 4 7 8t11 12 q4 4 8.5 7t12.5 6q2 0 4 -1.5t8 1.5l2 2q2 0 2 1t2 1l4 4h2q16 14 30.5 23t31.5 20q33 27 65.5 45t63.5 47q20 16 55 49t57 47q0 4 2 5t2 3q4 0 6.5 2t6.5 4q4 0 6 3.5t6 3.5q2 0 0 -2t0 -2z" />
<glyph unicode="=" horiz-adv-x="843" d="M690 295q0 -2 -4 -2q-2 -4 -1 -7t-3 -3q-2 -2 2 -2q-2 -4 -3 -2t-3 0t0 -3q-4 -2 -10 -2q-4 -2 -2 -3t0 -3q-4 0 -6.5 -1t-4.5 -1q-8 2 -14 -1t-14 -3q-4 0 -10.5 1t-12.5 1h-8q-8 -2 -15.5 0t-17.5 2q-4 0 -4 -4q-2 2 -3 1t-3 3h-59q-12 0 -16.5 -1t-14.5 -3 q-6 -4 -13.5 -3t-11.5 1q-10 0 -18 -2t-14 -2q-8 -4 -15.5 -1t-13.5 -1q-16 0 -37 -1t-41 -3q-4 0 -11 -2t-16 -2q-16 -2 -31.5 1t-33.5 -1q-8 2 -18.5 4t-16.5 10q0 4 -3 4t-7 2l-8 10q-6 4 -8.5 15.5t-2.5 17.5q4 4 4 6v13l19 26q10 4 21.5 7.5t21.5 3.5q4 0 4 -3 q104 2 204.5 6.5t205.5 -8.5q6 -8 21 -9t26 -5q-4 -4 -1 -5t1 -5q4 0 6 -2q0 -2 -1 -1t-1 -1q2 -2 5 -2t5 -2h-4q2 -4 4 -5t2 -6q0 -4 -1 -3t-1 -1h2v-9t4 -9zM702 504q0 -2 -4 -2q-2 -4 -2 -6t-4 -4q0 -2 4 -3q-2 -2 -3 0.5t-3 -0.5q-2 -2 4 -2l-14 -4q-4 0 -2 -1t0 -5 q-6 0 -10 -4q-8 2 -15.5 0t-13.5 -2t-11 1t-14 1l-4 -2q-10 0 -18 2t-14 0q-4 0 -5 -2q-2 4 -4 2t-4 2h-30.5t-26.5 -2q-16 0 -22.5 1t-18.5 -3q4 -4 5 -2t3 0q-6 -2 -12 -1t-17 -1q-8 0 -14 -1t-16 1q-8 -4 -14.5 -2t-12.5 -2q-18 0 -37.5 1t-40.5 1q-4 0 -12 -2t-12 -2 q-20 -2 -37 4t-33 2q-10 4 -20.5 5t-14.5 11q-6 4 -8 6q-4 4 -7 6.5t-5 6.5q-6 8 -6 18q0 2 4 6v11q6 14 18 24l22.5 9t22.5 5q0 -2 2 -2q104 2 204.5 6.5t205.5 -12.5q8 -4 22.5 -6t24.5 -6q-4 -4 -2 -5t2 -5h6q0 -4 -1 -4t-1 -2q2 -2 10 -2q0 -2 -4 -2q6 -6 6 -7 q0 -2 -2 -4q0 -2 2 -2q-2 -4 -1 -10t5 -8z" />
<glyph unicode="&#x3e;" horiz-adv-x="632" d="M219 680q2 0 1 2t1 2q4 0 5 -3t5 -3q4 -2 5.5 -4t5.5 -2q0 -2 2 -3t2 -5q18 -14 50 -46t48 -49q27 -29 54.5 -53t56.5 -51q16 -10 27.5 -19.5t25.5 -23.5h2l4 -4l2 -2q0 -2 2 -2q6 -2 8 -1t4 1q8 -2 12.5 -5t8.5 -8q4 -8 8 -12t6 -8q4 -14 3 -28.5t-3 -26.5 q-4 -10 -8 -19.5t-10 -17.5q-16 -14 -32.5 -17.5t-35.5 -7.5q-4 0 -5 -1t-3 -1q-14 -6 -35 -10q-4 -8 -10 -8q-6 -4 -13 -4t-14 -4q-10 -6 -21 -10.5t-20 -10.5l-26 -16q-6 -4 -29.5 -21.5t-50.5 -38t-49.5 -39t-28.5 -24.5q-8 -2 -13 -5t-11 -8v5q-8 0 -9 -2q-2 2 -6 -3v5 q-4 0 -6 2t-4 -2q-2 4 0 6t2 6q-4 0 -6 -4q-2 0 -2 3t-4 3q0 4 2 5t2 3q-4 4 -4 1t-4 -1q4 2 2 3t2 5q0 2 -4 6q0 4 2 7.5t0 7.5q4 2 4 7t-2 7l12 19q0 4 -1 4t1 4q0 6 2 8q16 10 26.5 20.5t26.5 20.5q2 2 21.5 18.5t44 37t45 36.5t22.5 16l15 11l10 4l8 8l31 14l29 21 q4 -2 10 4q-31 23 -59.5 46.5t-55.5 51.5l-12 6q-8 6 -34 31t-36 35l-16 20q-4 6 -11.5 12.5t-9.5 16.5q-8 6 -9 19.5t-1 27.5q2 6 4 14.5t6 12.5q4 0 6 2q4 8 10.5 7t12.5 7q4 0 4 -4t2 -4z" />
<glyph unicode="?" horiz-adv-x="1069" d="M397 285l-20 -29q-2 4 1 5t3 3q-4 0 -10 -6q0 4 -2 5t0 5q-4 -4 -7.5 -1t-9.5 3q2 8 1 17.5t3 15.5q-4 0 -4 -3t-4 -3l6 39q-4 2 -3 -1t-3 -3q4 12 11.5 22.5t9.5 22.5q4 10 9 20.5t15 20.5q10 16 22.5 32.5t24.5 30.5q18 23 33.5 43.5t32.5 38.5q12 4 17 11.5t14 17.5v6 l59 68l31.5 31.5t34.5 37.5q16 18 34.5 35.5t36.5 34.5q35 35 69 69.5t68 69.5q4 10 14.5 16.5t14.5 16.5q16 12 32.5 29.5t35.5 37.5l43 52q10 14 20 30.5t14 32.5q4 29 -7 42t-31 22q-23 6 -51.5 7t-51.5 3q-2 0 -4 2t-4 -2h-16q-10 0 -19.5 -1t-17.5 -1q-6 -2 -23 -2 q-2 0 -6 -2t-8 -2q-6 -2 -13.5 -1t-11.5 -3q-33 -4 -61.5 -16.5t-59.5 -18.5q-2 -2 0.5 -1t2.5 -1q-4 0 -5.5 -2t-5.5 -2q-2 0 -2 -1t-2 -1q-4 0 -4 -1t-4 -1q-4 -4 -8 -4.5t-6 -6.5q-4 2 -9.5 0t-9.5 -4l-8 -8q-2 0 -7 -1t-5 -5q-4 2 -6 0t-7 -2q-4 0 -4 -4q-6 0 -14 -8 q-14 -10 -26.5 -19.5t-28.5 -19.5q-10 -4 -27 -19l-4 -4q-23 -12 -40 -35.5t-34 -46.5q-16 -6 -32.5 -15t-34.5 3q-16 6 -19.5 21.5t-11.5 31.5q2 12 3 21.5t7 13.5q-4 10 1 13t9 7l7 11l6 4q6 12 10 14q6 6 11 13.5t14 13.5q2 0 4 1t4 1q4 8 16 14q10 10 24.5 18.5 t26.5 18.5q14 6 28.5 14.5t31.5 16.5q16 6 32.5 16t32.5 16t27.5 11.5t28.5 9.5l22 10q4 2 14 2l52 15q14 4 25 8t26 4q61 14 126.5 21.5t131.5 -15.5q59 -16 92 -59q23 -16 33 -49t4 -68q-4 -16 -10.5 -28.5t-14.5 -28.5q-2 0 -1 -1.5t-1 -1.5q-35 -68 -85 -116.5 t-103 -98.5l-66 -67q-2 -2 -8 -12q-31 -27 -57.5 -53.5l-55.5 -55.5l-49 -49l-149 -170l-47 -57l-47 -64q-2 -6 -11 -18q-4 2 -7 -6.5t-7 -12.5q-4 0 -2 1t2 3q-6 -4 -12 -15t-10 -15q-2 4 2 8t4 8q-8 -8 -11.5 -15.5t-7.5 -13.5zM340 -2q-4 -16 -15.5 -26.5t-21.5 -20.5 q-4 -4 -5 -8t-5 -4l-8 4q-10 4 -18.5 4t-14.5 4q-10 4 -16.5 10t-14.5 10q-20 33 -2 76l4 16l15 17l24 29q41 10 66 -7l8 -6q6 -10 16 -21.5t15 -25.5q2 -18 -7.5 -29.5t-19.5 -21.5zM440 322q-2 -2 -2 -5l-4 -4zM403 279q0 -4 -1 -4.5t-1 -2.5q-2 0 -1 3.5t3 3.5z" />
<glyph unicode="@" horiz-adv-x="1140" d="M899 -55q4 4 7 5t5 5q0 -2 0 1t2 1v6l13 4q2 -2 -3 -4t-5 -6q8 8 18 12q-6 -6 -14.5 -11t-14.5 -11q4 -2 9.5 2t9.5 8h2l69 49v-4l9 6q-4 -6 -11.5 -10t-13.5 -12q12 8 24.5 18t26.5 23l-14 -17l-51 -43q-4 -2 -10.5 -7t-12.5 -9q-4 -4 -10 -7t-10 -7q-4 -2 -4 -6.5 t-5 -6.5q37 16 68 41t61 47q0 -4 -3 -3t-1 -3q-12 -10 -23 -19.5t-24 -17.5l-6 -8q-12 -10 -25.5 -17t-23.5 -18q0 -2 -2 0q-6 -6 -17.5 -11t-17.5 -11q37 16 71 41.5t64 52.5q0 -4 -2 -5t-4 -5q4 -2 7 4t10 8q-12 -20 -35 -39q-2 -2 -2 0q-29 -31 -76 -61l-12 -11 q-4 -4 -7.5 -4t-7.5 -4q0 -6 -2 -8q-6 -4 -16 -9t-15 -9q-2 0 -2 2q-6 -6 -6 -7q-2 0 -3 -2t-3 0q-4 -4 -9 -4t-9 -4q-2 -2 -4 -6t-7 -6q-6 -4 -16 -6t-16 -10q10 4 20 9t21 9v4q0 -2 2 -2l2 -2q-4 0 -4 -2t-2 0q-16 -6 -25.5 -12t-24.5 -11l-10 -8q-4 -2 -3 0t-1 2 q-2 -4 -4 -5t-6 -5q-2 2 -4 1t0 3q-2 0 -2 -4h-8q-2 0 -2 -4q-6 0 -9.5 -3t-5.5 1l-45 -19q-2 0 -2 1.5t-4 1.5q-2 0 0 -3l-29 -6h-4l-4 -4q-2 0 -3 1t-3 1q-2 -2 -6 -2q-4 -2 -10 -2q-12 -2 -26.5 -4t-29.5 -2l2 2h-10q0 -4 0 -1t-2 1v-2q-4 0 -6 2q-4 -2 -1 -1t3 -3 q-4 -2 -5 0t-5 4q-12 -2 -21.5 -1t-19.5 -1q-6 0 -6 -2q0 2 -1 2t-1 2q-2 -2 -4.5 -1t-4.5 -1q-23 4 -45 7t-43 7l2 2h2h2l-2 2h-8q-4 4 -5 1t-5 -1q-4 0 -9 3.5t-12 -0.5q-4 2 -7 6t-7 4l2 4q-4 0 -6 -1t-4 -1q-16 6 -34.5 15t-35.5 20q-6 4 -12 7t-14 5q-78 53 -125 151 q-20 29 -27 66q-2 4 0 2t0 0q-2 16 -6 31.5t-8 27.5q0 -2 -2 -2q0 14 -2 25l-2 -2q0 -2 1 -3t1 -3l-2 6l-2 33h2q2 4 0 8t-2 8v6h2q0 4 -1 6t-1 4q2 0 1 -1t3 1q-4 25 -4 50.5t4 50.5q4 20 7 39.5t9 38.5l2 4l8 30l6 9q0 4 1.5 5t1.5 5v2q0 2 1 2t1 4v2q2 12 8 23v-4h2v2 q0 2 1 3t1 3q0 -2 -1 -2t-1 -2h-2q4 12 8 18v-2h2q0 2 1 2t1 2h-2l-2 -2q6 20 16 37v-2q2 2 2 4v2l-2 -2q8 20 21 35q2 2 4 2q14 35 35.5 65.5t46.5 59.5q0 2 -1 2t-1 2h2q23 23 45 48.5t45 43.5q4 8 13 13t14 14q31 23 62.5 45t66.5 45q8 0 11 5t7 5q6 6 18.5 13.5 t22.5 7.5q0 4 6 4q20 10 43 18t49 16q14 4 27.5 5.5t26.5 5.5h6q14 0 25.5 1t23.5 -1q16 -2 31.5 -6.5t27.5 -8.5q16 -4 26.5 -10t26.5 -10q0 4 -4 4t-6 2q16 -4 30.5 -15.5t27.5 -21.5l-2 -6q6 -4 11 -7t9 -5q4 -10 11 -15.5t16 -15.5v2q23 -31 39 -71t22 -87l4 -30 q4 -20 4 -40t-2 -38v-39t-4 -39q-4 -49 -20.5 -93t-32.5 -79q-37 -86 -90 -158q-29 -39 -58.5 -72.5t-74.5 -56.5q-20 -8 -38 -16t-40 -6q-27 0 -53 16q-23 16 -37.5 38.5t-20.5 61.5q-4 20 -5 41t1 43q-25 -27 -56.5 -53t-72.5 -45q-18 -10 -37.5 -15t-42.5 1q-4 4 -8 4v2 q-23 4 -31 22q-12 12 -19 32t-5 42q0 12 2 25.5t2 23.5q2 2 3 5t3 3q14 66 43 120.5t68 103.5q2 0 4 2q12 16 26.5 29.5t30.5 29.5q6 2 8 8q20 10 35.5 26.5t38.5 27.5q12 4 23.5 8t19.5 2q29 6 49.5 1t42.5 -11q6 -6 6 -9h2l17 -14q0 6 4 11t8 12l4 14q10 18 28.5 33.5 t47.5 11.5q4 0 6 -3t6 -5q8 0 14 -2l23 -15q6 -16 3 -33.5t-7 -31.5q-35 -33 -62 -82q-14 -16 -22 -34.5t-16 -37.5q-4 -8 -5 -6q-4 -2 -5 -5t-5 -7v-4q0 -2 -1 -2t-1 -2q-16 -31 -29.5 -65t-25.5 -66v-5l-6 -8q0 -12 -3 -22t-3 -23q-4 -12 -3 -28.5t5 -30.5q4 -8 15 -13.5 t22 -0.5q4 2 5 4t3 2q14 4 14 6q23 10 37 24.5t27 30.5q10 6 15 14.5t17 18.5q27 39 50.5 81t39.5 91h-2q2 2 2 8l2 2v2q2 2 0 4v2q2 0 3 -2l8 35h-2v2h2q4 18 8 39t2 43q0 23 2 44.5t0 43.5q-10 129 -90 178q-14 16 -34.5 22.5t-45.5 12.5q-23 8 -43 6t-49 -6 q-12 -2 -26.5 -5t-28.5 -7t-27.5 -11.5t-24.5 -11.5q-12 -8 -18 -8q-14 -4 -27.5 -13t-23.5 -18q-6 -4 -13.5 -7t-11.5 -9q-16 -12 -34.5 -26.5t-34.5 -28.5q-23 -16 -40.5 -37t-37.5 -43q-10 -14 -21.5 -26.5t-21.5 -28.5q-16 -27 -34 -53.5t-30 -55.5q-10 -10 -15 -22.5 t-9 -24.5q0 -8 -4.5 -16.5t-8.5 -18.5q-8 -20 -13 -41.5t-9 -44.5v2l-2 2l-2 -6h2q0 -2 -2 -4l-2 -2q0 -2 1 -3t1 -3q0 -4 -2 -9.5t-2 -11.5q2 -2 2 -4v-4q-2 -4 -2 -8q2 0 0 -6v-8l-2 2v-7q0 -2 1 -2t1 -2v-2h-2q-2 -37 4 -75.5t16 -69.5q0 -2 -2 -2q20 -51 48 -89t63 -69 q0 -2 2 -2q0 -4 4 -7t8 1l4 -8q43 -25 91 -41.5t106 -20.5q4 -4 2 -4v4q4 -2 9 -1t9 -1q2 0 2 -2t4 -2v4q61 -4 133 12.5t125 45.5q0 -4 -1 -4t-1 -3l15 13q2 0 4 -2q2 2 5 2t7 4q31 12 57 33q16 4 29.5 15t28.5 17q-20 -16 -45 -30q0 -2 1 -3t1 -3q2 0 6 4q0 2 -2 2h4v-2 q4 2 2 2t0 2q4 0 4 -2q0 2 4 2l2 -2h2l2 2h-6zM653 504q2 12 -7 18t-17 10q-27 2 -53.5 -15t-43.5 -34q-35 -29 -59 -65q-8 -8 -13 -17.5t-11 -17.5q-16 -27 -34 -58.5t-22 -66.5q0 -10 -1 -17.5t3 -15.5q23 4 39.5 16.5t28.5 24.5q47 41 84 86t71 92q6 4 10.5 11.5 t12.5 19.5zM854 -82q10 4 15 8l10 8q-2 0 -2 2.5t-3 2.5q-2 -2 0.5 -3.5t-0.5 -3.5q-6 -4 -10 -5t-10 -5v-4zM815 -100l6 6l2 2l-8 -4q-2 0 -4 -2v-2h-4q-2 -2 -2 -6v-3zM815 -100l6 6l2 2l-8 -4q-2 0 -4 -2v-2h-4q-2 -2 -2 -6v-3zM885 -109l10 7v4l-4 -4h-4l-2 -4 q-2 0 -2 -3h2zM885 -109l10 7v4l-4 -4h-4l-2 -4q-2 0 -2 -3h2zM848 -164l20 10q-4 -6 -18 -10h-2zM887 -143q2 4 7 7t9 5q-2 -4 -7 -6t-9 -6zM98 397l-6 -24q0 -2 -1 -2t-1 -2v2l6 24v-4zM852 -82v2h-4l-2 -4h-2v-4h2zM852 -82v2h-4l-2 -4h-2v-4h2zM262 -68v-4v-2h2l2 -2h6z M262 -68v-4v-2h2l2 -2h6zM907 -78l-2 -2h-2v-2q-4 0 -6 -2q-2 0 -2 -2q2 0 2 1t2 1l4 2h2l4 2l2 2q2 0 2 2l2 2zM401 -236l2 -2h-2h-2l-2 -2h-2v2h-2v2h8zM907 -78l-2 -2h-2v-2h2l4 2l2 2q2 0 2 2l2 2zM696 -223h2v2h4h5l8 4h-2q-2 0 -3 -1t-3 -1t-3.5 -1t-3.5 -1h-4v-2z M696 -223h2v2h4h5l8 4h-2q-2 0 -3 -1t-3 -1t-3.5 -1t-3.5 -1h-4v-2zM106 412q0 4 1.5 5t1.5 5l-9 -19zM958 -66l-4 -4h-2q-2 0 -2 -2v-2v-2q0 2 2 2t2 4h4v2l3 2h-3zM854 -102v-4h-2v-3h2q0 2 2 2.5t2 4.5h-4zM854 -102v-4h-2v-3h2q0 2 2 2.5t2 4.5h-4zM539 909q-2 0 -4 -2 q-2 0 -2.5 -1t-2.5 -1l-14 -8l25 12h-2zM539 909q-2 0 -4 -2q-2 0 -2.5 -1t-2.5 -1l-14 -8l25 12h-2zM973 -20q-2 0 -2 -3q-4 0 -6 -2h-2v-2l-5 -2h3q2 2 6 2q0 2 2 2q0 2 4 2v3zM121 453q0 2 1 2t1 2l-2 -2h-2v-4h2v2zM840 -115v2h2h2q0 -2 -1 -2t-1 -2h-2v2zM840 -115v2h2 h2q0 -2 -1 -2t-1 -2h-2v2zM952 -70q-2 0 -2 -2v-2v-2q0 2 2 2t2 4h-2zM84 328q2 2 2 4q-2 0 -4 -2v-2h2zM86 332q-2 0 -4 -2v-2h2q2 2 2 4zM129 471q0 2 1 2t1 2h-2l-2 -2v-2h2zM958 -66l-4 -4h4v2l3 2h-3zM961 -29q2 2 6 2v2h-2h-2v-2l-5 -2h3zM905 -55l-2 -2h-2q-2 0 -2 2 h6zM143 512l2 2v-2q0 -2 -2 -4v4zM182 362q0 2 0 -2t-2 -4q-4 0 2 6zM848 -164q-4 -4 -6 -4q4 4 6 4zM868 -63l2 -3h2v3h-4zM868 -63l2 -3h2v3h-4zM254 -180q0 2 -4 2h2zM795 -190l2 2h-2h-2v-2h2zM795 -190l2 2h-2h-2v-2h2zM897 -53q0 2 6 2zM903 -82l-4 -2q-2 0 -2 -1 t-2 -1q0 2 2 2q2 2 6 2zM258 -63v-3h2v3h-2zM258 -63v-3h2v3h-2zM119 449q0 -2 -1 -2.5t-1 -2.5h2v5zM119 449q0 -2 -1 -2.5t-1 -2.5h2v5zM881 -70v2h-2v-2h2zM881 -70v2h-2v-2h2zM111 430q0 -4 -1 -4t-1 -2q0 4 2 6zM227 655q-4 0 -1 1t1 1q0 4 1 0t-1 -2zM170 106 q-2 0 -2 3q2 -1 2 -3zM98 401l2 5v-3zM971 -23q-4 0 -4 -2h2q0 2 2 2zM973 -20q-2 0 -2 -3h2v3zM72 176q-2 2 -1 0t-1 -2zM78 96q-2 2 -2 6q0 -2 1 -3t1 -3zM393 -238h2h-2zM111 434q0 -2 -2 -4l2 2v2zM96 395q2 2 2 4v-2zM915 -45q0 2 -2 2z" />
<glyph unicode="A" horiz-adv-x="1148" d="M915 309q0 8 -10 -28l-6 -21q-6 -18 -21.5 -57t-33 -84t-32.5 -87t-24 -67l-12 -31l-4 -14l-12 -39q-6 -16 -11.5 -28.5t-9.5 -20.5h2q-12 -47 -27.5 -69.5t-31.5 -27.5t-30.5 4t-22.5 25q-4 4 -5 2t-3 3q-4 12 -5 24q-4 14 0 31q0 2 2.5 11t6.5 22l4 16l14 43l37 115 q27 74 43 118t28.5 75.5t24.5 62t31 75.5q-35 -4 -114 -12t-240 -16q-2 -4 -12.5 -18.5t-12.5 -22.5q2 2 -6 -9.5t-23 -33.5l-14 -21l-8 -14q-27 -45 -68 -114.5t-81 -138t-70.5 -123t-36.5 -68.5q-6 -10 -16.5 -28.5t-24.5 -35t-30.5 -24t-37.5 9.5q-4 4 -2 9t-2 9t-7 4 t-7 4v7l-2 4v2l-6 12q-4 16 0 31.5t14 36.5l66 122l5 7.5t5 9.5l10 20l213 355q-6 2 -17.5 -2.5t-21.5 -4.5q-2 -2 -20.5 -3t-39 -2t-38 -1t-15.5 0q-4 0 -13 -2t-13 2q-31 0 -44.5 27t-10.5 41q2 25 13 27t23 4q51 6 82 8t55.5 4l49 4t59.5 6q8 2 16.5 2t18.5 4l14 17.5 t11.5 12.5t10.5 12t13 18l10 16q4 6 11.5 12.5t9.5 14.5q12 16 19 25.5t16 17.5q27 39 55.5 75.5t60.5 71.5q55 70 109.5 137.5t116.5 133.5l260 268l18 14q6 8 14.5 12.5t12.5 8.5q4 0 8 12h6q2 6 19 14l14 6q33 10 55 2q31 -10 57.5 -37.5t18.5 -62.5q-2 -4 -2 -12t-4 -15 q0 -6 -8 -24q-12 -29 -39 -81t-52.5 -105.5t-46 -96.5t-20.5 -55q-4 -2 -3 -5t-3 -7q-31 -63 -63.5 -142.5t-61.5 -148.5q-4 -10 -6 -9t-4 -10l-9 -22l-18 -39q18 0 30.5 1t26.5 -1q12 0 21.5 -7t15.5 -18.5t9.5 -23.5t0.5 -19q8 -16 -5 -20t-21 -4q0 -2 -13.5 -3t-32 -1 t-38 -1t-29.5 -3q-4 -2 -4 0v2q-8 -16 -12 -22.5t-6 -10.5t-4.5 -9.5t-6.5 -19.5zM967 967q-33 -35 -69 -76t-70.5 -84t-68.5 -85t-61 -77l-14 -18l-16 -15l-15 -26l-116 -146q90 8 160.5 10.5t150.5 8.5q20 43 40.5 93t37.5 93q4 4 8 11.5t8 23.5q43 98 80 179t78 163 l12 24q12 25 27.5 56t30 57.5t14.5 30.5q-16 -12 -48 -44t-66 -68t-62.5 -67.5t-40.5 -43.5z" />
<glyph unicode="B" horiz-adv-x="1026" d="M18 -201q-35 10 -58 56.5t-11 113.5q6 23 10 35t7 20.5t6 16.5t8 25q6 23 21 59.5t38 83.5l12 22q4 6 5 14.5t5 18.5l13 19q37 72 83 154.5t94 167.5t97 167t92 152l17 16q4 4 3 8t3 8l12 17l25 39l67 100q14 18 20.5 25.5t9.5 10.5t8 5t18 12q2 4 4 4t2 2q18 4 42.5 -12 t39.5 -29l6 -6q2 -4 4 -14t-2 -18q-2 -16 -47 -70l-6 -10q-33 -43 -83.5 -113t-119.5 -168q-12 -20 -18.5 -29.5t-11.5 -16.5t-10 -15t-17 -25q-6 -6 -10.5 -14t-8.5 -15q-10 -23 -22.5 -40t-20.5 -37q115 35 218.5 79t203.5 97q4 2 9 4t11 4l93 51l24 10l19 19 q41 25 79.5 52.5t65.5 57.5q23 23 49.5 61t43 81t16.5 84t-29 71q-23 25 -48.5 38.5t-54.5 23.5q-14 4 -38 8q-4 0 -5.5 1t-5.5 1q-41 6 -84 5t-77 -3q-41 -6 -74 -10t-80 -21q-41 -12 -86 -36q-41 -16 -80 -39t-80 -45q-4 -4 -10 -4.5t-12 -4.5q-10 -4 -18.5 -11t-16.5 -13 l-43 -29q-45 -31 -78 -56.5t-47 -45.5q-23 -31 -39 -32t-53 21l-13 9q-8 12 -12 14t4 20q0 4 3 11.5t5 11.5q8 10 13.5 20.5t11.5 16.5q29 29 68 62.5t73 56.5q8 4 11.5 7t7.5 5q33 23 77 45.5t86 41.5t78.5 33.5t59.5 20.5q6 2 10 6l21 7q158 41 276.5 42t235.5 -45 q51 -29 76.5 -55t52.5 -67q23 -51 18.5 -112.5t-27.5 -117.5l-14 -30l-12 -21l-39 -51q-53 -63 -126 -116.5t-144 -94.5q-4 -2 -6.5 -1t-4.5 -1q-6 -4 -14 -10.5t-14 -10.5q-66 -37 -133.5 -70.5t-129.5 -62.5q4 -4 -7 -6t-9 -2q70 -16 118 -54t79 -85q4 -4 5 -9.5t5 -9.5 q4 -6 6 -15t4 -26q4 -29 0 -67.5t-14 -69.5q-31 -78 -99.5 -148.5t-138.5 -119.5q-10 -8 -9 -8t-13 -6l-15 -7q-12 -10 -25.5 -18t-25.5 -12l-28 -15q-18 -10 -39 -14q-41 -16 -79 -26.5t-77 -20.5q-23 -6 -69 -9t-99 7l-29 4l-12 10q-6 4 -13.5 2t-13.5 2zM197 -129 q70 16 136 41t130 59l14 9q8 4 8 6t9 6q53 35 97 76t66 77q10 23 23.5 50.5t17.5 58.5q-6 6 -2 10q-2 2 0 3t2 5q-6 29 -19 54.5t-35.5 45t-57.5 33t-86 19.5h-18.5t-42 -1t-57.5 -5t-65 -15q-14 -4 -15 -4t1 -1t1 -3t-13 -8v-6q-12 -4 -23.5 -17.5t-17.5 -23.5 q-33 -57 -61.5 -116.5t-55.5 -119.5l-24 -67l-11 -27q-8 -16 -11 -34.5t-7 -34.5q8 -63 78 -70h39z" />
<glyph unicode="C" horiz-adv-x="1062" d="M324 811q2 -4 8 2t8 12l-2 -2q0 2 2 4l6 7q23 41 55.5 74.5t61.5 68.5l69 78q8 8 16.5 18t16.5 17q10 6 18.5 16t18.5 14q0 2 1 2t1 2q8 6 13.5 11.5t13.5 9.5l2 4q47 35 98 65q10 10 23.5 18.5t23.5 16.5l27 15q10 8 26.5 14t26.5 12l23 8q16 4 34.5 10.5t34.5 10.5 q18 6 31.5 9t30.5 3h23.5t23.5 -4q14 -6 23.5 -8t23.5 -10q8 -2 18 -13q8 -8 13.5 -11t13.5 -7q12 -12 14 -27q14 -16 22.5 -35.5t12.5 -35.5q10 -37 3 -69t-13 -56q-2 -8 -4 -15.5t-2 -13.5q0 -4 -1 -4t-1 -2q-10 -16 -15.5 -32.5t-9.5 -33.5q-6 -16 -15 -31.5t-20 -25.5 q-29 -49 -62.5 -94t-68.5 -88q-25 -20 -39 -29.5t-39 4.5q-8 2 -4 9.5t0 7.5q-2 2 -3 2t-3 2q-2 0 -2 2l-10 18v4v22.5t10 16.5q0 6 6 6q2 4 1 6t3 9q10 6 14.5 10t8.5 8q6 4 9 13.5t9 13.5q4 2 5 3t4 3q2 2 2 4t4 6q25 37 51 73t49 79q2 0 2 3t2 3q8 23 18.5 54.5 t10.5 64.5q0 41 -20.5 54t-49.5 23q-23 0 -32 -2t-31 -6l-88 -31q-29 -16 -56.5 -34.5t-56.5 -40.5q-29 -20 -52.5 -42t-47.5 -42q-47 -47 -91.5 -96.5t-82.5 -96.5q-6 -2 -8.5 -6t-6.5 -4q0 -4 -4 -5t-4 -5q-10 -18 -20.5 -33.5t-18.5 -34.5q-29 -37 -53.5 -76t-44.5 -82 l-19 -36q-4 -8 -9 -14.5t-5 -16.5q-8 -6 -8 -12q-2 0 -8 -21q-33 -74 -59.5 -165t-30.5 -204q0 -43 12 -94t35 -71q12 -16 32.5 -26.5t42.5 -16.5q37 -2 71 6t64.5 22.5t59.5 31.5t55 34q29 23 61.5 47t61.5 49q6 4 13.5 8t11.5 12q16 10 26.5 21.5t22.5 22.5l8 12 q12 8 26.5 22.5t24.5 28.5q6 2 13.5 11t15.5 20.5t14 20.5t10 14q20 14 38 0.5t14 -35.5q4 0 3 -11.5t1 -11.5v2l2 -2q-2 -2 -2 -7v-7q0 -6 -5 -7t-5 -14l-37 -41q-6 -10 -9 -10q-37 -39 -81.5 -83t-96 -86t-106.5 -80t-113 -62q-10 -6 -23.5 -11.5t-23.5 -9.5 q-18 -4 -41.5 -8t-38.5 -4q-12 -4 -31.5 -6t-29.5 0t-19.5 4t-23.5 -2q-37 20 -73 39.5t-52 60.5q-18 27 -33.5 57.5t-21.5 75.5q8 -18 13 -36.5t8 -26.5t2 -1t-7 40q0 8 -5 12t-5 8q-4 8 -5 17.5t-4 19.5q-4 12 -4 17q-4 31 -2 63.5t6 56.5q16 100 42 184.5t59 160.5v10 q2 0 2 2q10 12 15 21.5t7 19.5q8 16 21.5 33.5t19.5 40.5q23 23 33 49q10 10 13.5 20t9.5 19q4 4 4 8t4 6q0 2 3 3t-1 5q10 6 14 14.5t10 16.5v2zM61 80q2 4 0 13t0 20q-4 -10 -3 -17.5t1 -15.5q0 2 2 4v-4z" />
<glyph unicode="D" horiz-adv-x="1134" d="M1120 639q0 -2 -1 -2t-1 -2v-2q-4 -6 -3 -11.5t-1 -11.5q-16 -18 -24.5 -41.5t-32.5 -72.5q-18 -35 -58.5 -100.5t-111.5 -151.5q-41 -51 -84 -91t-84 -75q-16 -12 -52 -40t-75 -55.5t-73 -49t-46 -25.5q-2 0 -15.5 -7t-28.5 -15.5t-28.5 -14.5t-15.5 -4l-12 -6 q-10 -8 -32 -13.5t-45.5 -10.5t-41.5 -8t-23 -5q-2 4 -12 -2q-27 0 -51.5 -2t-46.5 2q-4 4 -8 1t-7 1q-16 -2 -27 5t-20 7q0 6 -8 6q-39 16 -61.5 45t-40.5 68q2 12 -2 23.5t-2 23.5q0 4 1 2t1 0q0 10 -2 23.5t2 29.5q0 -6 -1 -14t1 -12q0 12 5 24.5t7 22.5q-2 4 -2 -2 t-2 -2q2 8 5 12t5 10q4 10 7 20.5t10 18.5q-8 2 8 47t48 119t75 167t92 189.5t99 189.5t93 165.5t77 118t50 47.5q23 12 45.5 -1.5t32.5 -29.5q4 -6 6 -18.5t6 -28.5q-2 -10 -7 -16.5t-7 -20.5q-4 0 -2 -3t-2 -3q0 4 -16.5 -19.5t-41 -61.5t-54 -83t-56.5 -87t-46.5 -74 t-23.5 -42q-8 -10 -11 -21.5t-11 -21.5q-31 -53 -55.5 -105.5t-47.5 -105.5q-18 -41 -34.5 -82t-36.5 -82q-10 -23 -15.5 -39t-15.5 -38q-10 -27 -18.5 -46.5t-18.5 -54.5q-4 -10 -7 -20.5t-5 -20.5q-23 -51 -8.5 -88t53.5 -41q12 -2 24.5 -3t30.5 -1q39 4 74 13.5t76 25.5 q23 8 48.5 20.5t47.5 24.5q86 53 165 111.5t157 136.5l45 49q35 41 66.5 88t66.5 94q23 35 45 78t43 88q16 47 35.5 109.5t21.5 122.5v45t-4 41q0 2 1 1t1 1q-18 96 -68.5 168.5t-134.5 103.5q-18 4 -32.5 9t-28.5 7q-25 8 -38 9.5t-30 1.5q-10 0 -19 1t-18 1l-96 -4 q-4 -2 -18.5 -5.5t-24.5 -7.5q-4 2 -9 0t-9 -4q-10 -4 -29.5 -8t-32.5 -10q-29 -8 -53 -23.5t-51 -21.5q-2 -2 -4 -1t-2 -3q-4 2 -7.5 -3t-7.5 -8q-10 2 -55 -28.5t-97 -71.5t-95 -80t-45 -53q0 4 0 1t-5 -3l-6 -2q-2 0 -2 -4v-2q-10 -6 -16 -8t-17 8q-10 0 -7 3t-5 3 q-4 4 -12 13t-10 14q2 4 2 10t-6 6t-5.5 11t5.5 28q4 10 12 20.5t16 18.5q8 18 14.5 24t16.5 17q8 2 10 6t6 8q8 10 18.5 20.5t22.5 14.5q6 10 12.5 13t12.5 11q16 10 26.5 18.5t28.5 18.5q2 0 4 3t4 3l13 11q18 10 32.5 20t24.5 17q35 20 68.5 39.5t54.5 25.5 q29 8 55.5 21.5t54.5 17.5q6 2 11.5 2t9.5 4q14 2 25.5 3t23.5 7q0 -2 24.5 0t30.5 4q8 -4 19 7l2 -2q37 4 75 -1.5t66 -5.5q4 -4 7 -3t8 1l90 -18q23 -10 44 -19.5t38 -23.5q4 0 6 2q0 -6 8 -6q6 -2 23.5 -15.5t36 -30t32.5 -32.5t14 -23q2 0 3 -2t6 -2l18 -30 q10 -14 16.5 -26.5t18.5 -27.5q0 -4 3 -8t3 -10q2 -2 2 -4t4 -2q0 -4 -2 -4t0 -2q8 -14 12 -43t15 -64q0 -4 -2 -2t0 0q2 -8 0 -7t4 -3q0 -14 1 -38t-1 -38q0 -23 -1 -32t-5 -40q-4 -18 -9.5 -44.5t-13.5 -54.5t-17.5 -52.5t-17.5 -38.5z" />
<glyph unicode="E" horiz-adv-x="823" d="M1030 1206q-2 -18 -2 -24t-2 -8.5t-4 -6.5t-6 -20q-8 -16 -7 -21.5t-10 -33.5q-12 -18 -26 -52q-10 -16 -14.5 -22t-7.5 -11.5t-10 -11.5t-21 -24q-4 -8 -9.5 -12.5t-11.5 -18.5l-33 -29q-8 -10 -13 -9t-13 1q-4 -2 -5 1t-10 1q-8 0 -5 0t-5 6v2q-2 0 -4 2q-4 4 -4 7 q-2 4 -4 11t-2 11q-4 0 -4 1t-2 1h-2v21q10 6 8 11t6 11q4 6 8 15.5t8 13.5q8 6 10.5 11t6.5 9q2 2 15 21.5t28.5 46.5t28 54.5t14.5 47.5q0 35 -13.5 52.5t-38.5 25.5q-4 4 -2 4q-6 0 -11 2t-9 -2q-37 -4 -57.5 -11t-44.5 -22q-59 -29 -112.5 -69.5t-98.5 -83.5t-82 -84 t-62 -70q-12 -12 -26.5 -32.5t-26.5 -44t-22.5 -48t-14.5 -43.5q0 -4 -4 -20q-4 -35 5 -57.5t26 -34.5q10 -8 11 -10.5t11 -2.5q12 -4 20.5 -6t22.5 2q4 4 5 1t6 -1q14 2 20 3t23 6q10 2 23 6t26 10l30 8h2h3q2 0 6 2q8 2 15 4t11 2q4 -4 16.5 0t16.5 6q27 8 46.5 -3 t12.5 -29q-2 -10 -4 -34t-8 -32q-10 -2 -15 -8t-11 -6q-4 0 -11.5 -2t-11.5 -2q-16 -2 -21.5 -3t-19.5 -6q-4 0 -8 1.5t-8 -3.5q-8 0 -9 -6h-10h-4l-4 -2v2q-4 0 -2 0t0 -2q-10 -2 -17.5 -5t-23.5 -5q-8 0 -18.5 -5t-20.5 -11q-16 -4 -25.5 -8.5t-25.5 -12.5 q-25 -12 -39 -20.5t-29.5 -16.5t-35 -20t-54.5 -37q-55 -39 -100 -88q-18 -23 -36.5 -43.5t-37.5 -54.5q-12 -12 -16 -21q-16 -29 -28.5 -61.5t-16.5 -69.5q-4 -29 -5 -48.5t-1 -41.5q4 -4 2 -11.5t2 -13.5q6 -14 10 -34l12 -25q2 -8 10.5 -14.5t12.5 -10.5q10 -18 30 -22 l33 -17l25 -6l6 -2h1t5 -1t19 -1q33 -2 49 -1t51 5q23 4 30 4t19 4q16 6 20.5 8.5t10.5 3.5t19 6t46 21l51 31q10 6 19.5 13.5t23.5 15.5q6 2 10.5 6t10.5 8l92 68q27 20 47.5 12t31.5 -24.5t12 -34t-9 -17.5q0 -2 1 -1t1 -1q-23 -23 -56.5 -49.5t-72.5 -52t-80 -49 t-76 -35.5q-8 -10 -42.5 -20.5t-73.5 -18.5t-72 -13.5t-37 -0.5q-10 -4 -35.5 -1t-54.5 10t-55.5 15t-38.5 17q0 4 -5 2t-7 2q0 2 -4.5 3t-8.5 5q-6 2 -5 9t-7 5q-4 6 -8 5t-4 7l-4 2q-4 0 -7 7q-39 39 -59 88t-20 114q0 10 1 19.5t1 13.5q0 23 3 44.5t7 35.5l8 25l29 71 q10 16 21 35t22 33q2 8 21.5 32.5t44 52.5t49 52.5t36.5 34.5q4 4 13.5 10t11.5 10l43 35q2 4 2 3t2 1q6 4 11 4t1 4q23 10 56.5 30t50.5 26q-35 4 -57.5 22.5t-51.5 59.5q-14 18 -14 28q-2 4 -1 7.5t-1 5.5h-2q-2 0 -2 6q0 2 1 6t1 8t-1 7t1 7v11.5t4 17.5l6 19q0 12 4 21 t8 22q8 12 13.5 29.5t15.5 29.5q4 4 7 8t5 15q0 6 6 6v8q57 86 121 153.5t127.5 119.5t122.5 91t109 66l6 3t8 3l20 8q2 2 8.5 3t10.5 3q37 10 55.5 13.5t44.5 -0.5q8 0 -1 2t1 2q23 -4 48.5 -8.5t41.5 -16.5l21 -10q8 -2 13 -10t9 -13q4 -8 6.5 -8t6.5 -6q4 -10 8 -17 t6 -14q6 -18 6 -35.5t2 -46.5v-8z" />
<glyph unicode="F" horiz-adv-x="790" d="M57 -201q-2 -4 -3 -2t-1 -2q-2 0 -1 4t-1 6l-2 -8q-10 2 -20 0q-4 0 -2 3t-2 5q-2 0 -1 -2t-1 -2t-3 4q-2 -2 -2 -8q-4 4 -2 7t2 8q-4 -2 -3 3t-3 1q-2 8 -2 2t-4 -2q-2 0 -2 -11q-6 10 -6 11q-2 10 -7 10t-5 16q0 4 -1 4t-1 2q-2 0 -2 2q-2 35 3 61t15 50 q6 33 17.5 62.5t19.5 58.5q6 14 11 29.5t15 31.5q0 2 1.5 3t1.5 4q14 33 20 47t10 24t10.5 25.5t22.5 50.5q6 16 16.5 31.5t16.5 31.5l47 93q8 20 15 34.5t13.5 26.5t13.5 25.5t17 35.5q-2 2 20.5 41t52.5 88.5t57.5 93.5t35.5 60q12 18 25.5 40t29.5 44q6 8 8.5 15.5 t12.5 13.5q2 2 5 6t3 6q6 4 8 10t4 13h2v6q2 2 4.5 3t4.5 5q4 4 9 12t9 15l6 10q4 4 8.5 10t14.5 12q12 12 26 19l2 2q-8 0 -12 -4q-16 0 -27.5 -6.5t-25.5 -10.5q-10 -4 -13 -6t-6.5 -2t-8.5 -1t-17 -5q-18 -4 -29.5 -6t-27.5 2l-7 4q-6 4 -14 8t-14 8t-4 2 q-8 10 -14.5 13.5t-2.5 17.5q0 14 4 20.5t6 16.5l39 20q14 4 27.5 9.5t28.5 7.5q4 2 2 2t2 2q6 2 4 1t8 1q23 10 23 12h7t21 4q10 8 21.5 9.5t27.5 5.5q23 12 46.5 19t52.5 11q29 8 36 10.5t21 6.5t20.5 4h10.5l37 8q23 4 38 9t31 3l8 2l-2 -2l-3 -3t5 3l33 9q10 2 19.5 1 t17.5 3q18 -4 20.5 -1t18.5 7h23h17h7h5t16 2q63 8 123.5 10t119.5 -18l29 -39q4 -10 1 -16.5t3 -8.5q2 -16 -6 -23.5t-21.5 -9.5t-30 -2t-32.5 -2q-37 4 -65.5 3t-57.5 -3q-57 -6 -90 -9t-52.5 -5t-33.5 -4t-31.5 -4t-45.5 -8.5t-77 -14.5q-25 -4 -24 -4h6h8t-18 -2 q-8 -6 -20.5 -7t-20.5 -7q-4 2 -7.5 -2t-9.5 -2v-2q-6 0 -6 -7q-2 0 -2 5v2q-2 -2 -2 -4h-2q0 -4 3 -6.5t3 -8.5q6 -6 6 2v4q4 -8 2 -16t2 -12q-4 -4 -10 -12.5t-2 -14.5q-4 -8 -3 -6t-5 -4q-8 -6 -7 -4t-1 -8q-4 -2 -6 -6.5t-2 -6.5q-4 -10 -12.5 -20t-16.5 -21q0 -4 -5 -9 t-7 -13q-18 -25 -42 -58.5t-48.5 -70.5t-47 -74t-36.5 -66q-10 -16 -25.5 -35.5t-20.5 -33.5q-10 -10 -16 -26.5t-18 -31.5q-10 -18 -15.5 -26t-8.5 -14.5t-7 -15.5t-16 -27q23 6 50 10t50 10l37 6l25 5t9.5 1t13.5 1t38 5q14 2 18 3.5t5 1.5t5.5 1t20.5 3q14 4 12 4t10 0 q16 -4 39 -1t35 -7q6 0 3 -1.5t3 -1.5q4 -2 6.5 -1t6.5 1q2 -4 1 -6t1 -4q4 0 8 -2t12 -2v-10l8 -4t9 -6q-2 -8 0 -18.5t0 -14.5q0 -4 -2.5 -6t-2.5 -6q-4 0 -2 3t-2 3q2 -4 -1 -5t-5 -5q-23 -8 -45 -9.5t-51 -1.5q-16 0 -19.5 -2t-23.5 -4q-10 -2 -11 -2h-1h-2q-2 0 -11 -2 h-4q0 -2 -10 -2q-10 2 -27.5 -1t-38 -8t-40 -10.5t-33.5 -7.5q-23 -2 -56 -12q-4 2 -2 3t0 1q-16 -10 -18 -7t-16 -5q-8 -4 -15.5 -4h-15.5q-2 -2 -9.5 -7.5t-11.5 -0.5l-5 -9q-5 -8 -10 -17t-9 -16.5t-6 -7.5q-29 -66 -53.5 -119t-48 -105t-45 -109.5t-42.5 -133.5 q-2 -6 -4 -8l-4 -4q2 -16 -5 -16t-9 -17q-6 4 -6 -2t-7 -2v-2h-4zM739 1128q-6 2 -4 2t4 3v-5zM721 1130q4 0 6 3q-2 0 -3 -1.5t-3 -1.5z" />
<glyph unicode="G" horiz-adv-x="1095" d="M995 -37q8 2 14.5 -4t8.5 -15.5t1 -17.5t-5 -10q-2 -4 -8.5 -11t-6.5 -11q-6 -10 -16 -13.5t-18 -13.5q-6 4 -8.5 -3t-4.5 -5q-4 -6 -9 -5t-9 -6q-6 -4 -4 -4t-6 -2l-13 -8l-8 -4h-4q-2 0 -4 -2t-6 -4q-27 -12 -47.5 -22.5t-39 -19.5t-38 -18.5t-43.5 -21.5 q-6 -16 -17.5 -32.5t-15.5 -31.5q-4 -16 -10 -27t-14 -26q-16 -33 -35 -70.5t-41 -68.5q-16 -37 -38 -64.5t-44 -60.5q-6 -2 -8 -9t-9 -16q-4 -4 -9 -8t-9 -12q-4 -6 -10 -11t-8 -12l-47 -41q-6 -4 -10.5 -8t-8.5 -8q-14 -12 -25.5 -19.5t-23.5 -17.5q-16 -8 -37.5 -17 t-44.5 -7q-8 0 -16.5 1t-18.5 3h-8q-4 4 -14.5 6t-14.5 6q-8 4 -12 10t-10 11l-2 2q0 4 2 6q2 0 -3 8t-3 8q-4 47 2 96.5t24 83.5q4 8 13 17l10 16q51 78 117.5 143.5t138.5 116.5q6 8 11 7t15 10q4 8 9 10h6q10 4 15 9t15 9q10 10 24.5 18.5t25.5 14.5q6 6 19 10t17 8 q0 12 8.5 24.5t12.5 27.5q6 6 6 14q0 2 4 18q4 10 7 20.5t14 22.5q2 12 6 23.5t6 19.5q10 20 19.5 41t13.5 41q2 10 2 19.5t8 15.5q2 10 6 16.5t8 14.5q-4 0 -8 -4l-8 -8q-10 -10 -23.5 -20.5t-23.5 -20.5q-16 -10 -28.5 -19.5t-26.5 -21.5q-74 -59 -150 -112.5t-174 -90.5 q-45 -16 -92 -21q-72 -6 -129.5 24t-75.5 89q-6 12 -6 31q-6 25 -8 58.5t2 62.5q2 41 11 71.5t19 61.5q29 109 76 208t90 179q-4 4 -8 6t-8 6q-10 4 -17.5 9t-19.5 16q-31 23 -54.5 51.5t-39.5 69.5q-2 4 -1 13t-3 15q-4 51 -1 91t17 67q2 4 2 8t4 8q0 6 6 13l15 30 q16 27 33.5 49.5t58.5 57.5l39 39l16 6q10 4 13.5 3t11.5 3q16 -6 33 -23q0 -4 1 -8t1 -10q2 -2 6 -2t6 -2q-6 -10 -7 -17.5t-1 -19.5q-2 -12 -9.5 -17t-9.5 -16q-37 -27 -72.5 -72.5t-48.5 -103.5q-8 -16 -11 -34.5t7 -32.5q4 -10 9.5 -18.5t9.5 -16.5q16 -20 38.5 -40 t51.5 -30q72 98 145.5 185.5t155.5 170.5q20 14 35.5 30t32.5 32q16 12 31.5 24.5t31.5 28.5q20 14 36.5 25.5t33.5 27.5q16 10 33.5 23.5t37.5 28.5q8 2 17.5 4t13.5 8q8 4 18.5 10t22.5 12q16 8 33 21q16 4 29.5 9t23.5 9q6 4 14.5 5t14.5 4q35 12 69.5 22t69.5 14 q20 2 46 0t46 -6q4 -2 7 -1t5 -3q12 0 21.5 -5t23.5 -11q16 -16 24.5 -23.5t12.5 -23.5q8 -10 12.5 -23.5t2.5 -34.5q-4 -53 -27 -104q-8 -8 -8 -10q-4 -8 -6 -13.5t-11 -9.5q-29 -45 -62.5 -84t-68.5 -74l-43 -45q-12 -12 -24 -20t-21 -19q-10 -6 -22 -14t-23 -16 q-10 -8 -18 -13.5t-19 -21.5q-4 2 -5 -2t-5 0q-2 -4 -1 -6t-3 2q-2 0 -1 -2t-1 -2q-53 -39 -113.5 -76t-119.5 -70q-41 -23 -84 -41t-91 -30q-41 -12 -78.5 -20.5t-74.5 -10.5q-33 -4 -54.5 -2t-56.5 6q-27 -41 -49 -83t-45 -87q-4 -8 -9 -18.5t-15 -20.5 q-10 -33 -22.5 -64.5t-27.5 -70.5q-4 -8 -5 -16.5t-3 -16.5q0 -4 -3 -6t-3 -6v-12q-4 -8 -5 -11.5t-3 -11.5l-8 -39q-6 -41 -1 -90t29 -68q6 -4 21.5 -9t25.5 -5q16 -2 34 2l36 8q37 8 66.5 25.5t62.5 38.5q16 8 30.5 17t24.5 16q72 47 138.5 96t119.5 104q0 4 2.5 2t2.5 2 q8 2 12 9.5t10 11.5l23 20q23 23 42 44.5t42 43.5q8 2 9 10.5t9 10.5q4 2 9 9t7 11q6 4 12.5 11.5t8.5 7.5q8 4 12 4q4 2 5 3t5 1q16 2 26.5 -6t18.5 -17l7 -4q14 -16 7 -37.5t-18 -37.5q-6 -10 -10 -17.5t-10 -11.5l-4 -14q-4 -4 -6 -11q-6 -16 -15.5 -29.5t-13.5 -23.5 q-2 -4 -3 -10t-7 -12q-4 -12 -9.5 -21.5t-11.5 -26.5q-8 -10 -12 -30l-31 -72q-8 -10 -17 -33.5t-18.5 -50.5t-18.5 -54.5t-17 -47.5q2 0 12 4t22.5 8t21.5 8t11 8q10 4 15.5 5.5t11.5 5.5q8 2 15 6t15 8q14 8 13.5 7t-6 -4t-6.5 -4t16 9h2l63 35q0 -2 4 -2q4 -2 1 -5t-3 -5 q2 2 7.5 5t7.5 7zM647 717q53 23 106.5 51.5t98.5 62.5q16 8 32.5 19.5t30.5 21.5q16 12 31 21.5t31 28.5q27 16 46 31.5t42 33.5l29 25q23 18 45 45.5t45 52.5q10 10 20 20.5t17 24.5q16 23 25 43.5t5 46.5q-18 16 -57 17.5t-68 -7.5q-51 -8 -92 -24.5t-78 -44.5 q-20 -6 -37.5 -16.5t-35.5 -20.5l-54 -37q-90 -66 -168.5 -142.5t-154.5 -162.5q-31 -33 -58.5 -67.5t-54.5 -69.5q66 0 132.5 12t121.5 35zM518 -362q-27 -23 -56.5 -48.5t-55.5 -56.5q-25 -31 -49.5 -57.5t-47.5 -59.5l-30 -47q0 -2 -1.5 -3t-1.5 -3q-8 -20 -10 -33 l-10 -37q2 0 2 5.5t4 5.5q0 -4 -2 -7.5t2 -5.5q4 0 8 -4q37 8 68 35q8 8 19.5 17.5t24.5 23.5t30.5 34.5t36.5 53.5q2 6 6 10q0 4 3 8.5t5 8.5q31 43 55.5 89t40.5 91q2 4 0 4q-10 -6 -20.5 -10t-20.5 -14zM952 -49q-6 -6 0 -6v6z" />
<glyph unicode="H" horiz-adv-x="1150" d="M623 1376q23 -4 45 -6t41 -8q10 -4 18 -6t16 -8q4 -4 7.5 -4.5t7.5 -4.5l18 -14q10 -8 18.5 -26.5t12.5 -32.5q0 -6 1 -10.5t1 -8.5v-10q0 -2 1 -5t1 -9q0 -45 -14 -78q4 -4 0 -8t-4 -9q-2 -4 -6.5 -10t-0.5 -12l-38 -88q-8 -18 -20.5 -39t-25.5 -43q-2 -10 -7 -18.5 t-9 -16.5q-23 -39 -41 -74.5t-41 -74.5q-18 -29 -32.5 -54.5t-29 -54.5t-31.5 -62.5t-40 -78.5q-4 -8 -7 -18.5t-7 -16.5q2 0 7 2t5 0q16 -2 22.5 1t18.5 5q49 10 91 16.5t82 11.5t83 10t98 11q16 27 31.5 53.5t30.5 55.5l12 20q4 4 8 19q23 35 43.5 72.5t42.5 72.5 q0 8 3 12.5l7 10.5q10 14 19.5 28.5t19.5 30.5q2 6 4 13.5t7 11.5l8 10q4 12 11 21.5t11 19.5q6 14 12.5 28.5t16.5 24.5l16 27q8 6 10.5 11l6.5 13q4 6 6 11.5t6 11.5q4 10 9 16t9 12q6 6 7 17q4 4 5 6t5 8l29 41q16 16 26 24.5t16.5 9.5t10.5 -1l8 -4q18 -14 23.5 -17.5 t9.5 -13.5l6 -12q4 -8 4 -10v-13q-4 -4 -2 -3t-2 -1h6q-8 -31 -21.5 -50t-29.5 -46v-2q0 -4 -4 -4q-4 -6 -10.5 -13.5t-10.5 -17.5q-10 -10 -14 -22.5t-14 -20.5q-2 -6 -4.5 -8t-4.5 -4l-32 -53q-57 -90 -109.5 -183.5t-105.5 -191.5q-2 -2 -2 -4v-4q6 0 22 3t21 3h4 q10 2 6 -1t6 1h4q10 2 14 -6.5t13 -10.5l12 -6q0 -2 -3 -1t-3 -1q2 -4 11 -10t5 -6q0 -2 1 -3t1 -5l4 -2q2 -20 -10 -29.5t-20 -9.5h-2q-2 0 -4.5 2t-4.5 0q0 -2 3 -2t1 -2q-8 -4 -16 -3t-18 -4q-29 -6 -54.5 -9t-56.5 -9q-6 -10 -11 -14t-9.5 -11.5t-10.5 -18.5t-18 -34 q-4 -6 -6 -11t-6 -11l-5 -19l-6 -8v-10l-12 -15q-2 -8 -5 -15t-7 -15q-2 -2 -2 -11l-11 -14l-14 -31l-6 -12q-14 -33 -27 -57l-8 -19l-4 -16q-23 -55 -46.5 -114.5t-43.5 -114.5l-6 -19q-4 -4 -2 -4t-2 -4l-8 -25q-2 -23 -11.5 -41t-17.5 -28q-4 -4 -6 -4q-2 -4 -5 -6.5 t-3 -6.5q-14 -4 -25.5 2.5t-21 13.5t-15.5 14l-6 7q0 6 -3 10.5t-3 8.5v14q0 6 2 10t4 10l6 17v6q2 2 0 3t0 3l6 19l6 26q2 10 11 23l53 147q27 70 44 110t33.5 72.5t35 69.5t47.5 98q6 6 6 9q-33 -4 -57.5 -7.5t-46 -6.5t-44 -7t-53.5 -10q-10 -4 -22.5 -4t-22.5 -2 q-18 -2 -36.5 -6.5t-35.5 -8.5l-22 -4l-23 -6q-16 -2 -29.5 -6t-27.5 -8q-31 -55 -52.5 -97t-49.5 -100q-14 -23 -19.5 -36t-11.5 -33l-21 -39q-4 -10 -6 -18.5t-10 -16.5q-20 -51 -44 -100.5t-46 -100.5l-8 -18q-8 -12 -13 -15v-6q-8 -8 -13 -19t-19 -16q-2 10 -4.5 8.5 t-6.5 -3.5q0 4 -4 4q-2 0 -2 -2q-2 0 -4 2q-2 0 -2 2q-6 0 -8 2q2 2 1 4t1 4q-4 0 -5 -3t-5 -1q0 2 1 2t1 4l-6 4q4 10 -9.5 11t-9.5 12q-4 0 -4 -2.5t-2 -2.5q0 4 1 7.5t-1 7.5q0 4 -1 9t-1 9q0 2 1 5t1 8q2 6 1 10t1 8v8t4 8q4 12 8 17q4 8 6.5 17t6.5 16q23 49 43 90 t47 100q16 37 30.5 66.5t28.5 56t28.5 54.5t28.5 65q-18 -4 -26 -7.5t-16.5 -5.5t-19.5 -5t-34 -9q-10 -4 -18 -6t-19 -6q2 2 2 5t-4 1q-10 -4 -20 -9t-21 -8q-10 -2 -13 -5t-13 -3q-10 -2 -15.5 -1t-11.5 -3q-4 2 -8 2t-14 6q-2 2 -4.5 -2t-6.5 0l-4 4q-4 4 -7 4.5t-3 6.5 q2 4 -6 17t-8 17q0 12 2 17q2 6 8 5t6 9q10 10 22.5 12.5t20.5 10.5q4 4 8 4t8 2l19 8q4 2 14 2q6 6 19 6q20 4 33.5 7.5t23.5 5.5t22.5 5t32.5 9q25 6 36 9t20.5 6t22.5 5t38 9q45 78 83 157.5t85 169.5q4 2 5 6t5 9q0 8 5 12l10 8q4 10 8 22.5t12 22.5l23 39q0 6 2 8l6 6 q2 12 11 20.5t11 20.5v6q6 4 10.5 12.5t10.5 18.5q2 4 4 6t4 6l6 19q6 10 12 22.5t15 22.5l8 16l4 15l14 32l15 46v22q0 33 -22.5 53.5t-53.5 16.5q-6 0 -12.5 -3t-12.5 1q0 -2 -2 -4t-4 -3q-49 -6 -85 -25.5t-75 -41.5q-41 -25 -74.5 -53.5t-68.5 -55.5 q-68 -55 -117 -117.5t-96 -136.5q-8 -8 -11 -12t-7 -5t-11.5 0t-23.5 1q-2 2 -8.5 10t-8.5 6q-10 -2 -6 13l-4 -4v8q-8 -12 -9 -12.5t-1 4.5q0 6 4 14q-12 8 -11 18.5t7 21.5t13 20.5t7 17.5q-2 0 4.5 3t2.5 5q4 12 6 8t6 10q-2 0 8 8.5t6 8.5q8 16 15.5 24.5t17.5 22.5 q10 16 22.5 28.5t26.5 24.5l45 51q10 12 18.5 18.5t16.5 14.5l16 14q10 10 23.5 21.5t28.5 21.5q4 4 6 5.5t6 5.5l22 16q16 10 35 23.5t39 23.5q18 16 36.5 24.5t37.5 18.5q16 4 31 10l10 4l16 5q14 6 26.5 10t28.5 8q18 4 38 6t42 4h11zM100 287q-8 -4 -2 0h2z" />
<glyph unicode="I" horiz-adv-x="837" d="M889 1366q33 -6 61.5 -12t50.5 -21q4 -2 4.5 -3t4.5 -3q2 0 6 -4l14 -16q10 -8 12 -16.5t11 -24.5q4 -8 4 -29q0 -4 -1 -10t1 -13v-14q0 -14 -4 -35l-11 -30q-2 -2 -1 -4.5t-1 -4.5q-2 -8 -4 -12t-4 -10v-8q-14 -25 -23.5 -52.5t-19.5 -52.5q-18 -20 -24 -45 q-8 -14 -11.5 -25.5t-11.5 -23.5q-16 -23 -27.5 -48.5t-25.5 -47.5q-12 -25 -24.5 -48.5t-26.5 -45.5q-29 -47 -54.5 -95.5t-50.5 -97.5l-28 -47q-29 -53 -47.5 -90t-36.5 -76q-6 -10 -6.5 -12t-0.5 -4t-2 -7.5t-10 -21.5q-6 -10 -12 -20.5t-10 -22.5q-4 -10 -9.5 -21.5 t-13.5 -19.5q-25 -47 -60.5 -107.5t-76.5 -119.5q-39 -51 -78 -99.5t-86 -89.5q-10 2 -13 -3t-7 -9q-12 -10 -23.5 -17.5t-26.5 -13.5l-26 -20l-35 -17q-2 0 -2 1t-2 1q-29 -12 -55.5 -22t-59.5 -12h-10q-14 0 -28.5 2t-24.5 6q-8 0 -21 4q-4 0 -5 2t-5 4l-33 23 q-16 12 -33 36q-16 23 -25 49.5t-11 61.5v30.5t2 31.5q4 35 12 63.5t18 54.5l19 31q8 10 20.5 15t22.5 10q6 2 10 3t8 1h10q6 0 10.5 2t8.5 2q10 0 18 -5t11 -12q2 -6 2 -20l-7 -10q-12 -23 -18 -47.5t-10 -53.5q-4 -31 -7 -65.5t5 -57.5q4 -12 11 -24t19 -21v2h2 q16 -6 37 -5t39 5t33.5 14.5t30.5 16.5l26 19q33 27 67 54.5t58 61.5q10 12 18.5 24.5t18.5 24.5q18 23 34.5 48.5t31.5 50.5l10 14q2 4 5 7t3 5q6 14 10 21.5t8.5 14.5t8.5 14.5t12 21.5l51 109l25 51q8 10 20.5 35.5t32.5 62.5q0 10 2 10q45 72 84 150t80 153l35 56 q6 8 10 17t8 20q6 8 17.5 29.5t22.5 44t20.5 41t11.5 22.5q4 4 4 6t4 6l16 37q6 10 9.5 18.5t7.5 16.5q4 10 6 12l20 55q6 14 11.5 32t5.5 36q0 31 -23 49q-8 8 -23.5 14.5t-31.5 2.5q-14 -4 -18 0l-31 -15q-41 -8 -69.5 -22.5t-59.5 -30.5q-16 -8 -25.5 -13t-15.5 -10.5 t-13.5 -11.5t-19.5 -16q-4 -4 -9 -6t-7 -7q0 -2 -6 -4l-17 -16l-18 -14q-18 -20 -27.5 -29.5t-16.5 -18t-16.5 -19.5t-27.5 -34q-10 -12 -21.5 -25.5t-21.5 -27.5q-6 -12 -15 -20l-10 -11q-6 -8 -11 -15t-9 -15q-6 -8 -12.5 -20.5t-10.5 -22.5q-16 -33 -25.5 -65t-7.5 -79 q0 -2 2 -11t2 -11q2 -10 3.5 -15.5t3.5 -8.5t4 -7l6 -12q2 -6 9 -11.5t11 -12.5t1 -20.5t-21 -35.5q-16 -23 -34.5 -22t-35.5 14q-2 2 -2 4t-4 4q0 -2 -6 4q-2 0 -6 4l-6 10q-4 4 -6.5 8.5t-6.5 8.5l-6 12q-10 20 -13 46t-7 54q4 0 3 -2t3 -4q-6 33 0 60.5t12 54.5 q8 27 18.5 50.5t20.5 45.5l21 35q6 12 11 22.5t15 22.5q4 8 11.5 16.5t11.5 18.5q4 2 4 6q2 2 4 2t2 4q4 4 4 8q2 4 3 4t3 2q4 4 4 9q12 8 19.5 16t17.5 18l19 23l12 18q6 4 12 11.5t12 11.5l5 6l20 18l12 11l17 12l4 4q-2 0 6 4l6 6q2 4 8 7.5t10 7.5l60 43q39 27 80 49 l47 18q4 2 4 3t4 1l39 15q23 8 51.5 9t54.5 5h17zM408 1106q0 -2 -2 -2q-2 -2 -3.5 -2t-3.5 -2zM-53 -199q0 2 -1 2t-1 2q2 -2 2 -4z" />
<glyph unicode="J" horiz-adv-x="860" d="M348 156l8 16q10 23 20.5 43.5t22.5 40.5h2l52 100q10 10 21 36t32 63q0 2 1 6t3 4q43 72 83 149.5t81 153.5l33 55q10 6 12 16.5t6 20.5q6 8 18.5 29.5t23.5 44t19.5 41t10.5 22.5q4 4 5 6.5t5 6.5q4 8 7 17t7 20q10 16 19 34q2 4 2 7.5t2 5.5l20 53q8 16 13.5 33.5 t5.5 36.5q0 16 -2 30.5t-13 18.5q-14 4 -15 6t-17 8q-6 2 -10.5 -1t-8.5 1q-6 -4 -15 -4t-16 -4q-35 -10 -64.5 -24.5t-59.5 -30.5q-31 -16 -44.5 -24.5t-37.5 -29.5l-17 -12q0 -2 -4 -6l-16 -15l-17 -16l-28.5 -28.5t-18.5 -17.5t-17 -18.5t-28 -33.5q-6 -6 -21.5 -26.5 t-31.5 -44t-30.5 -45t-18.5 -28.5q-4 -6 -4 -11t-4 -9l-11 -10q-6 -10 -8 -16.5t-8 -14.5q-4 -8 -10 -20.5t-11 -22.5q-8 -16 -12 -26.5t-7 -22.5t-6 -30.5t-9 -51.5v-53q0 -35 16 -65t37.5 -52.5t41 -35.5t25.5 -15q6 -4 15.5 -7t15.5 -11.5t5 -22t-15 -37.5 q-12 -23 -18.5 -24t-28.5 3q-2 0 -10 5q0 2 -3.5 -0.5t-5.5 0.5q-2 0 -6 4q-2 2 -9 5t-11 3q-12 4 -37 24.5t-49.5 46t-44 53t-25.5 46.5q0 10 -4 14q-10 23 -9 47.5t-3 55.5q4 0 3 -3.5t1 -5.5q-4 35 5 66t13 57q10 27 19.5 50.5t19.5 45.5l17 35q4 12 8 22.5t14 22.5 q-6 -10 7.5 11.5t31.5 49t33.5 49t13.5 11.5q2 2 2 6q0 2 2 2t2 4q4 2 4 7q2 4 4.5 5t4.5 3t2 8q12 8 17 16.5t15 18.5l11 8l2 4q6 8 8 11t4 5.5t5 4.5t11 10q4 6 9.5 13t11.5 11l24 25l13 10l16 13l4 4l4 4l6 6q4 4 10.5 9t10.5 9l53 39q18 16 44 27.5t48 19.5l45 21 q8 4 13 4l39 12q23 8 50 9t54 5q31 -6 53.5 -11t44.5 -19q4 -2 4 -3t2 -3q4 0 9 -4l12 -17q12 -8 15 -16t7 -25q4 -8 5 -28q0 -4 -1 -10.5t1 -12.5v-14q0 -14 -5 -35l-6 -31q-2 -2 -1 -4t-1 -6q-4 -6 -6 -10t-4 -11q0 -4 -1 -5t-1 -5q-12 -23 -21.5 -49.5t-21.5 -52.5 q-10 -10 -14 -22.5t-9 -22.5q-6 -14 -10 -25.5t-14 -23.5q-14 -23 -26.5 -48.5t-24.5 -48.5l-52 -94q-29 -47 -53 -95t-49 -97q-10 -14 -15 -24.5t-12 -25.5q-29 -53 -50 -89t-40 -74l-28 -58h2l-35 -67l-12 -25q-2 -2 -2 -6q43 2 86 10t88 -2l10 -8q2 -4 6 -5t4 -5 q2 -2 1 -4t1 -2h-2q-4 -4 1 -4.5t5 -4.5l-12 -4q12 -4 14 -8h-4q0 -4 3 -6t1 -10q-4 4 -10 1t-10 -1q0 -4 3 -3t5 -3q0 -2 -2 -1t-2 -2q0 -2 4 -10q-16 0 -18 -12h-19l2 -2l-2 -2q-41 0 -78 -7t-77 -14q-10 -2 -24.5 -3t-23.5 -5q-10 -4 -17 -16t-11 -23 q-61 -117 -130 -225.5t-147 -206.5q-29 -35 -59.5 -67.5t-67.5 -61.5q-6 2 -9 -4t-11 -10l-12 -8l-13 -11q-16 -8 -27.5 -15t-23.5 -13q-20 -8 -33 -19q-2 2 -6 2q-6 -2 -10 -4t-10 -4q-16 -6 -31.5 -12t-32.5 -10q-53 -6 -104 10q-8 8 -17.5 12t-15.5 12q-6 6 -14 11 q-12 10 -21.5 29.5t-15.5 37.5q-4 10 -4 22.5t-2 22.5q-2 14 0 26.5t-2 24.5v13q6 14 9 33.5t7 37.5l4 19q0 4 3 7t5 7q8 23 17.5 45.5t21.5 40.5q23 41 48.5 78t60.5 66l45 39q10 10 24 16q10 10 23 16q6 4 13 8.5t16 8.5q16 10 35.5 22t39.5 21q82 39 178 67 q47 16 95.5 26.5t101.5 20.5zM-299 -510q6 -8 10 -18.5t15 -14.5q10 -8 29.5 -9t37.5 3q16 2 28.5 6t22.5 11l47 24q10 6 21.5 15.5t19.5 17.5q39 31 76 67l64 80q35 39 61.5 82t54.5 88q23 41 46.5 81t41.5 81q12 16 15 25l-15 -4q-55 -10 -94 -27q-53 -16 -104 -35 q-123 -49 -215 -134t-142 -218q-10 -27 -16 -57.5t0 -65.5q0 2 -4 2zM539 266l4 6z" />
<glyph unicode="K" horiz-adv-x="907" d="M582 1268q18 -6 32.5 -17.5t18.5 -31.5q2 -10 2 -17.5v-17.5v-19q-2 -6 -7 -15t-10 -13l-53 -97l-57 -88q-6 -16 -16 -34q-2 -4 -5.5 -8.5t-5.5 -8.5l-24 -43l-19 -31l-14 -30q-12 -29 -27.5 -50.5t-27.5 -46.5q-12 -35 -31 -64.5t-33 -60.5q-12 -20 -22.5 -38.5 t-20.5 -40.5v-7q4 4 10.5 2t14.5 3q12 2 26 10l80 39q53 29 106.5 49t102.5 49q10 8 22.5 13t26.5 16q10 4 19.5 10t15.5 12q4 6 6 5t6 3q2 0 3 2.5t6 4.5l12 6q4 2 10 6t14 8l13 6q12 6 23.5 18.5t23.5 16.5q2 2 5 2t7 4l16 10q20 16 42 33t47 33l14 12l4 4q8 4 9 5l1 1 l1 1t7 6q4 4 7.5 8t7.5 6q4 4 8 4q10 6 17.5 14.5t17.5 12.5q14 4 16 12l2 2q4 4 12 8l15 15q4 2 7 5l7 7q14 10 27.5 20.5t29.5 22.5l33 28q10 6 17.5 12.5t15.5 14.5q10 6 16.5 13.5t16.5 13.5l12 8q6 4 9 9t7 9q14 12 25.5 23.5t26.5 21.5q16 16 34 27q27 14 33 11 t25 -25l8 -11v-6q0 -4 3 -9t1 -9q0 -8 -2 -14q0 -4 -4 -13q-2 -16 -5 -21t-13 -9q0 -4 -3.5 -6.5t-7.5 -6.5q-4 -2 -6 -6t-12 -8l-12 -14q-6 -8 -12.5 -14.5t-16.5 -10.5q-10 -16 -21.5 -27.5t-23.5 -21.5q-14 -10 -28.5 -18.5t-24.5 -20.5q-12 -12 -26.5 -22.5t-27.5 -20.5 l-22 -19l-37 -22q-4 -4 -11 -10t-12 -11l-14 -12l-24 -16q-14 -16 -34 -28.5t-40 -29.5q-4 -4 -11.5 -8t-13.5 -10l-2 -2l2 2l-4 -4q-49 -31 -97 -61.5t-99 -61.5q-47 -29 -93.5 -53.5t-93.5 -48.5q-16 -12 -34.5 -20.5t-34.5 -16.5q-31 -16 -60 -28.5t-61 -22.5l6 4 q-6 0 -11.5 -2t-13.5 -6l-20 -9q0 -4 1 -10t1 -10q-2 0 -2 9t-8 9l8 -20q-4 -2 -4 -8q4 -4 6 -8.5t2 -10.5q0 -2 -1 -3t-1 -3q0 -4 3 -6t3 -6q0 -16 5 -27.5t11 -26.5q6 -8 8.5 -17t6.5 -17l18 -37l21 -35l22 -35q14 -27 34.5 -49.5t41.5 -42.5q20 -23 40.5 -43t43.5 -41 q4 -2 12 -14q12 -2 17 -11q16 -10 33.5 -20t35.5 -18l39 -15q14 -2 25.5 -2t23.5 -4q2 -2 -1 -2t-1 -2q18 0 34.5 -2t31.5 -10q0 -6 4 -12.5t0 -10.5q2 -4 2 -8q-2 -8 -6 -14.5t-6 -12.5q-2 -4 -5.5 -4t-3.5 -4v-8l-10 -6q-2 -2 -2 -4t-4 -2q-2 -2 -14 -2q-4 -2 -5 -3t-6 -1 q-18 -8 -32 0h-17.5t-15.5 2q-33 4 -55.5 15t-49.5 21q-14 4 -26 9.5t-23 13.5q-23 12 -43 29.5t-41 33.5q-20 16 -37.5 33t-37.5 39l-62 84q-6 10 -14 22.5t-13 22.5l-12 23l-12 24l-16 23l-25 51q-4 6 -4 13t-4 16q-4 10 -9.5 24.5t-9.5 30.5q-4 12 -6 25.5t-4 25.5 q-2 0 -1 3t-1 3q-6 0 -8 -5t-6 -9q-37 -86 -72 -175t-66 -183l-24 -82q-12 -43 -26.5 -81t-22.5 -81q-2 -2 -3 1t-1 -1t-2 -6t-4 -6q-4 0 -6.5 -3.5t-4.5 -5.5q-4 -2 -7 -2t-5 -4l-12 6q-10 -4 -21.5 0t-17.5 13q-4 4 -11.5 8t-9.5 8v14q-2 4 -4 7.5t-4 7.5q-2 6 -1 12 t-1 14v9l4 8q0 10 2 12q20 82 47 154l54 157l59 154q10 29 23.5 55.5t23.5 55.5q4 10 7 19t3 19q4 4 6 4.5t5 4.5l8 10q31 86 70.5 162.5t80.5 152.5l13 19l6 16l14 27l4 16l8 10q4 6 9.5 14.5t9.5 18.5q2 8 6 12l10 25q2 4 4 5t4 3q4 10 6 12q0 2 5 11l10 18q6 8 12 16.5 t10 20.5q10 25 21 37q8 8 12 17l8 18q6 10 12.5 20t14.5 19q2 8 10 16l6 8q10 20 25.5 38.5t28.5 41.5q10 4 14 16.5t18 14.5h13zM371 410q-2 -2 -6 -2q2 0 3 1t3 1z" />
<glyph unicode="L" horiz-adv-x="903" d="M512 612q0 -2 -2 -4h-4q-8 4 -12.5 4t-14.5 4q-10 2 -18 6.5t-21 6.5q-4 4 -9 6t-15 4q2 2 -4 2q-6 4 -17.5 7t-17.5 7q-4 0 -8 3.5t-11 3.5q-14 10 -28.5 19t-26.5 24h-8q-4 6 -7 10t-7 10q-2 0 -2 4t-5 4q0 4 -2 4t-4 4q-8 4 -11 11.5t-9 13.5h-6q-2 4 -3 10t-6 10 q-2 10 -4 16.5t-6 12.5q-2 10 -5 17.5t-5 15.5q-2 10 -4 16t-4 13q0 4 -2 6t-2 6q-6 14 -6 33q-4 16 -3 21t3 22q0 4 -1 11t1 13q2 16 7 23.5t7 23.5q2 0 1 4t3 4q2 12 2 15.5t1 5.5l2 4t5 12q4 23 16.5 35t16.5 31q2 0 2 1t2 1q2 10 7 13t7 12q2 0 2 1t3 1q2 4 3 7t5 7l2 4 q0 2 2 2q2 4 7 4t9 2l6 6q2 2 2 4q8 6 10.5 8.5t4.5 3.5t4 3t10 8q2 0 2 4q6 0 8 4t11 4q4 2 14 2q6 6 16 4v-4q10 2 17 0q14 4 2 -12h2q2 -2 10 -2q2 -2 -4 -8t-4 -8q12 2 12 -7q-2 4 -6 4.5t-6 -4.5q2 -2 7 -2t7 -2t1 -4t1 -2q0 -6 -4 -6q0 -6 2 -7t2 -5h-6q0 -4 -2 -4 t0 -4h-8q-2 -4 0 -3t0 -2q-12 -12 -19.5 -24t-21.5 -23q-8 -6 -11.5 -9t-4.5 -6t-3 -8t-8 -14q0 -4 -3 -4t-3 -4q-10 -12 -6 -10t-2 -8q-2 -10 -6 -19.5t-6 -17.5q-2 -6 -1 -3t-1 -5q-4 -4 -5 -4q-2 -10 -2 -16.5t-4 -12.5q-2 -18 -4 -23.5t2 -25.5q4 -27 9.5 -50.5 t15.5 -41.5v-4q8 -14 16 -24.5t17 -20.5q4 0 5 -4.5t5 -4.5q2 -4 7 -6t9 -6h2q8 -8 20.5 -13t18.5 -11q4 0 9.5 -3.5t9.5 -5.5q6 -2 14 -2q0 -4 2 -4q4 -6 12 -6l8 -4q4 -2 17 -2l16 -4l13 -2q2 0 -0.5 -1t2.5 -1q4 -4 14 -4q12 -2 15 -2t5 1t5.5 2t15.5 1q10 6 16 19t15 22 q0 2 1 2t1 2q14 18 26 41h4q2 4 5.5 8t7.5 8q2 6 7 13.5l9 13.5q10 16 21.5 29.5t21.5 29.5q2 -2 2 0t2 0q0 4 4 6t4 6q4 6 8.5 13.5t10.5 11.5q2 6 7 11t7 9q12 12 25.5 28.5t25.5 33.5q0 4 5.5 7t7.5 7q4 4 9 13.5t11 15.5q0 2 3 2t3 2h2l23 29q4 0 4 6l27 24q8 10 18 19 v2q6 2 6 6l31 37q4 0 4 2t2 4q14 8 21.5 15.5t15.5 13.5q0 2 2 2l2 2l8 8t10 8q8 8 9 12q6 0 8 5.5t6 5.5v4q10 4 16 9t17 9q0 2 1 2t1 4q6 0 6 6q10 2 14 8.5t10 8.5l2 2l21 12q4 4 10 6t10 9q6 0 7 2q8 0 10 5t12 7q0 2 2 2t0 4q10 2 15.5 6t13.5 6l31 17q10 6 22 6t23 6 q16 4 33.5 5t33.5 3q4 -4 10.5 -1t8.5 -1q14 -2 16 -3t10 -7q16 -4 24.5 -15.5t18.5 -21.5q0 -16 5 -24.5t10 -20.5q4 -25 1 -46.5t-8 -39.5l2 4q0 2 3 2q-2 -6 -5.5 -12t-7.5 -12v-5q-8 -25 -24 -47l-15 -28q-8 -6 -12 -13.5t-8 -13.5q-4 -4 -7 -9t-5 -9q-6 0 -7 -7 q-10 -10 -16 -22q-12 -12 -24.5 -28.5t-24.5 -28.5q0 -2 -1 -3.5t-1 -3.5q-4 -2 -6 -4t-6 -4v-4q-12 -8 -21 -22q-10 -4 -12 -11q-10 -6 -14.5 -14t-10.5 -12q-8 -6 -13 -13.5t-13 -11.5q0 -4 -1 -4t-1 -4q-10 -4 -16.5 -10t-14.5 -11q-2 -4 -15 -12h-4q0 -2 -1 -2t-1 -2v4 q-4 -2 -5 -6t-5 -8v4q-6 0 -9 -5t-11 -7l-11 -9l-6 -4q-4 -4 -4 -7t-4 -5q0 -2 -2 -3t0 -3q2 0 -3 2t-1 0q-2 -4 -6 -6t-8 -6q-16 -8 -27 -19q-8 -4 -8 -6q-2 2 -2 0t-2 0q-4 2 -2 2t2 2q-4 0 -4 -4v-2q-10 0 -13.5 -8t-13.5 -8l-8 -6q-4 -6 -17 -11q-23 -18 -46 -28.5 t-46 -24.5q-12 0 -16 -4q-8 -2 -13.5 -5t-15.5 -3q-4 -4 -9 -5t-9 -1q-4 -4 -6.5 -4t-2.5 -5q-10 0 -15 -2t-9 -4q-10 0 -18.5 -4t-16.5 -4q-4 -2 -3 -3t-3 3q-4 -4 -9 -4t-9 -4q-16 -4 -24.5 -7t-25.5 -3q-8 -4 -18 -4t-16 -2q-6 -6 -10.5 -15.5t-14.5 -13.5 q-4 -6 -9 -22.5t-12 -20.5v-4q-4 0 -6 -6.5t-6 -6.5q-2 -6 -5 -9t-7 -11q-4 -4 -5 -8t-5 -6q-6 -10 -13.5 -16.5t-11.5 -16.5q-2 0 -2 -3t-4 -3q-4 -6 -8 -12.5t-8 -10.5l-15 -28q-8 -12 -17 -22.5t-16 -23.5q-8 -2 -10 -12l-22 -35q-4 -2 -5 -5t-6 -5q-4 -8 -9 -13t-7 -16 h-2q0 -4 -4 -5t-6 -5q-10 -14 -19.5 -29.5t-23.5 -25.5q-6 -16 -16.5 -26.5t-18.5 -24.5l-2 -2q-14 -16 -33.5 -50t-36.5 -51q2 -4 10.5 -9t12.5 -7q4 -6 16 -9t15 -7q4 -4 10 -6.5t10 -6.5q10 -4 18.5 -9t18.5 -9l2 -4q6 0 11 -4t14 -4v-2l36 -17q6 -2 13.5 -3t11.5 -5 q6 0 6 -2q18 -4 34.5 -8t33.5 -6q18 -2 40.5 -3.5t41.5 3.5h2q2 0 4 2q2 0 6 2q16 2 40.5 13t51.5 15q2 2 4 1t0 3q2 -2 4 1.5t4 3.5l17 6v-2q12 0 14 -13.5t-6 -33t-24.5 -39t-43.5 -29.5q0 -2 -6 -3t-6 -3q-6 0 -12 -2t-10 -2l-7 -6l-4 -5q-4 0 -9 5.5t-7 1.5v-7 q-2 -4 -6 -2t-6 -2h-2q-6 -4 -12.5 -2t-16.5 0q-4 0 -5 -1t-5 -1h-9q-20 4 -41 4q-2 2 -4 2t-2 -2q-4 2 -12 1t-16 1q-2 0 -3 1t-3 1l-31 9h-2q-2 0 -4 1t-4 1t-2 1t-3 1h-2q-4 2 -10 3t-10 5v-2h-4q4 2 1 1t-3 3q-8 0 -12.5 3t-12.5 3q-4 4 -9 5t-9 7q-4 0 -17 5l-12 8 q-10 4 -19.5 8t-17.5 12q-16 2 -24.5 7t-22.5 10q2 2 -1 2t-3 2h-4q-29 20 -59 37q-23 -29 -56 -56q-8 -10 -15 -16t-18 -17q-8 0 -10 -6l-20 -20q-10 -8 -19.5 -16.5t-21.5 -14.5q0 -2 -1 -2t-1 -2q-10 -4 -17.5 -12t-21.5 -15q-4 -4 -10.5 -7t-10.5 -9q-18 -8 -31.5 -17.5 t-29.5 -15.5q-12 -6 -27.5 -11t-31.5 -9q-10 2 -18.5 -1t-20.5 -3q-2 2 0 4h-8.5t-10.5 -2q0 4 -3 4t-3 -4q-4 4 -11 2t-16 2q-4 -4 -4 -2l-34 8v2q-10 2 -14.5 8t-14.5 10q-2 4 -5 7.5t-5 7.5q-2 0 -2 1t-2 1q0 10 -5 14q-6 18 -12 35.5t-8 40.5l-2 2v20v9v21t4 20 q0 18 4 26q0 4 3 7t3 8q2 0 1 2t1 2q0 6 3 9t3 9q4 2 3 7t4 5q2 8 4 13.5t6 11.5q0 2 1 -4t1 -4q4 4 5 8t9 8q4 12 6 13t13 16q2 2 4 2q0 4 4 5t4 5q2 -2 1 0t1 0q0 8 4 10t6 9l33 26q4 4 4 6q4 2 10 5.5t8 7.5q6 2 19 14q10 4 17 8t18 8l2 2q8 0 12 4q4 0 4 3q2 2 1 -0.5 t1 -2.5q10 6 25 11q23 2 41 4t35 -4q10 2 26.5 -3t26.5 -10q4 2 10 -2t10 -2q2 0 2 -2q6 0 6 -2q6 0 9.5 -4t11.5 -2q12 -12 25 -14q10 -6 17 -9.5t13 -9.5q12 -4 16.5 -9t14.5 -9q4 4 18.5 20.5t20.5 20.5q2 8 10 12q4 10 8 16.5t13 18.5q6 6 12 22q4 4 9 12.5t15 18.5 q2 8 15 17q0 6 6 8t6 8q10 12 18.5 25.5t20.5 23.5q-2 4 1 6t5 6v2l6 7q4 4 5 7t6 5q0 10 8 14q2 6 5 11.5t7 15.5h4q14 23 29.5 42t30.5 42q2 0 2 1t2 1q8 16 22 38.5t25 41.5q4 4 7 10t7 12q6 0 7 1t-9 3zM1333 1282q-29 -6 -59 -22q-6 0 -12 -7l-15 -6l-8 -6q-4 0 -6 -2 l-14 -6v-2l-17 -10l-6 -4l-18 -11l-11 -6l-6 -6q-10 -10 -22.5 -19.5t-22.5 -23.5q-6 -2 -14 -10l-6 -4l-21 -19l-12 -12h-2l-6 -10q-2 -2 -5 -2t-3 -2l-15 -17q-18 -14 -26 -28q-2 0 -2 -1.5t-3 -1.5l-30 -28q-6 -14 -16.5 -22.5t-14.5 -20.5q-4 0 -5 -3t-5 -3 q-4 -6 -10.5 -11.5t-10.5 -11.5q-2 -10 -18 -20q4 -2 2 -2t-2 -2q-4 0 -4 -4.5t-4 -2.5q-6 -10 -14.5 -19t-16.5 -22q-10 -8 -21 -28q-4 2 -2 0t-2 0q-2 -2 -2 -4q-4 -4 -7 -10.5t-9 -10.5q-4 -8 -9 -14t-14 -17q-4 -10 -11 -17t-13 -19l10 4q4 0 6 1t6 1q18 10 38 14t36 12 q8 2 13.5 6.5t11.5 6.5q4 4 10 5t10 3q20 10 36.5 20.5t37.5 20.5q4 4 8 7t14 5q0 2 1 2t1 2q8 4 12.5 9.5t14.5 7.5q6 8 13.5 12t15.5 10h2q2 2 2 4q6 0 11 5t9 10q0 4 2 4t1 -2t1 0l5 4l12 8t12 10t11 12.5t16 10.5q4 4 7 5t3 5q4 0 6 4t6 6q0 4 6 4q4 4 9.5 8.5t9.5 12.5 q6 4 9 9t11 7q2 6 6.5 9t4.5 10q8 8 13 15t15 17v2q10 8 18.5 19.5t18.5 21.5q0 2 1 2t1 2q8 12 16.5 20.5t12.5 24.5h2q0 4 2 7.5t2 7.5q4 4 6 10t6 10t8 15q8 8 13 26h2v10.5t4 10.5q0 4 2 7t2 9q-6 2 -11 1t-10 1q0 -4 -4 -3t-6 -1zM80 53q0 4 -4 4h-4v2q-4 2 -7.5 4.5 t-7.5 2.5l-4 4h-2q0 6 -6 6l-8 4l-2 2l-17 4v2q-18 8 -43.5 10t-42.5 0q-2 0 -1 -3t-1 -1q-2 0 -6 -1t-8 -1q-4 -4 -12 -7t-17 -5l-4 -4q-16 -12 -31.5 -26.5t-27.5 -35.5q-2 -2 -8 -12q-4 -4 -8.5 -11t-8.5 -18h-4q-10 -27 -17 -51t-3 -59q2 0 2 -2q2 -10 8 -11.5l14 -3.5 q10 0 15.5 1t15.5 3q6 6 20 11l3 2q23 8 41 19.5t34 21.5q2 0 3 1t3 1l15 16l2 2q8 4 12 7t10 6q0 2 7 6q8 8 18 16t20 14q2 8 11 11q8 14 22 20v6q8 4 13.5 10.5t11.5 12.5q6 4 8 7t4 7q-2 4 -4 4t-4 2zM387 1249q-2 -4 -5 -5t-3 -5q-8 -4 -10 -12q2 6 8 6q2 6 8 9t10 7h-8 zM354 1239q4 0 4 4q-4 0 -4 -4zM1067 786l2 2q0 2 -2 5v-7zM1061 784h-2v-2q2 0 2 1t2 1v2h-2v-2zM369 1245q4 -4 4 2q-2 0 -4 -2zM412 1237h-2q0 -4 2 -2v2zM1004 748q6 0 2 4q0 -2 -1 -2t-1 -2zM1028 766v-2q2 0 2 2h-2zM1022 762q4 0 4 2q-2 0 -4 -2zM756 -14h2h-2z" />
<glyph unicode="M" horiz-adv-x="1478" d="M1171 20q0 -2 -2 -2q-4 -16 -5 -31.5t-3 -29.5v-8q0 -4 -1 -6t-1 -4q-4 -4 -3 -11.5t1 -13.5q0 -12 -6 -25q0 -8 -1 -14t1 -12q-8 4 -5 -4.5t-1 -12.5q-4 0 -2 4.5t2 8.5q-4 -8 -4 -11.5t-4 -5.5l-2 2q0 -2 3 -4t3 -6q-4 0 -3 -5t1 -7q-2 0 -3 2t-1 -2q0 -10 -6.5 -8 t-6.5 -9q-4 4 -5 1t-1 1q-2 -2 -4 -6t-4 -2q0 2 -1 5t-1 6h-6q-2 0 -4 -3q-2 4 -8.5 5.5t-10.5 11.5q-2 4 -4 2t-4 2l-6 8v-2q-2 4 -2 7t-4 7q0 -2 -1 -2t-1 -2q0 4 -1 8.5t-1 8.5q0 2 -1 0t-5 0q0 63 9 110t25 95q4 23 9.5 38t11.5 43q16 68 40.5 122.5t45.5 103.5 q10 23 19.5 42t19.5 38q23 53 50.5 107t57.5 108q35 68 74 137t74 143q12 25 25.5 56.5t21.5 60.5q10 14 16 25.5t2 29.5q-16 2 -33.5 -3t-33.5 -13q-43 -18 -82 -47t-74 -58q-25 -20 -49.5 -39.5t-44.5 -41.5l-43 -46q-12 -12 -21.5 -22t-25.5 -25q-20 -23 -41 -51.5 t-45 -50.5l-80 -102q-29 -35 -57.5 -77t-53.5 -83l-28 -45l-9 -17l-8 -20q-6 -10 -10 -17.5t-14 -13.5q-2 -10 -4.5 -13t-6.5 -7q-6 -10 -10 -22.5t-8 -22.5q-14 -25 -21 -52l-21 -21t-28 -9q-27 -2 -37 11t-14 32q-8 16 -5 31.5t7 31.5q0 4 2 10.5t4 10.5l11 22 q20 23 32 66q31 59 59.5 124.5t63.5 129.5q20 41 41 83t41 89q23 41 43.5 91t32.5 97q-12 -4 -25.5 -10t-29.5 -12q-66 -33 -120 -81t-108 -98q-23 -23 -42 -46l-38 -46q-20 -20 -38.5 -40.5t-40.5 -49.5q-23 -29 -44.5 -65.5t-44.5 -69.5q-12 -10 -16 -27q-12 -8 -20 -20 q-16 -27 -30.5 -54.5t-29.5 -54.5q-4 -4 -9 -10t-9 -16q0 -6 -6 -8q0 -2 -2 -4.5t-5 -6.5l-12 -24q-12 -23 -23.5 -44.5t-25.5 -39.5q-2 -10 -5 -16.5t-7 -16.5q-16 -27 -30.5 -56.5t-27.5 -60.5l-20 -53q0 -2 -4 -10q-4 -6 -5 -14.5t-5 -16.5q-10 -20 -20.5 -42.5 t-14.5 -49.5l-19 -23q-2 -4 -6 -8t-8 -4h-16q-12 0 -23.5 6t-15.5 10q-6 10 -15.5 21.5t-9.5 30.5q0 25 8.5 48t14.5 42q8 33 19 60.5t24 55.5q8 10 11 19.5t7 19.5l16 39q2 4 5.5 9.5t7.5 7.5l4 18l4 10q4 12 12 17l13 24q14 37 34.5 74t38.5 78l43 84q10 23 18.5 42 t22.5 40l86 162q10 20 22.5 42.5t20.5 41.5q10 12 19.5 26t17.5 29q2 14 17 22q4 4 4 11.5t2 11.5q4 8 9 15t11 16l8 12q4 8 8.5 16t10.5 11q4 14 10 22t10 16l17 29q16 29 34.5 60.5t30.5 64.5q0 20 4 23q2 4 0 14t-2 14q-10 23 -24.5 29t-49.5 6q-6 0 -10 -2t-10 2 q-4 -4 -2 -4q-49 -6 -90 -23.5t-78 -40.5q-96 -57 -174 -132.5t-143 -168.5q-12 -16 -21.5 -29.5t-15.5 -29.5l-8 -8l-3 -2l-2 -6q-4 0 -10 -7l-8 -8l-14 -4q0 2 1 2t1 2l-6 -4l-3.5 7t-9.5 3q0 10 -4 11q0 2 1 3t1 3l-16 -8l4 4h-4q-2 4 3 5t1 3q-4 4 -4 0t-4 -2q4 6 -1 16 t-5 19q0 -6 -4 -2v2q4 6 3 12t1 14q-2 0 -3 -4t-4 0q4 23 10.5 34t16.5 17q-2 4 -2 3t-2 4q8 16 22.5 29.5t24.5 23.5q10 16 22.5 29.5t22.5 27.5q18 20 36.5 41t35.5 37q6 6 15 15.5t16 13.5l8 12q8 14 21.5 20.5t23.5 18.5q2 6 7 8t9 6q18 18 47 33q33 23 63.5 42t63.5 38 l25 6q4 2 6 4t4 2l14 4q35 16 70 20.5t76 8.5q8 0 14 -2t17 -2q20 -2 40.5 -6t36.5 -19l23 -14q4 -2 8 -10l12 -9q10 -10 12.5 -14t8.5 -20q4 -20 4 -31q4 -4 1 -10t-1 -13q8 -10 0 -30v-29q0 -6 -1 -10t-1 -6q0 -10 -2 -20.5t-8 -18.5q-6 -6 -6 -15.5t-7 -17.5q-2 -4 -3 -8 t-5 -8q-4 -16 -14 -23l-21 -37l-4 -14q-8 -12 -12 -15q-23 -23 -37 -51t-31 -59l21 22q10 0 16 17q10 6 17 18q25 23 49 42.5t49 41.5q4 4 12 10.5t13 20.5q8 0 15 4t11 6l14 6q4 4 8.5 9.5t10.5 7.5l47 24q8 12 23 15q16 4 29.5 7t27.5 5h15t16 -2l30 -6q4 0 6.5 -2t6.5 -7 l7 -7t7 -5q2 -4 2 -7t2 -5q2 -6 12 -10q10 -16 7 -45t-7 -56q-20 -70 -49 -123q76 78 157 158t171 135q27 12 51.5 28.5t48.5 23.5q14 2 23.5 7t15.5 7q8 0 12 6q2 0 5.5 1t7.5 1q8 4 10 4q10 2 20.5 2h18.5q18 -2 30.5 -10t22.5 -18q10 -16 21.5 -38t7.5 -53q0 -12 -2 -18 q0 -29 -17 -59q-2 -8 -2 -13.5t-4 -13.5q0 -16 -6 -23q-4 -4 -4 -9v-7q-4 -6 -9 -12t-9 -15l-11 -26q-16 -33 -28.5 -59.5t-28.5 -49.5q-90 -170 -176 -329.5t-139 -327.5q-6 -23 -15.5 -45.5t-17.5 -46.5v10l-4 -27q0 2 2 4q-4 -12 -4 -14v2l-4 -18l-7 -11zM1053 -162 q0 2 1 0t1 0l2 -2q0 -2 -2 -4q-2 0 -2 2v4zM1180 41q0 -6 -4 -14zM1059 -156q-2 -2 2 -6q0 2 -1 3t-1 3zM1165 -29q0 -2 -1 -3t-1 -3q0 4 2 6zM-45 842v2v-2z" />
<glyph unicode="N" horiz-adv-x="1124" d="M831 -49q0 -2 -2 -3t-2 -3v4l-4 -10v6q-4 -4 -3 -8.5t1 -8.5q-4 2 -6 4t-6 5q0 -10 2 -17q-2 0 -4 6q0 -2 -1 -1t-1 3q-2 2 -2 -3t-2 -3q-4 -4 -2 2t-2 2q-2 2 -2 -3t-2 -3v-2h-2q-4 -2 -2 -3t-1 -5q-6 0 -6 10q-2 -4 -2 -7t-4 -5q-2 2 -2 7t-2 9q0 -2 -2 -6t-8 0 q-2 -2 0 -6t-2 -2l-4 20q-4 0 -4 -8q-6 6 -2 15q-4 -2 -3 -5.5t-4 -3.5q-4 10 -10 23.5t-2 34.5q-6 6 0 26.5t6 32.5q0 23 4 46.5t11 45.5q4 10 5 19.5t5 19.5l16 37q2 10 10.5 32.5t19.5 47t21.5 46t14.5 32.5q45 88 88 173t90 165q4 10 9 17t9 13q12 25 27.5 49.5 t32.5 49.5q6 20 16 38.5t21 36.5q23 37 43 74t30 82q-20 6 -41 2q-74 -12 -141 -47t-123 -74q-53 -33 -97 -68.5t-89 -76.5l-57 -60q-39 -35 -74 -72.5t-70 -76.5q-23 -33 -47.5 -62.5t-46.5 -62.5q-14 -23 -35.5 -56.5t-43 -70.5t-42 -71.5t-33.5 -57.5q-8 -12 -11 -17 t-5 -9.5t-4 -9.5t-8 -17q-16 -25 -25 -49q-18 -29 -36.5 -59.5t-30.5 -61.5q-14 -25 -31 -51.5t-27 -55.5q2 -4 -6 -15t-4 -11q-6 -10 -4 -7t-6 -6q-2 -4 -3 -7t-6 -7q-4 -4 -9 -11t-9 -9q-12 -4 -13 0t-18 2l-16 10q-6 8 -11 12t-7 14l-7 13q-2 4 -2 16t2 23q4 10 6.5 19 t6.5 20l10 16q0 2 -2 2t0 2l12 23q0 14 7 22t10 21l22 39q4 10 8 18t10 16l9 17q16 16 18 28q16 25 33.5 58t36 66.5t36 66.5t33.5 57l107 195l57 94q10 25 23.5 50.5t27.5 47.5v6q29 49 57.5 101.5t63.5 99.5l21 41q6 12 13 22.5t11 22.5q10 20 19.5 36.5t15.5 39.5 q6 10 10 24.5t9 24.5q4 10 7 23.5t-3 33.5q-25 25 -69 21t-79 -14q-72 -20 -137.5 -57.5t-118.5 -78.5q-14 -12 -25.5 -21t-21.5 -24q-16 -20 -30.5 -33.5t-30.5 -29.5q-4 -10 -19.5 -25.5t-23.5 -19.5q-16 -6 -29.5 -2t-28.5 8q-10 10 -14 13t-8 14q-2 2 -2 4q0 4 -2 2t0 2 q2 10 -2 15t0 15q4 6 10 16.5t10 14.5q12 16 26.5 31.5t30.5 30.5l29 26q37 35 90 68l33 26l113 64h8q45 23 101.5 41t113.5 20q4 0 7 -1t7 -1t9.5 2t11.5 0q16 -2 32.5 -7t32.5 -11q31 -10 59.5 -47t28.5 -84q0 -41 -13 -76t-24 -67q-23 -53 -49 -100.5t-53 -94.5 q35 23 63.5 50.5t61.5 49.5q39 33 76 56q49 39 98 65q43 25 109.5 47.5t119.5 30.5q35 2 61.5 -7t49.5 -24q8 -4 12 -11t8 -15q8 -14 15.5 -37t3.5 -49q-2 -12 -7 -26.5t-9 -29.5q-14 -39 -35 -76.5t-43 -72.5l-76 -131l-8 -17l-31 -55q-6 -14 -16.5 -28.5t-16.5 -30.5 l-45 -82q-25 -47 -58.5 -116t-64 -144.5t-54.5 -152.5t-28 -138h4zM827 -66q-4 0 0 7v-7zM788 -74v-4v4z" />
<glyph unicode="O" horiz-adv-x="1058" d="M1194 1102q-2 -4 -3 -3t-1 -1q4 -12 2 -26.5t-2 -31.5q-2 6 -1 10.5t1 8.5q-2 -4 -3 -14.5t-1 -16.5v-6l2 -2v-2h-2v-2q-2 -4 -1 -8t-1 -9v-8l-13 -84h5q0 -2 -2.5 -4t-2.5 -6q-4 2 -3 -3t-3 -1q-4 -10 -5 -19.5t-5 -17.5q0 -4 1 -5t1 -3q-27 -98 -70 -199.5t-86 -189.5 l-24 -29q-6 -16 -13.5 -30.5t-19.5 -26.5q0 -4 -5 -9.5t-5 -11.5h-2l-45 -59q-18 -33 -40 -63.5t-44 -59.5q-12 -16 -23.5 -32.5t-23.5 -28.5q-2 -2 -2 -5v-2q-49 -59 -105.5 -115.5t-116.5 -109.5q-29 -23 -56 -46.5t-64 -41.5q-16 -6 -33 -14t-33 -13q-49 -16 -108.5 -9 t-92.5 36q-2 8 -6 12t-8 9q-4 4 -12 4q-25 27 -51 73q-4 6 -3 12.5t-6 10.5q-31 78 -24.5 157.5t16.5 149.5q6 39 15.5 74t19.5 71q10 35 21.5 71t21.5 71q16 37 30.5 73.5t30.5 73.5q23 41 43.5 81t42.5 81q10 23 24.5 47.5t31.5 46.5q14 23 28.5 43.5t28.5 42.5 q4 8 11.5 15.5t13.5 15.5l16 25l14 16l25 33l31 35q0 2 1 2t1 4q27 20 41 45q16 10 25.5 22.5t21.5 26.5q6 4 10 8t12 8q2 0 9 6q2 0 2 5l12 6l4 14l12 8l31 23l6 8q4 6 9 9t10 9q4 -2 14 4q12 4 20.5 2t16.5 -2q4 -2 7 -5t7 -3q0 -2 2 -7t6 -5t6 5t5 5q2 4 6 5t8 3 q8 8 19.5 17.5t21.5 13.5q12 8 27.5 19.5t31.5 17.5q4 2 8.5 1t8.5 1q10 2 16 7t14 7q10 0 16.5 2t10.5 2h6q16 6 43 -2q41 0 68.5 -22.5t50.5 -59.5q2 -8 7 -16t3 -18q4 0 4 -4.5t4 -8.5q0 4 -2 6.5t-2 6.5q12 -10 15.5 -35t7.5 -45q2 4 0 9t0 9q4 -16 4 -30.5t4 -28.5 q0 -23 1 -43t1 -43zM1083 1073v-2q0 37 1 79t-9 83q-6 35 -20 65q-4 4 -9.5 7.5t-9.5 7.5l-10 10l-15 9t-20 -1q-29 -6 -49 -17t-41 -26q-35 -27 -63.5 -55.5t-51.5 -61.5l-30 -45q-10 -12 -17.5 -24t-13.5 -27.5t-12 -37t-11 -54.5q4 -16 3.5 -22.5t7.5 -22.5 q10 -6 14 -22.5t-1 -34t-20.5 -28.5t-46.5 -5h-6l-1 2t-6 8t-19 19q-4 2 -10.5 12t-11.5 22.5t-8 21.5t-1 11q2 10 -2 17.5t-2 11.5v12l4 33q4 8 6 21.5t0 23.5q-18 -18 -34.5 -44t-35.5 -46l-20 -29q-61 -82 -115.5 -169t-97.5 -185q-14 -31 -20.5 -43t-10.5 -20.5 t-8 -21.5t-14 -46q-14 -35 -26.5 -68t-22.5 -69q-20 -76 -35 -162t0 -185q10 -29 21.5 -52t27.5 -40q20 -20 59 -20q37 2 57.5 13t41.5 26q70 39 121 87t102 99l29 35q16 14 30 35q39 45 72 91t65 95q49 66 93 145q29 47 56.5 103.5t47.5 109.5q18 35 32.5 74t26.5 80 q12 43 23.5 93t15.5 104v16v4zM1137 1339q-4 6 -6.5 12.5t-8.5 10.5q4 -10 7.5 -14.5t7.5 -8.5zM1106 1376q8 -14 14 -18q-4 16 -14 18zM1137 1350q-6 10 -4 10q4 -12 9 -23.5t9 -23.5q0 10 -5 20t-9 19v-2zM1145 1313q4 2 4 0t2 -2l-14 22zM1151 1300q0 -4 1 -16t5 -10z M1085 1096q8 12 0 28q0 -6 1 -14t-1 -14zM1171 1081q0 4 2.5 8.5t-2.5 8.5q-4 -7 0 -17zM1137 1329v4l-9 8q5 -10 9 -12zM1171 1114v-9t5 -7q-4 4 -2.5 8t-2.5 8zM1051 1415q0 4 -2 3t-5 3q1 -10 7 -6zM1122 750l4 8t2 8l-4 -8t-2 -8zM1153 840q0 4 2 5t-2 5v-10zM1190 1065 q0 10 -2 12v-6t2 -6zM1096 680q2 4 4 7t2 7q-2 -2 -6 -14zM1087 1126q0 10 -2 13q2 -4 1 -7.5t1 -5.5zM1083 1403q0 -4 4 -4q0 4 -4 4zM1151 1337q-4 4 -4 6z" />
<glyph unicode="P" horiz-adv-x="1058" d="M1313 1047q4 -14 6 -33t0 -31q-4 -74 -31 -135q-8 -27 -18 -44.5t-27 -39.5q-12 -16 -25.5 -33.5t-29.5 -28.5q-23 -31 -55.5 -56t-61.5 -52q-16 -10 -18 -14.5t-17 -14.5q-35 -25 -83 -50.5t-89 -47.5q-4 -4 -9 -4t-9 -4q-6 -2 -10.5 -5t-12.5 -5q-8 -8 -6 -8.5t-8 -4.5 q-2 -4 -8 -4q-4 -2 -5 -3t-3 -1q0 -2 -2.5 -1t-2.5 -1h-4l-6 -2q-2 0 -2 -1t-2 -1h-2q-4 -4 -6 -4l-10 -6q2 0 -6 -4q-10 -4 -22.5 -8.5t-20.5 -10.5q-16 -4 -29.5 -9t-28.5 -9q-14 -10 -31.5 -17.5t-33.5 -13.5l-70 -23q-8 -2 -13 -4t-12 -6q-43 -8 -89 -24.5t-87 -28.5h-2 l-2 -2q-2 0 0 -2q-4 -4 -5 -7t-3 -5q-23 -55 -37 -87t-25.5 -61t-23.5 -63.5t-29 -94.5l-43 -131q-18 -37 -24 -82q-2 -2 -2 0t-2 2q0 -6 -4.5 -9t-4.5 -7q-4 0 -7 -4t-9 -8q-4 -2 -4 -4q-4 2 -8 5t-6 3q-10 -10 -22.5 2t-29.5 20q2 10 -3 8.5t-7 8.5q2 2 0 4t-2 6 q0 8 -1 19.5t7 17.5v10q18 68 32.5 115t30 90t32 89t41.5 112q10 33 26.5 71.5t30.5 75.5q2 8 5 13.5t1 11.5q0 4 2 4t4 2q37 88 77 168t85 164q4 14 11 25t9 28q12 10 18.5 22.5t10.5 22.5q4 6 7 17.5t14 19.5q0 10 5 14t5 10q8 14 18 30.5t19 33.5q4 10 13 20.5t13 22.5 q6 12 14.5 27.5t18.5 25.5l4 6l6 6t2 9l19 26l30 47l21 17q18 10 47 4t33 -25q0 2 4 -10q2 -6 2 -8q2 -8 0 -17.5t0 -19.5q-12 -29 -32.5 -55.5t-35.5 -55.5q-16 -31 -31.5 -53t-33.5 -59q-4 -10 -8 -18.5t-13 -16.5q-10 -27 -25.5 -51.5t-31.5 -51.5q-4 -10 -8 -19t-8 -19 q-6 -14 -15.5 -28.5t-15.5 -25.5l-6 -26q-2 -2 -8 -6q-6 -12 -12.5 -23.5t-10.5 -26.5q-18 -35 -35.5 -73.5t-36.5 -77.5q61 16 122 38.5t116 43.5q18 10 36.5 16t37.5 14q12 4 12 5l41 18l113 55q2 -2 0 2t0 4q53 27 92 56.5t92 68.5q20 16 30.5 24.5t30.5 29.5 q20 23 47 52.5t43 57.5q16 29 24.5 49.5t11.5 37t3 30.5t-2 33q-12 72 -55 118q-45 55 -111 80q-23 8 -32 11.5t-16 6.5t-19 5t-37 8q-70 10 -119 10t-112 -12q-49 -12 -86 -21.5t-70 -21.5t-64.5 -27.5t-70.5 -40.5q-16 -8 -14.5 -9t-16.5 -9q-10 -6 -11 -7t0 -1t0 -1 t-9 -7q-14 -6 -19.5 -10.5t-9.5 -8.5l-8 -8t-15 -12q-25 -18 -44 -40t-42 -44q0 -4 -4 -7t-8 -8q-4 -4 -6 -9t-8 -7q-10 -4 -13.5 -3t-13.5 -3q-6 6 -10 6q-2 4 -6 4t-4 6q-2 4 -2 2t-2 -2q-2 10 -15 19q-4 16 -4 40.5t16 34.5q10 20 29 39l19 17l16 14l29 27 q12 14 28.5 23.5t30.5 21.5q23 18 33 25.5t17 10.5t16.5 7t29.5 16q27 14 41.5 20.5t24.5 10.5t23.5 8t37.5 14q70 29 135.5 43.5t151.5 14.5q8 2 17.5 2h15.5q10 0 8 1t6 -3q4 2 6 -1t6 1q10 -6 23.5 -5t23.5 -3q37 -4 65 -9.5t62 -17.5q27 -6 55.5 -20.5t47.5 -24.5l14 -8 l25 -21q29 -20 52.5 -44.5t41.5 -57.5q10 -23 20.5 -46t14.5 -52z" />
<glyph unicode="Q" horiz-adv-x="1089" d="M907 -229q0 -2 5.5 -5.5t7.5 -1.5l-13 -18q-4 -4 -14 -13t-14 -14q2 2 -1.5 4.5t-3.5 -2.5v-2t-4 -2t-2 -2q-4 -6 -8 -6t-12 -4q-33 -16 -82 -24.5t-115 12.5q-2 2 -2 0t-2 0h-4v2q-10 2 -22.5 7l-22.5 9q-8 4 -15.5 9.5t-15.5 7.5q-4 10 -22 18q-31 23 -42 41t-36 49 l-4 6q-20 -16 -44 -33.5t-57 -33.5q-16 -4 -29.5 -12.5t-29.5 -14.5q-51 -12 -106.5 -5t-90.5 34q-2 8 -4 8t-4 4t-8 7t-8 3q-27 33 -47 72q-4 6 -3 12t-7 11q-29 74 -24 152.5t17 148.5q6 35 13.5 69.5t17.5 71.5q8 35 21.5 68.5t23.5 70.5l62 143q18 39 39.5 80t44.5 82 q10 20 23 43t30 45q10 23 26.5 42.5t30.5 39.5q4 10 13.5 15.5t15.5 15.5l14 27l17 18q8 14 24 31l29 30q4 4 4 5q10 12 22.5 22t20.5 23q12 10 23.5 22t23.5 25l21 18q2 0 4 3t4 5q2 0 0 7l10 2l10 14l31 20l10 2q8 2 21 19q4 -2 6 4t6 6q10 4 15 9t16 5q4 0 10 5.5t8 5.5 q2 -2 2 0t4 2t8.5 4t6.5 4q2 4 12 10q8 6 19.5 10t19.5 9q12 10 22.5 12t26.5 8l16 4l33 4q10 0 14.5 1t8.5 1h8q51 8 88 -11t60.5 -55t36.5 -81t18 -88q2 -23 4 -43.5t2 -38.5q2 -66 -11.5 -128.5t-29.5 -121.5q-23 -98 -68 -197.5t-86 -187.5q-8 -4 -13 -10t-11 -15 q-4 -14 -12.5 -29.5t-20.5 -25.5q-2 -4 -6 -9t-4 -11h-3q-12 -16 -22 -29.5t-21 -30.5q-16 -29 -38.5 -59.5t-47.5 -59.5q-10 -16 -21 -32.5t-22 -28.5q-2 -2 -2 -4q-41 -49 -85 -95t-91 -91q47 -74 120 -105t159 -10q8 2 12 8t12 4q6 4 10.5 8t12.5 6q4 4 5 2t3 -4q4 0 8 9 h2q4 0 7.5 -1t7.5 -1q0 -6 5 -7.5t5 2.5q2 -6 10 -8h-2l2 -2q-2 -2 -4 -1t-2 -3q-2 -8 1 -4t5 4t4 -3t-4 -7q4 -8 4 -12zM1026 1055q0 29 -1 62.5t-7 66.5q-2 18 -9.5 35.5l-13.5 31.5l-12 15l-14 10q-6 4 -11.5 7t-19.5 -1q-59 -8 -94 -35q-27 -14 -48.5 -28.5t-54.5 -38.5 l-24 -19q-23 -16 -34 -25.5t-20.5 -18.5t-22.5 -22.5t-40 -37.5l-10 -17q-4 2 -6 2q-8 -12 -9 -10l-6 -4q0 2 -1 -2t-3 -7t-4 -5t-2 2q-16 -16 -33.5 -40t-36.5 -46l-16 -25q-63 -82 -116.5 -158.5t-98.5 -185.5q-14 -31 -26.5 -58.5t-23.5 -58t-21.5 -66.5t-22.5 -83 q-20 -74 -33.5 -147.5t-1.5 -159.5q8 23 29.5 45t36.5 33q12 10 20 10q0 2 3 1t5 1q6 6 13 4q6 6 15 6h13q12 2 14.5 2h4.5t7 -2t21 -4q2 0 3 -1t3 -1h2q25 -6 43.5 -18.5t36.5 -20.5q10 -8 21.5 -14t19.5 -15q10 -16 23 -26l80 78l24 34l31 37q41 43 74 87t61 91 q10 10 16.5 20.5t10.5 16.5q20 23 33.5 50.5t29.5 56.5q29 45 57.5 102t51.5 105q12 39 27.5 75.5t25.5 75.5q12 47 23.5 96.5t15.5 100.5zM324 -117q20 10 38.5 21.5t34.5 25.5q-10 10 -20 20.5t-23 16.5q-57 37 -110 8q-4 0 -4 -2t-2 0q-41 -31 -48.5 -61.5t-9.5 -50.5 q20 -14 51 -15q27 2 51 14.5t42 22.5zM592 1051q0 6 -6 -7z" />
<glyph unicode="R" horiz-adv-x="1122" d="M504 342q-2 -6 1 -12t3 -17q-4 -4 -1 -7t5 -7v-12q10 -23 20.5 -42.5t20.5 -39.5q4 -16 13 -30.5t20 -29.5q20 -41 44.5 -70.5t61.5 -72.5l68 -63q2 -4 7 -6.5t9 -6.5q18 -10 30.5 -19t26 -16.5t30 -13.5t40.5 -10l25 -4q10 -2 2 -3t4 -1q25 2 42 -3.5t21 -9.5 q0 -4 4.5 -8t-0.5 -10v-4q-2 -10 -11 -18.5t-9 -12.5l-10 -10q2 -4 -4 -8t-11 -11q-8 -2 -14 -3t-10 -5q-4 0 -5 -1t-5 1q-10 -4 -12.5 -2t-12.5 2q-49 4 -71.5 12.5t-59.5 26.5q-16 6 -24.5 11.5t-24.5 15.5q-27 16 -54.5 38.5t-56.5 45.5q-35 39 -65.5 78t-59.5 86 q-6 18 -18 30l-14 35q-12 16 -22.5 35.5t-14.5 42.5q0 2 -1 2t-1 2q-10 25 -17.5 50.5t-11.5 58.5q-4 -2 -7 -8.5t-5 -10.5q-23 -55 -40.5 -96t-32.5 -80t-30.5 -82t-36.5 -104q-8 -33 -17 -65t-24 -66l-22 -80q-2 -2 -2 0t-2 2q0 -8 -3 -9t-3 -6q-4 0 -6.5 -4t-10.5 -6 q-6 -2 -6 -4q-4 2 -7 4t-5 2q-2 -4 -11.5 -1t-20.5 8.5t-19.5 12.5t-10.5 11q2 8 -3 13t-5 16v10q0 10 -2 15t4 12v8q20 70 38 123t35 103t36.5 101.5t44.5 116.5q12 35 24.5 58.5t24.5 60.5q2 8 5 13t1 12q0 4 3 4t7 2q37 88 78 170t88 163q4 16 12.5 27.5t10.5 28.5 q10 10 15 22.5t11 22.5q8 8 10.5 18t12.5 19q0 10 5 14t5 10q10 14 18.5 30.5t18.5 33.5q6 12 14.5 22.5t14.5 24.5q8 10 15 25.5t17 25.5l5 8q4 4 7 6t3 7l16 26l33 47q8 4 12 13.5t8 13.5q8 6 21.5 4t26 -8t21.5 -16.5t11 -18.5q0 -2 1 -4t1 -6q2 -4 2 -8q2 -8 0 -17.5 t0 -19.5q-10 -29 -26.5 -50.5t-30.5 -50.5q-16 -29 -33.5 -53t-36.5 -61l-7 -17.5t-13 -17.5q-10 -27 -26.5 -51.5t-30.5 -51.5q-8 -23 -19 -38l-31 -56l-8 -26q-2 -4 -3 -4.5t-3 -2.5q-8 -12 -13 -23t-9 -26q-23 -35 -38.5 -64.5t-31.5 -68.5q59 18 117.5 36.5t113.5 37.5 q18 10 37 17t39 18q12 4 10 4q8 4 20.5 8t22.5 8q35 16 63 32.5t60 31.5v2q53 29 119 61.5t119 71.5q23 18 47.5 35.5t44.5 38.5q20 23 40.5 50t41.5 56q14 31 24.5 68t10.5 77q-4 39 -15.5 61.5t-31.5 45.5q-23 25 -46.5 40t-58.5 30q-29 10 -74 20t-83 12 q-152 16 -283 -20q-96 -29 -173 -60.5t-155 -85.5q-18 -8 -36.5 -22t-37.5 -25q-18 -12 -22 -17t-23 -15q-12 -10 -17 -14.5t-9 -7.5t-8 -8t-15 -13q-29 -18 -45 -37t-39 -41q0 -4 -6 -7t-12 -10q-4 -4 -6 -7t-6 -5q-6 -8 -13.5 -12t-15.5 -10q-4 4 -7 1t-9 -3q-4 4 -5.5 5 t-3.5 7q-2 4 -3 2t-3 -2l-3 9t-5 7q-18 43 -9 66.5t38 52.5l32 37l15 16q4 4 11 7t13 10q10 16 28.5 27.5t35.5 25.5q25 20 38 30.5t24.5 18.5t23.5 15.5t35 21.5q53 31 107 56.5t114 47.5q70 31 145.5 49.5t161.5 22.5q8 2 15.5 1t15.5 -1q10 2 22.5 4t20.5 -2q4 2 4 0t4 0 q14 -2 27.5 1t23.5 -1q37 -2 82 -7t80 -15q27 -8 55.5 -20.5t44.5 -22.5l19 -9l14 -6l10 -10q29 -18 51.5 -41t38.5 -57q10 -23 21.5 -46.5t13.5 -52.5q4 -12 5 -30.5t-1 -32.5q-2 -35 -10 -70t-18 -63q-10 -27 -21.5 -48.5t-30.5 -43.5q-23 -33 -53 -60 q-23 -29 -56.5 -53.5t-62.5 -50.5q-16 -12 -34.5 -22.5t-30.5 -22.5q-37 -25 -84 -48.5t-92 -46.5q-4 -4 -8 -5t-9 -5q-10 -2 -13 -4t-9 -4q-20 -16 -39 -22q-4 -4 -12 -5q-8 -4 -6 -4q0 -2 -1.5 -1t-1.5 -1h-4l-28 -12q-2 0 -2 -1t-2 -1h-2q-4 -2 -4.5 -3t-4.5 -1l-10 -4 q2 0 -6 -4q-10 -8 -22.5 -8.5t-18.5 -8.5q-18 -4 -30.5 -9t-28.5 -9q-16 -10 -34 -14.5t-34 -10.5q-18 -6 -35.5 -12t-34.5 -10l-69 -31v0z" />
<glyph unicode="S" horiz-adv-x="903" d="M223 344q2 -4 2 -6q4 -2 2 0t0 0q0 -4 2 -5t0 -7l11 -2q-2 -6 0 -17l2 2l-2 -4l-11 -10q0 -4 2 -6t2 -6q-10 -23 -27.5 -39.5t-29.5 -36.5q-2 -4 0 -2t2 -2q-18 -18 -34.5 -41t-26.5 -45l-4 -13q-4 -6 -9.5 -12t-9.5 -12l-26 -57q-8 -20 -13.5 -40t-13.5 -40 q-8 -16 -11 -35t-7 -35q-6 -31 -4.5 -65.5t12 -66.5t28 -54.5t41.5 -26.5q27 0 54.5 8t53 21.5t47 30t36.5 28.5q37 29 59.5 63.5t48.5 69.5q8 12 13.5 28.5t15.5 33.5l12 30q10 25 16.5 54.5t10.5 58.5q2 6 2 14.5v16.5q0 23 -1 50.5t-5 47.5q-16 76 -44 138.5t-63 121.5 l-4 8q0 12 -10 19q-6 10 -11 21.5t-14 23.5q-20 33 -38.5 70.5t-32.5 74.5q-16 35 -31.5 69t-26.5 75l-12 88q0 4 1 4t1 2q-2 31 0 61.5t12 59.5q4 16 12.5 31.5t14.5 27.5t15.5 22.5t11.5 24.5q4 0 12 19q8 12 18 16q6 12 13.5 20.5t17.5 18.5q0 2 4 2q4 6 11.5 10t11.5 4 q61 49 124.5 84t164.5 49q8 6 19 5t19 4q53 6 103.5 6t105.5 -13q16 -4 34 -9t38 -9q16 -6 31.5 -17.5t32.5 -21.5q20 -18 33.5 -38.5t25.5 -47.5q6 0 6 4q10 -33 11 -79t-9 -81l-8 -24t-8 -23l-43 -73q-2 -16 -21 -35q-10 -14 -22.5 -27.5t-22.5 -26.5q-23 -29 -43 -49 l-45 -45q-14 -10 -26.5 -22.5t-24.5 -22.5q-12 -4 -23.5 -11t-25.5 -5q-2 0 0 1t0 1q-8 2 -15.5 13t-15.5 22q0 2 -1 5t-1 5q-2 2 -2 8q-6 10 6 27.5t16 29.5q4 4 9.5 8.5t9.5 10.5q25 16 39 33.5t37 40.5l26 26q8 14 21 27q16 14 23.5 28.5t19.5 30.5q4 2 3 5t3 6q0 2 2 3 t2 3q12 14 18.5 34.5t6.5 42t-5.5 43t-17.5 35.5q-25 29 -64.5 44.5t-82.5 19.5q-10 2 -22.5 3t-27.5 1l-75 -6q-33 -4 -57.5 -11.5t-48 -16.5t-46 -21.5t-51.5 -28.5q-25 -16 -50.5 -36.5t-47.5 -43.5q-35 -41 -56.5 -97.5t-5.5 -133.5q10 -49 29.5 -92.5t42.5 -79.5 q-2 -8 1 -11.5t3 -7.5q10 -10 16.5 -19t12.5 -20q16 -37 34.5 -69.5t34.5 -67.5q2 0 2 -6q33 -53 59.5 -122t43.5 -146q10 -63 7 -132t-20 -124q-6 -31 -18 -57.5t-23 -51.5q-66 -133 -174 -221q-25 -23 -56.5 -40t-61.5 -36q-10 -4 -19.5 -9t-23.5 -9q-16 -4 -33 -8.5 t-33 -2.5q-23 0 -52.5 2.5t-45.5 12.5q-2 0 -10.5 4t-10.5 6q-20 6 -32.5 23.5t-28.5 29.5l-6 19q2 0 -2 -4q-4 4 -2 8t-2 8q-2 0 1 -3t-1 -3q-4 14 -9 16q0 2 1 3t1 3q-4 10 -11 23.5t-7 26.5q-8 51 -6 102t6 92q2 4 4 10t2 11l21 61q31 94 82 178q2 0 1 -1t1 -1q2 6 4 6 t2 6q10 20 36.5 55.5t53 66t48 49t21.5 6.5q2 2 18.5 -4.5t16.5 -10.5q4 0 -1 -3t-1 -3zM559 1364q10 0 10 4h-6t-4 -4zM35 186q0 -2 -1 -2t-1 -4q4 0 5 3t-3 3zM29 186l2 2q0 -2 -2 -2z" />
<glyph unicode="T" horiz-adv-x="679" d="M94 -254v2l-2 -2q-4 -2 -5 -1t-3 1v2q-2 0 -2 -2q-2 -2 -2 -4q-4 0 -1 1t1 5q-6 -2 -5 1t-3 1q0 4 -1 5t-3 7l-5 -10q-2 6 -1 10.5t-1 8.5q-4 0 -3 -2t-3 -2q2 4 3 4t1 4q-4 4 -3 5t-3 5q-8 53 8.5 100t30.5 88q0 6 3 10.5t3 8.5q16 37 28.5 74.5t29.5 72.5 q23 59 43 106.5t41.5 91.5t44 90t49.5 101q14 27 26.5 54.5t28.5 54.5l17 37q0 2 3 2t1 4q2 4 6 8q2 2 2 4q0 -2 10 15l68 108q0 2 1 3t1 3q18 29 32.5 55.5t32.5 51.5q4 4 8 14q6 6 20.5 28.5t33 52.5t36 58.5t27.5 44.5q-43 -10 -88 -22t-86 -27q-33 -14 -44 -18t-19.5 -7 t-23.5 -9.5t-56 -22.5q-35 -16 -94.5 -44t-137.5 -67q-10 -6 -18 -10t-23 -6q-10 4 -20 -1t-17 11q-2 2 -2 0t-2 0v8h-6v11q-6 4 -15 14t-11 20l4 5v8q0 10 4 18q4 2 8 6t10 6q14 16 32.5 23.5t39.5 17.5q8 8 12 9q43 18 69.5 31.5t52.5 24.5t56.5 22.5t79.5 27.5 q4 2 33 11.5t75 23.5t104.5 29.5t118.5 31t118.5 27.5t103.5 18l211 29q6 4 14 0q10 2 17.5 1t15.5 -1q16 4 19 4q16 -2 36.5 -1t36.5 1q45 -2 73 -5t63 -15q6 -6 10 -6q0 -4 -3 -3.5t-1 -3.5q4 -4 9 -6t7 -6q0 -4 -2 -2t-2 -2t4 -4h6q0 -2 -4 -4t2 -2q0 -4 -2 -3t-4 -1 q4 -2 11 -8.5t3 -6.5l4 -4q-8 -6 -8 -14h2l-2 -2q0 -4 2 -5t0 -3q-4 -2 -2 -1t-2 1q0 -4 1 -3t1 -3h-2q-12 -4 -22 -5q0 -4 4 -2t2 -2q-4 -2 -6 -1t-6 1q-37 2 -77 1t-75 3q0 -2 -2 -2h-46.5t-33.5 -1t-33.5 -2t-42.5 -3q-10 2 -25.5 -5t-25.5 -3q-23 -6 -23.5 -5t1.5 3t0 2 t-25 -6q-10 2 -28.5 -1t-24.5 -5q-10 0 -27 -4l-37 -6q-16 -2 -30.5 -6.5t-30.5 -6.5l-84 -14l12 -4q4 -4 4 -6q2 -4 1 -9.5t3 -5.5q8 -16 17.5 -21t5.5 -20q0 -4 1 -4t1 -2q-16 -12 -16 -28q-41 -59 -85 -128t-88.5 -140.5t-84 -144.5t-72.5 -138q-6 -8 -11.5 -16.5 t-7.5 -18.5q-4 -6 -8 -9t-2 -14q-2 -2 -2 0l-20 -37h-2q-4 -10 -4.5 -19t-8.5 -15v-7q-12 -18 -21 -38.5t-20 -38.5q0 -8 -4 -11q-2 -10 -2 -9v4t-1 4t-3 -9q-12 -18 -18.5 -39.5t-18.5 -40.5q0 -6 -2 -10t-6 -10v-4q-10 -20 -18.5 -43t-22.5 -39v-8q0 -4 -1 -3t-1 -2 q-4 -16 -9 -28t-9 -29q-10 -6 -10.5 -14t-4.5 -12v-11q-2 -6 -6 -12t-2 -14q-2 -2 -4 2q-2 -16 -8 -29.5t-10 -28.5q-2 0 -3 2q-2 -2 0.5 -3t-0.5 -5l-16 -47q-4 -10 -7 -18.5t-7 -12.5q2 -4 1 -5t-1 -5q-6 -10 -9.5 -24.5t-15.5 -24.5v4q-8 0 -8 -8q-2 -2 -2 4q-2 -4 -3 -2 t-3 -4q-4 6 -1 6t3 4q-2 -6 -8 -8q-4 0 -2 0t-2 -2q-2 0 -3 2q-4 -4 -5 3t-5 3h-2zM98 -262q-2 0 -2 6q2 -2 3 -5t-1 -1zM82 -254q2 2 2 0h-2z" />
<glyph unicode="U" horiz-adv-x="1003" d="M1196 952q-27 -57 -56.5 -113.5t-58.5 -111.5q-4 -14 -12 -27.5t-14 -25.5q-20 -41 -34.5 -71t-29 -57.5t-30 -57t-39.5 -66.5q-29 -55 -61 -108.5t-68 -106.5q-10 -14 -16.5 -25.5t-14.5 -25.5q-4 -4 -8 -7.5t-11 -9.5v-4q0 -4 -1 -5t-3 -5l-6 -10q-4 -4 -9 -9.5 t-11 -13.5q-16 -23 -37 -47.5t-37 -46.5q-4 4 -5 1t-1 -7q-8 -4 -14.5 -13.5t-12.5 -17.5q-2 0 -1 2t-1 2q-25 -29 -51.5 -54.5t-52.5 -51.5q-12 0 -13 -11h-4l-41 -30q-4 -2 -6 -4t-6 0q-2 -2 1 -3t-1 -4l-2 3q-2 0 -2 2q-8 -8 -16.5 -13.5t-18.5 -15.5q-14 0 -16 -12 q-23 -6 -44.5 -16.5t-43.5 -14.5q-20 -4 -37 -3t-33 3q-10 0 -20.5 5t-24.5 9q0 -4 2 -6q-35 12 -56.5 35.5t-41.5 48.5v-2q-2 2 -4 5t0 3q-4 12 -8.5 23.5t-8.5 27.5q-2 0 -1 -2t-1 0v4t-1 4.5t-1 2.5q-6 29 -6 64.5v64.5q0 4 2 1t2 1q-4 0 -4 4t4 8q0 16 1 38.5t5 39.5 q10 63 20.5 111.5t25 91.5t33 86t42.5 92q29 66 60.5 130t64.5 124q0 2 4 5t0 3q6 10 10 18t11 19q25 49 50 90t44 94q0 10 5 18.5t9 16.5l25 59q2 12 7 34t4 42.5t-12.5 36.5t-41.5 18q-12 2 -26.5 3t-27.5 -1q-23 -4 -37 -6t-26 -5t-27.5 -9t-38.5 -16l-32 -17l-31 -18 q-2 -2 -4 -2v-2q0 -2 -2 -5q-8 -4 -15.5 -9t-17.5 -11q-4 -8 -9 -11t-9 -14q-4 -2 -9 -2q-14 -20 -31.5 -31.5t-31.5 -31.5q-4 -2 -12 -14q-4 -4 -9.5 -5.5t-7.5 -11.5q-4 -10 -11 -14t-13 -12q-18 -16 -38 -16.5t-35 10t-21.5 29t6.5 36.5q23 29 47 58.5t53 52.5q0 4 2 5 t2 3q25 18 50.5 40.5t51.5 39.5q23 14 34.5 22t22.5 13.5t24.5 11.5t39.5 18q27 10 56.5 15.5t60.5 9.5q39 6 76 1t76 -18q16 -10 32.5 -21t32.5 -30q4 -12 12.5 -27.5t12.5 -29.5q2 -10 1 -23.5t-1 -25.5v-20.5t-4 -20.5q-4 -12 -6.5 -25.5t-6.5 -26.5q-10 -41 -25.5 -75.5 t-33.5 -69.5l-104 -215q-4 -4 -3 -4q-16 -37 -35.5 -68.5t-35.5 -66.5q-10 -14 -37 -73.5t-55.5 -139.5t-51 -166t-24.5 -154q-2 -49 9 -94t52 -61q12 -6 27.5 -4t32.5 6q61 27 112.5 67.5t91.5 87.5q37 37 67 74l60 74l103 147q18 29 35.5 57.5t33.5 57.5q8 10 14.5 19.5 t10.5 19.5q27 43 46.5 77.5t35.5 68.5t33.5 70t40.5 83q8 14 16 29.5t16 33.5l31 64q4 8 9.5 15t9.5 18v8q2 0 2 2t2 0q12 43 30 72v-3l5 5q6 6 7 12t5 14q0 2 2 1t0 1q8 20 16 36.5t15 35.5q4 -4 1 -5t-1 -3q6 4 5 8t3 8q-2 -4 2 -5t2 -5q2 6 -2 20q2 0 2 -4q4 4 4 8.5 t2 12.5q4 6 11 15t5 20q2 0 1 -1t1 -1q4 2 5 14q2 0 2 -5t0 -3q8 25 29.5 27.5t41 -7.5t31.5 -31.5t4 -46.5zM184 -254q-4 4 0 2t9 -4q-14 0 -19 4q4 0 10 -2zM1081 979q0 2 1 4t1 4q-2 -4 -2 -12v4z" />
<glyph unicode="V" horiz-adv-x="903" d="M1450 1210q0 2 -6 -4q2 -2 2 -6t4 -4q-2 -4 1 -9t1 -9q2 -4 -5 -11.5t-5 -7.5q-4 -4 -2 -4q0 -4 -2 -4q0 -4 1 -4t1 -2q-2 -4 -7.5 -7t-9.5 -10q0 2 9 2q-29 -16 -48.5 -35.5t-48.5 -41.5q-135 -123 -257 -259.5t-238 -277.5q-39 -51 -79 -95t-75 -95q-4 -4 -6 -9 q-2 -4 -4 -6q-14 -25 -30.5 -39t-33.5 -39q-6 0 -10 -8q-16 -20 -31.5 -42.5t-33.5 -39.5l-25 -30q-2 0 -32.5 -34t-68.5 -79t-76 -86t-54 -55q-8 -6 -30 -29t-49.5 -43t-59 -30.5t-62.5 10.5q0 4 -14.5 6t-14.5 4q-16 18 -21 31.5t-5 22.5t3 15.5t1 12.5q8 23 15 52.5 t13 55.5q2 12 12.5 47t22.5 76t24.5 77t16.5 50l90 262q23 47 38 96.5t34 96.5q23 61 45 120.5t45 125.5q8 16 13 37.5t12 41.5q8 37 15 65t3 64q-6 16 -21.5 22.5t-31.5 6.5q-35 2 -88.5 -20.5t-106.5 -55t-101 -69.5t-73 -64q0 4 -14.5 -9t-30.5 -30.5t-29.5 -30 t-11.5 -4.5q-4 -6 -14 -5t-19 -1q-6 4 -9 1t-7 5q-2 4 -2 1t-4 -1q-4 12 -11.5 19.5t-9.5 17.5q4 10 1 19.5t-1 15.5q8 20 23.5 34.5t26.5 29.5q4 6 10 10t10 10l10 8q4 2 6 6.5t7 6.5q4 2 9 7l9 9q10 12 22.5 18.5t22.5 16.5q10 8 22.5 15t22.5 18q6 0 8 3t6 7h4 q16 12 34 21.5t38 21.5q80 49 184 71q41 10 82 12.5t78 -14.5q16 -8 29.5 -15t23.5 -23q2 -8 11 -13q23 -37 18 -102q0 -16 -2 -32.5t-6 -33.5q0 -12 -2 -16q-8 -29 -18.5 -63.5t-22.5 -72.5t-24.5 -74t-24.5 -65l-27 -65q-4 -16 -10 -31.5t-12 -32.5q-33 -84 -66 -179 t-63.5 -189t-59 -182.5t-49.5 -157.5q2 0 7 4t11.5 10t10.5 11.5t6 7.5q4 2 19.5 20.5t34 38.5t33.5 37.5t19 21.5l17 19q18 20 34.5 38.5t32.5 39.5q14 14 27.5 29.5t24.5 33.5q10 10 19 19.5t13 17.5q10 6 19 20q2 0 2 1.5t2 1.5l211 264q47 53 96 110.5t96 110.5 q23 29 47.5 54.5t49.5 53.5q27 29 50 54.5t48 48.5l29 31q33 35 70.5 67.5t74.5 69.5q20 14 43 39q4 2 9 5t11 7q10 6 18.5 14.5t18.5 12.5l31 16q8 -4 10 -1t8 -5q2 0 3.5 2t3.5 2q0 -4 -2 -4t-5 -4q4 -4 8.5 1t10.5 3q-4 -8 -4 -12q0 -9 8 -9z" />
<glyph unicode="W" horiz-adv-x="1474" d="M1817 1214l4 -2q0 -2 1 0t3 0q2 -6 6 -4v-6h6q-4 -2 1 -8t3 -10q4 0 2 -2q2 -2 2 0t2 2v-2l-4 -23l-18 -39q-2 -2 6 2l-9 -12l-7.5 -10t-10.5 -15.5t-16 -27.5q-37 -49 -63.5 -88t-51 -77t-51.5 -79t-59 -94q-10 -20 -24.5 -37.5t-25.5 -34.5l-30 -55q-4 -4 -5 -8t-5 -9 l-31 -49q-4 -12 -10 -18q-2 -4 -9 -8l-24 -43l-35 -58q-18 -18 -35 -51q-41 -66 -87 -130t-97 -124q-27 -33 -58.5 -67.5t-64.5 -65.5l-45 -37q-12 -6 -25.5 -18t-25.5 -19q-16 -16 -38 -24t-46 -15l-37 -4q-23 2 -46.5 6.5t-33.5 18.5q-23 8 -34 28.5t-19 43.5q-8 8 -8 14 q-4 4 -4.5 14.5t-2.5 20.5q-2 12 -3 23.5t-1 21.5q-2 70 8.5 137.5t26.5 124.5q-16 -18 -29.5 -39.5t-29.5 -42.5q-41 -51 -76 -104.5t-80 -100.5q-8 -10 -13 -15t-11 -15q0 -2 -3 -5q-2 -2 -4 -2q-10 -12 -22 -24l-23 -23q-31 -35 -58.5 -47t-55.5 -31q-10 -6 -42 -10 t-51 -6q-2 0 -6 2t-8 2q-23 4 -45 15.5t-33 27.5q-6 16 -13 33.5t-11 40.5q-4 47 4 102.5t22 102.5q23 86 62 164.5t74 150.5l12 23q2 8 8 20q-2 4 0 6t2 4q8 4 8 9q6 10 8 12q4 12 8.5 20t8.5 19q14 25 28.5 49t28.5 47q6 16 15.5 28.5t13.5 22.5q27 51 56.5 96t58.5 93 l12 18q29 43 45 68.5t37 58.5q23 39 36 79t9 85q-4 18 -25 24q-10 6 -14 3t-19 -1q-6 -2 -7 -2t-5 5q-2 0 -2 -1.5t-2 -1.5q-2 -2 -4 -2q-49 -8 -86 -26.5t-80 -40.5q-37 -20 -70.5 -47t-68.5 -56q-66 -55 -111 -117.5t-100 -140.5q-10 -2 -13.5 -9t-13.5 -7q-2 2 0 2 q-2 0 -3 -2t-5 -4l-43 8q-2 2 0 8t-2 8q-8 0 -7 -2t-5 -4q2 4 0 4q0 4 3 5.5t-1 5.5q-2 2 -1 -2t-3 -2q0 8 -4.5 10t0.5 6q2 0 -5 6v2q4 6 5 6l2 4q0 2 -1 -1t-6 1q4 20 13.5 30.5t15.5 17.5q-2 0 -2 2l-2 2q8 12 25.5 35.5t36 47t36 44t23.5 28.5q2 4 24.5 26.5t51 49.5 t55.5 48.5t33 25.5q18 14 36.5 27.5t38.5 21.5q23 14 40.5 25.5t39.5 15.5q10 6 24.5 12t16.5 4l2 2h8.5t8.5 2q12 4 16 4q27 10 56.5 13.5t60.5 3.5h10q35 2 51.5 -6.5t34.5 -12.5q6 -4 12.5 -6t12.5 -8q4 -6 10 -10t8 -8q4 -4 7 -11.5t10 -9.5q16 -23 15 -36t3 -27v-11 q0 -4 -2 -5t-2 -5q-2 -4 -1 -6t1 -6l-6 -25q0 -6 -3 -12l-5 -10q-12 -39 -40 -94.5t-61 -111.5t-64.5 -107.5t-50.5 -84.5q-6 -20 -23 -42.5t-28 -43.5q-16 -20 -24 -39.5t-23 -41.5q-47 -90 -95 -181.5t-89 -197.5q-10 -27 -21.5 -63t-18.5 -71.5t-6 -64.5t15 -41 q8 -4 35 -3t74 42q20 18 42.5 41.5t39.5 46.5q66 78 125 157t122 156l23 29q2 6 8 12q23 23 39 50.5t35 48.5l45 55q8 12 13 20.5t16 18.5q4 4 4 8t4 8q2 4 5 6t5 7q6 12 16.5 23t14.5 26q6 8 10 13t8 15q2 6 7 12.5t10 16.5q10 10 18 20.5t23 16.5q4 2 2 4h6l28 -10 q6 -8 5 -13.5t4 -9.5q0 -2 6 -2t8 -4t3 -13t5 -14q4 -14 2 -30.5t-10 -24.5q-4 0 -22.5 -31.5t-43 -73.5t-47 -83t-33.5 -58l-10 -28q-12 -23 -25.5 -55.5t-25.5 -67.5t-21.5 -66.5t-11.5 -52.5q-2 -23 -6 -45.5t-4 -44.5q-2 -25 7 -58.5t26 -41.5q4 -4 11 -6.5t11 -2.5 q27 0 41.5 9.5t30.5 19.5q16 12 44 35.5t34 42.5q4 2 7 6t7 6q6 4 9 9t8 12l14 14q29 33 53.5 66.5t52.5 68.5q33 41 65 88t60 94q33 47 66 99.5t61 97.5q14 25 29.5 50.5t34.5 47.5q14 25 29.5 48.5t29.5 52.5l4 4q18 35 32.5 57.5t29 44t29 44t36.5 57.5q10 10 18.5 22 t14.5 23q20 29 46 68.5t48 60.5q6 -4 9.5 2t19.5 18q0 -2 -2 -4q4 0 2 3t2 1q0 -2 2 -2q-2 0 -2 1t2 1v-2q2 0 3 -1t-1 -1l-2 2v-4q2 0 5 1t-1 -3q4 2 8 -4t11 -4q0 -2 2 -4v-7v0z" />
<glyph unicode="X" horiz-adv-x="1052" d="M817 47q4 -10 12.5 -17t10.5 -16q18 -23 30.5 -54.5t32.5 -55.5q-2 0 -2 1t-2 1l6 -21q-2 -4 -3 -1t-3 3q0 -6 2 -7t2 -5q-2 0 -8 -2q-4 -2 -1 -2t3 -2l-8 -2q-4 -4 -8 -4q-2 -2 -1 -7.5t1 -9.5h-7v-2q-8 2 -17 -4t-15 0q0 -4 -2 -3t-4 -3q-23 16 -41.5 34.5t-30.5 47.5 q0 4 -2 6v-2q-12 10 -23 41q-2 2 -6 7t-4 3q0 4 -2 7.5t-4 7.5q0 2 1 1t-1 3q-6 20 -14.5 32.5t-14.5 32.5v-2q-6 0 0 6q0 2 -1 1t-1 1q-10 23 -17 41.5t-11 38.5l2 -2q0 6 2 11q-2 0 -2 -3q-8 12 -9 25h-2v-2q-12 37 -21 78t-13 86q-6 41 -9.5 76.5t-3.5 76.5 q-16 -14 -32.5 -29.5t-32.5 -31.5l-31 -29q-6 -2 -7 -6t-5 -10q-2 -2 -7.5 -4t-9.5 -8q-4 0 -14 -11q-18 -20 -42 -42.5t-44 -45.5l-4 -2q-27 -27 -53.5 -56.5t-53.5 -57.5q2 2 1 -1t-3 -1q-12 -12 -14 -13q0 -8 -6 -10h4q-2 -4 -5 -6t-7 -6q-2 0 0 2t-2 0q-4 -4 0 -2 q-20 -27 -41 -50.5t-43.5 -49t-47 -56.5t-51.5 -72l-4 -2q-2 -8 -3 -6t-1 -8q-4 -2 -4 -1t-2 1q-8 -10 -16.5 -20.5t-22.5 -20.5l2 2q-6 -4 -10 -2t-8 -4q2 0 1 -1t-3 -1h-4q4 2 4 4t-4 2q-2 0 -4.5 -3t-6.5 -7q-4 0 -4 4t-4 0q-4 4 -8 4q-4 2 -2 2t2 2q-6 0 -8 4t-6 4 q2 4 1 5t1 8q-14 0 -9 10q-2 4 -10 4q2 4 4 9t-2 11q0 2 1 4.5t1 4.5q8 23 24.5 42t29.5 35l86 107q10 12 23 26.5t24 28.5l61 68q12 16 26.5 32.5t28.5 30.5q20 27 45 51.5t50 47.5q6 4 11 11t11 11q4 6 8 10l9 9q41 37 77.5 72.5t77.5 70.5q6 4 10 10q20 16 41 34.5 t37 37.5q0 66 10.5 131t14.5 129q2 10 2 23.5t4 23.5q10 35 12 54.5t6 43.5q4 33 9.5 75t5.5 71q0 20 -3 32.5t-10 22.5q-12 16 -37.5 23.5t-50.5 7.5h-29.5t-21.5 -1t-20.5 -4t-28.5 -10q-10 -4 -22.5 -8t-22.5 -6q-2 0 -4 -1t2 -1q-10 -4 -23.5 -11t-23.5 -16q-4 4 -4 5 q0 -4 -2 -3.5t-2 -3.5q-4 0 -4 -2q-41 -29 -80 -58.5t-78 -59.5q-2 -4 -5 -4.5t-3 -4.5q-8 -8 -24.5 -21t-27.5 -28q-23 -14 -41 -33q-12 -12 -18 -10t-22 2q-10 0 -6.5 1t-4.5 5q-2 4 -3 7.5t-7 7.5q4 4 -4 13t-8 13q-10 10 0 31t18 25q0 2 7.5 9t7.5 9q14 10 17 13t11 14 l35 35q4 0 5 3t5 3q20 23 50 42t57 35q14 10 29.5 19.5t31.5 17.5l8 4q16 10 30.5 15.5t31.5 15.5l22 8l31 13q4 6 16 6q8 2 10 3l3 1h1t9 2q29 4 56.5 9t58.5 3q25 2 54.5 -3t55.5 -13q27 -20 48.5 -44t33.5 -61q10 -27 10 -57.5t-2 -65.5q-2 -49 -12 -95t-16 -93 q-10 -37 -15.5 -76t-11.5 -80q0 -12 -1 -26.5t-1 -28.5q29 27 58.5 51.5t56.5 46.5q16 6 28.5 17.5t28.5 21.5l33 31q63 47 123.5 99.5t126.5 99.5l20 22q10 4 20.5 10.5t16.5 20.5q12 2 19.5 9t19.5 11q2 -4 -1 -4t-3 -4q4 0 8 -2q6 10 16.5 8t16.5 -6q2 -4 3 -8t5 -2 q10 -6 16.5 -22.5t1.5 -38.5q-2 -10 -10 -12.5t-10 -12.5q-4 -10 -11 -12t-14 -11l-16 -16t-16 -10q-57 -39 -111.5 -89t-112.5 -91q-10 -6 -19 -14.5t-20 -16.5q-29 -18 -56 -41t-56 -45q-16 -16 -35.5 -31.5t-40.5 -30.5l-33 -26q-8 -4 -16 -12.5t-21 -18.5l-28 -24 q4 -74 6 -142.5t18 -132.5q6 -51 21.5 -99t27.5 -89q2 -4 3 -4q2 -2 -0.5 -1t0.5 -4l20 -47q10 -6 12 -16q-2 2 -3 1t-3 3zM823 43l2 -2zM764 -90q-2 0 0 2v-2z" />
<glyph unicode="Y" horiz-adv-x="776" d="M893 -121l2 -2q2 -2 -1 -1t1 -1v2q2 0 2 -2q2 -2 -2 -2q-2 0 -4 2q-2 0 -4 2q0 -2 1 -3t1 -3q-2 0 5 -1t3 -1q0 -2 2 -1t0 -1q-4 -2 -1 -3t-1 -1q0 -4 -1 -2t-1 0q-6 0 -4 0t-6 -4q4 0 6 -1t6 -1q-2 -4 0 -4.5t-2 -0.5q0 -2 -8 -2q2 0 2 1t2 1q-6 -2 -10 -1t-9 -1h11 l-2 -2q0 -4 3 -2t3 0q-10 -4 -21.5 -4h-21.5q10 -4 23.5 -1t27.5 -5h-37q6 -2 16 -2q-4 -4 -9 -2t-13 0q4 -10 12 -7t13 -1q-10 -4 -20.5 -4h-20.5q4 -2 8 -1t8 -1q-104 -4 -214 -15.5t-208 -36.5l-68 -170q-10 -29 -24 -57.5t-25 -56.5q-4 -10 -8 -19.5t-10 -19.5 q-33 -78 -76 -151.5t-86 -139.5q-8 -10 -12 -19.5t-12 -17.5q-6 0 -7 -6h2v-2l-2 2q0 -2 -1 -2t-1 -2v-4q-2 -2 -2 1t2 3q-10 0 -8 -7t-2 -11v-5q-4 -4 -4 -8t-4 -4q-8 -10 -16.5 -20.5t-14.5 -20.5q-8 -2 -14 -8q-2 -2 -1 -4t-1 -4q-6 -12 -20.5 -20.5t-18.5 -24.5 q-16 -18 -31.5 -29.5t-25.5 -26.5q-2 0 -2 -1t-5 -1q-6 -6 -6 -8q-8 -2 -12 -6l-8 -8q-8 -4 -16.5 -9t-10.5 -12q-14 -12 -30.5 -18t-34.5 -10l-7 -4l5 4q-2 -2 -4.5 -2t-6.5 -2h6q-23 -6 -49 -9.5t-49 0.5q-35 0 -57.5 9.5t-46.5 25.5l-17 15q-57 72 -47 184q6 47 15.5 92 t25.5 82l12 37l17 37l35 63q23 37 47 71t51 64q-2 0 2 7q4 6 14.5 13t14.5 13l2 4q18 14 31.5 28.5t29.5 24.5q4 10 10.5 13.5t14.5 7.5q12 18 41.5 37.5t46.5 28.5q-8 -2 1 2t13 8l12 8q-4 -4 -4 -8l9 8h-5l37 20h6q0 2 3 2q4 6 13 8.5t15 6.5h-2q4 4 7 4t7 2l29 10 q6 2 14.5 7t16.5 8h-6q10 10 23.5 14t23.5 10l2 2l22 4v2q-2 0 9.5 3t26 7.5t28.5 10.5t18 10q0 -4 -2 -4q10 4 21.5 5t19.5 5v-2l37 12q47 121 90 251t94 253q-8 -10 -15 -19t-15 -24l-31 -35q-4 -14 -13.5 -24t-17.5 -19l-37 -41q-4 -6 -9 -12t-13 -14q-8 -4 -14.5 -9.5 t-10.5 -13.5q-4 -4 -4 -7t-4 -5q-10 -10 -22.5 -17.5t-22.5 -19.5q-18 -20 -40.5 -31.5t-45.5 -27.5l-55 -21q-23 -10 -46.5 -16t-52.5 -2q-6 0 -3 2t-3 0q-35 4 -67.5 17.5t-55.5 35.5l-4 8t-2 8l-8 7l-6 20q-4 18 -11 42t-5 44q-6 10 -5.5 26.5t5.5 33.5q2 35 12 63 q6 61 22.5 115.5t38.5 103.5q8 12 8 17q23 57 47.5 109t47.5 101q2 0 2 2.5t2 2.5l10 22q16 29 28.5 52.5t35.5 70.5q8 16 15 33.5t17 34.5q10 29 21.5 56.5t21.5 55.5q4 6 9.5 19.5t9.5 23.5t7 19.5t5 17.5q6 18 14.5 43t18.5 43q8 25 22.5 32t29.5 4t28.5 -13.5 t19.5 -16.5q4 -4 5 -8t3 -4q2 -8 5.5 -16.5t7.5 -14.5q2 -23 -4.5 -31t-10.5 -28q-4 -12 -6 -20.5t-6 -22.5q-8 -29 -18.5 -48.5t-20.5 -41.5q-20 -55 -44 -102.5t-46 -94.5l2 -2l-8 -6v-6q-6 -10 -10.5 -20.5t-14.5 -18.5q0 -10 -8 -23q-23 -37 -41 -72.5t-35 -74.5 q-20 -43 -39.5 -87t-36.5 -91q-16 -45 -28 -95.5t-17 -103.5q-6 -43 3.5 -82t50.5 -43q14 -8 31.5 0t33.5 16l25 15l14 8q14 12 30.5 24.5t31.5 22.5q27 25 53 50.5t51 54.5q8 14 18.5 25t20.5 28q125 145 225 317q33 51 60.5 95.5t62.5 109.5q8 14 19.5 32.5t23.5 35.5 q6 10 10 20t11 25q4 0 4 6t4 8q2 8 5 15.5t3 17.5l4 2h4q18 33 28.5 54.5t16.5 36.5t12.5 27.5t14.5 26.5q2 10 7 14.5t9 14.5q8 18 23.5 24.5t31 5.5t28.5 -11.5t20 -24.5q4 -12 8 -18.5t4 -20.5q6 -39 -18.5 -72t-40.5 -76q-8 -8 -11 -16q-25 -47 -50.5 -98t-47.5 -101 q-4 -8 -6 -8q-6 -27 -29 -49q4 -2 2 -2t-2 -2q-6 -6 -9 -17.5t-11 -21.5q-2 -8 -11 -25q-10 -23 -22 -42t-21 -48l-77 -180l-15 -39q-14 -31 -24.5 -60.5t-26.5 -64.5l-57 -147q-4 -14 -8.5 -31.5t-10.5 -28.5q-10 -33 -22.5 -72.5t-26.5 -76.5q94 14 200.5 28.5t198.5 -1.5 h-2q4 -2 3 -4.5t8 -2.5q-8 -4 -6 -4q2 -4 6 -4t8 -2h-2l2 -2v2h2zM-174 -547q-2 -2 -2 -4l-21 -31q-20 -27 -36.5 -49t-30.5 -47q-20 -35 -41 -72.5t-31 -78.5q-4 -4 -4 -9.5t-4 -9.5l-6 -35q-2 -14 -6 -29.5t0 -31.5q-4 -2 -3 -7t3 -7q-2 -29 3 -56.5t17 -44.5 q8 -4 12.5 -6t14.5 -4q12 -2 28.5 -4t26.5 2l14 6q31 10 51.5 20.5t43.5 30.5q45 35 85 77t74 89q16 25 31.5 48.5t26.5 45.5l10 17q8 12 13 24.5t14 20.5q-2 4 -3.5 2t-1.5 0q57 98 104.5 200.5t90.5 219.5q-100 -31 -181 -70t-153 -92l-86 -64v-4q-4 2 -4 -2t-4 -4v2 l-37 -33l6 5q-4 -4 -7 -7.5t-7 -7.5zM868 -152q-4 2 -13 2t-13 -2q4 0 11 -1t15 1zM852 -156h6t6 2h-6t-6 -2zM856 -166q-6 0 -6 -2q6 0 6 2zM879 -154q-4 0 -5 -2h5v2zM104 -893q0 4 5 4zM270 -170l2 2zM193 -203h-3h3z" />
<glyph unicode="Z" horiz-adv-x="950" d="M399 1075q-23 -16 -51.5 -17t-40.5 9q-23 16 -40 31.5t-5 42.5l12 10q8 10 34 21.5t34 17.5h2h4l21 12q14 4 49 21.5t61 23.5l23 8q23 10 42 14.5t38 8.5q39 8 67.5 14t65.5 11q53 6 105 12t106 10q10 -4 20 -4h25l43 -4q10 0 14 -2q4 0 7 -1t5 -1l45 -13 q29 -16 57.5 -39.5t28.5 -72.5q0 -14 -13 -37t-29.5 -45.5t-35 -42t-26.5 -29.5q-12 -10 -21.5 -19t-19.5 -20l-45 -39q-45 -41 -86 -83t-104 -105q-20 -20 -36 -36.5t-38 -33.5q-23 -18 -35 -30.5t-23.5 -24.5t-24.5 -25.5t-34 -35.5l-156 -168q-18 -20 -27 -29.5 t-16.5 -19t-17.5 -20.5t-29 -36q-16 -23 -36.5 -45t-38.5 -45q-12 -14 -27.5 -35.5t-40.5 -54.5q-29 -41 -56.5 -87t-48.5 -99q-4 -4 -4 -7.5t-2 -7.5l-6 -12q-4 -12 -6 -27.5t-2 -31.5q6 -4 12 -2t15 2q61 12 129 37q20 8 31.5 11t20.5 5t19.5 5t30.5 11q10 4 21.5 7.5 t21.5 7.5l12 8q16 6 19.5 7t2.5 1t2 1t19 7q14 4 25.5 7t26.5 12l129 39q18 6 25 9t11.5 4t11.5 3t23 6h4q12 2 11.5 2t15.5 4q31 4 45 3t43 -7l10 -6q18 -6 37 -30.5t14 -41.5h5q-4 -4 -5.5 -6t-5.5 -6q-10 2 -14 -1t-12 -7q-4 0 -14.5 -2t-14.5 -4q-31 -4 -48 -7.5 t-46 -9.5q-31 -6 -41 -8t-14.5 -3t-14.5 -5t-41 -12q-8 -2 -15 -5.5t-18 -5.5q-27 -10 -53 -18t-53 -19q-4 0 -7 -1t-5 -1l-2 -2q-4 -4 -13 -6q-12 -8 -30.5 -14t-36.5 -14q-14 -4 -26.5 -9.5t-24.5 -9.5l-23 -10q-16 -10 -22.5 -8t-22.5 -6q-20 -10 -38.5 -15.5t-41.5 -9.5 q-20 -4 -40.5 -5t-41.5 -1q-4 0 -7 1t-7 3q-10 2 -23.5 5t-19.5 7t-10 10q-10 4 -20.5 7.5t-14.5 15.5q-14 14 -19 53l2 2v29q0 4 1 7t1 9q0 33 9.5 63t17.5 52q0 -8 -4 -15t-4 -18q4 4 5 12.5t5 16.5q2 10 5 16t1 15q2 0 2 -2t4 0q25 53 50.5 94t44.5 67l49 72 q29 41 63.5 84t55.5 66q23 27 37 43t28 30.5t30.5 31.5t41.5 44l149 158q90 94 175 180t171 168q16 14 28.5 27.5t29.5 25.5l34.5 34.5t22.5 41.5q-45 20 -102.5 15t-108.5 -7q-113 -14 -217.5 -41t-200.5 -86z" />
<glyph unicode="[" horiz-adv-x="675" d="M182 -231l-2 2q0 -4 -1 -8.5t1 -8.5q-2 -10 -4 -19t-6 -16v-8l-14 -55l2 -6q-4 -4 -2 -9.5t0 -9.5q10 0 24.5 3.5t28.5 5.5h14q2 0 2 1t4 1h15q4 2 14 2q14 0 24.5 1t22.5 1q16 0 35.5 2t36.5 2q4 2 11 1t15 -1q6 0 8.5 1t6.5 1q6 -2 12 -1t10 1t10.5 -1t10.5 -1 q10 2 23.5 2h27.5t28.5 -1t22.5 -5q10 -2 22.5 -1t16.5 -3q2 0 4 -2t8 -7q6 0 13 -2q4 -10 -6 -10q2 -4 7 -3t5 -3q2 0 6 -2t6 2q0 -4 -3 -5t-5 -3q6 -4 10 -6t8 -2q-2 -4 -5 -2t-5 -3q0 -4 2 -3t2 -5h-4q2 -4 3 -3t3 -1q-4 -8 -8 -8q2 -4 6 -3t4 -3t-14 -4q0 -2 2 8t2 6h-8 q-2 0 1 -1t-1 -5q-4 6 -6 0q2 -4 8 -4q-4 -2 -11.5 -2h-11.5q-2 -2 1 -4t1 -4q-4 0 -7 -1t-5 -1h-4q-4 -6 -12 -5.5t-13 -3.5q-8 -6 -28 -6q-10 0 -22.5 -2t-22.5 -2q-14 -2 -25.5 -1t-17.5 1q-14 -4 -30.5 -3t-33.5 1q-8 -2 -22 -2q-12 0 -24.5 -2t-22.5 -8l-23 -10 q-23 -4 -47.5 -6.5t-46.5 -10.5q-23 4 -33 -12q-2 0 -4 1t-4 1q-4 0 -3 -1t-1 -3q-10 0 -12 -4q-6 4 -8.5 1t-6.5 -5q-29 2 -43 10q-8 8 -10 9l-6 3l-27 64h2q-4 20 0 28.5t0 26.5q0 4 1 12t-1 15q0 18 6.5 36.5t10.5 34.5q4 23 4 43.5t2 40.5q4 10 10 25.5t6 32.5q4 2 4 1 t2 -1q-4 27 11 49l-3 10q4 -4 5.5 7t5.5 20q2 18 8 38.5t10 40.5q8 29 16.5 60t16.5 53q0 18 6 32.5t10 35.5q8 10 9.5 28.5t7.5 30.5q0 2 1 4t1 4q4 0 4 2q2 10 5 18.5t7 14.5l33 111q8 25 25.5 65.5t36 84.5t36 85t25.5 66q10 23 17 50.5t20 51.5l30 82q0 14 9 19 q6 29 19 48t22 46q10 14 14 32.5t12 34.5l4 2q8 18 17.5 37t15.5 41q6 12 11 26.5t18 24.5q-2 10 4 17.5t10 13.5q4 14 9 23.5t9 19.5q18 35 39 63.5t37 63.5q0 12 5 12t8 11q6 8 8 12t12 8q12 6 17.5 8t21.5 4l121 13q41 -4 85 3t83 3q8 0 15 1t13 1q18 -6 37 -13.5 t33 -29.5q10 -6 12 -10q0 -10 -2 -11.5t-6 -9.5q-4 2 -5 0t-3 -2q0 -6 1 -5t1 -5q-2 -2 -6 -2t-4 -2q0 -4 -3 -5t-6 -3q-10 2 -9 -7.5t-5 -13.5q0 -2 4 -3t2 -3q-4 -6 -11 -3t-13 3q-8 0 -17.5 -3t-19.5 -5q-45 -8 -93 -11.5t-89 -13.5q-2 0 -3.5 1t-5.5 1q0 -6 -11 -4 t-9 -4q-4 4 -7 2t-7 -4v2q-12 -2 -21.5 -4t-13.5 -12l2 -11q-8 6 -8 -4q0 -2 1 0t1 -2q-12 -8 -18.5 -17t-16.5 -20q0 -4 -1 -5t-1 -3q-14 -16 -22.5 -32.5t-20.5 -30.5q-4 -16 -15 -23q-6 -25 -18 -43q-2 -8 -6 -12t0 -14q-4 -2 -9 -6.5t-10 -6.5q2 -4 1 -5t4 -5h-7 q-6 -23 -15 -41t-19 -39h-2q-6 -18 -15.5 -34.5t-15.5 -34.5q2 -2 -2 -3q-8 -29 -27 -43q4 -4 3 -5t-1 -5h-6q4 -4 2 -7t-2 -7q-2 4 -3 -1t-3 -9q0 -4 1 -1t1 1q0 -4 -6 -7q-2 -6 -6 -12t-9 -16q-37 -88 -79.5 -196.5t-84.5 -225.5t-80 -233.5t-65 -217.5l-2 4l-2 -8 q0 -2 1 0t1 0q2 -4 -6 -4q2 -4 3 -4t3 -2q-8 -25 -14 -47.5t-10 -46.5q-2 -2 -2 6q-2 -6 -1 -13.5t-6 -9.5l-2 -16h2q-4 -8 -4 -10q0 6 -2 8q0 -4 -2 -7t2 -5v-6zM182 -238v5v-5z" />
<glyph unicode="\" horiz-adv-x="1060" d="M877 -291q-2 -2 4 -12q-6 0 -9.5 7t-9.5 11q-4 4 -5 10.5t-5 8.5q-4 -4 -1 -6t1 -7q-53 121 -104.5 240t-110.5 229l-4 -4q-4 4 -3 11.5t-1 13.5l-27 55l-51 105l-70 121q-23 41 -44 78.5t-48 78.5q-12 16 -18 35q-25 41 -54.5 80t-54.5 82l-55 86q-25 31 -46.5 65.5 t-45.5 65.5l-90 139q-2 12 -12.5 22.5t-14.5 22.5q-6 8 -13.5 20.5t-15.5 22.5q-6 6 -14 23q-10 10 -16.5 20t-14.5 25q-6 4 -9 12t-7 19q-8 16 -20.5 34.5t-8.5 46.5l17 35q4 2 6 5t8 8q8 4 10 12q6 0 8 -2t6 -2q4 -2 2 2t1 2q10 0 16 -6t18 -4l6 -15q12 -8 27 -32 q18 -23 32.5 -45.5t35.5 -45.5q59 -98 118.5 -193t124.5 -188q92 -137 181 -290q45 -72 86 -148t84 -153q10 -27 22 -50.5t25 -46.5q63 -119 119.5 -242.5t109.5 -254.5q2 -12 6 -29.5t10 -32.5q0 -4 -3 1t-7 1q-2 -6 3 -11t1 -11q-4 2 -4 5t-2 5q-6 -8 0 -17.5t10 -17.5 q0 -10 -5 -17t-3 -14q-4 2 -4 -1t-2 1q0 -6 -5 -6t-9 -4q-14 10 -17 21q-4 -2 -3 -3t1 -3q-4 0 -8 10q0 -2 -1 -2t-1 -2l-2 6v-2q-6 4 -8 9t-4 9q-2 -4 0 -9t4 -11q-4 2 -4 9t-4 11q-2 0 0 -5t0 -1q-4 -4 -4 2v2zM895 -299q-2 -2 0 -4v4z" />
<glyph unicode="]" horiz-adv-x="870" d="M33 -45l-2 -2q14 47 28.5 92t28.5 92q4 0 8 4h4q2 6 3 10.5t1 10.5v2l5 4q4 8 5 17.5t5 19.5v6h6q-2 0 -2 1t-2 1h-2q16 51 35.5 99t31.5 98l31 82l55 145l72 174q12 16 23 39q2 10 4 20.5t12 20.5q10 35 28.5 65.5t32.5 69.5q23 41 42.5 85t45.5 79q29 51 64 92t61 92 q-10 0 -22 -1t-23 -1h-17t-13 -2q-4 0 -5.5 -1t-5.5 1q-10 0 -18 -1t-12 -5q-6 4 -16.5 3t-14.5 -5q-23 0 -42 -5t-40 7q-4 6 -9 10t-11 8q-10 20 -17 54q4 6 5 13t3 11l15 8q0 8 2 9q4 6 8 4t8 2q4 0 6 1t6 1q4 2 10.5 2h12.5q12 2 22.5 2h20.5q66 2 140.5 6t140.5 -2 q4 -2 10 -2t10 -2q6 -2 16 -2q0 -4 -3 -7l-5 -5q6 -4 9 -3t8 -4q2 -2 0 -4h-2q2 -4 12 -4q-2 -4 2 -18l-2 -2q4 -4 7 -6t-3 -7q10 0 10 -2q-4 0 -5 -2t-9 -2q0 -6 2 -6h2q4 -2 2 -2t-4 -2q10 -10 5 -20.5t-3 -20.5l-37 -49q-2 -2 -1 -4t-1 -2l-6 -4l-14 -21l-13 -16 q-4 -4 -4 -7t-2 -7q-4 -4 -9 -9.5t-9 -9.5l-21 -29q-6 -6 -10 -13t-10 -11q2 -4 -1 -5t-5 -5l-2 -2q-4 -10 -12.5 -16.5t-12.5 -16.5l-18 -29q-29 -41 -50.5 -86t-48.5 -92q-2 0 -2 -2q-10 -16 -17 -35.5t-22 -36.5l-116 -272q-18 -45 -38 -92t-36 -95q-2 -4 -4 -9t-9 -11 l-8 -35q-8 -8 -8 -24q-27 -61 -48.5 -126t-43.5 -128q-4 -12 -11 -19.5t-7 -23.5q-10 -29 -20.5 -61t-16.5 -64q-4 -6 -9 -8q-16 -66 -33.5 -128.5t-29.5 -127.5q4 -4 -5 -6.5t-3 -6.5q0 -4 6 -3t4 -1q4 0 1 -2t-7 -5t-7 -5t3 -4l8 -4q2 -2 4 -2h2q6 -4 -1 -7.5t-11 -9.5 q0 -4 6 -4q0 -2 -1 -2t-1 -4v-4q-2 -2 -1 -3t-3 -1q0 -2 3 -1t7 -3q-8 0 -10 -2t-10 -2q0 -2 5 -2t5 -5q0 -2 -1 -1t-1 -1q-6 -4 -8 -2t-5 -2q0 -2 2.5 -1t2.5 -1q2 -4 0 -2t-5 2q-2 0 1.5 -2t1.5 -4q-2 0 -11 -4q-12 2 -13 -2t-11 -4t-22.5 2t-20.5 -4q-2 0 -2 2 q-14 0 -24.5 3t-33.5 -1q-4 0 -7 -1t-7 -1q-12 -2 -20 0q-31 -4 -73 -12.5t-75 -18.5q0 4 -2 4q-4 6 -1 8t1 7q-4 4 -10 1t-17 -3q-4 8 -11 13t-9 19q-2 0 -3 2t-5 -2q-4 23 3 40.5t17 27.5q0 10 12.5 9t22.5 1l70 14l73 7q16 0 31.5 2t34.5 2v2q0 2 2 4v-6q4 2 4 7t2 13 l25 105l12 41q10 37 20.5 69.5t14.5 69.5v4zM33 -49q-4 -12 -7 -29.5t-10 -27.5l15 59zM-35 -295q0 -4 -4 -20zM100 147q0 -2 -4 -6q0 4 2 4t2 2zM-41 -319q0 -6 -2 -11zM41 -35q0 2 1 2t1 2q-2 0 -3 -2t1 -2z" />
<glyph unicode="^" horiz-adv-x="833" d="M727 766q-6 -4 -6 -12.5t2 -12.5q-2 0 -1 1t-1 1q-2 -2 -2 -8h-6q0 -4 -2 -8t-6 -2v-2l-5 8q-2 -4 -2 -8q-4 2 -4 5t-2 -1q0 -4 3 -7t3 -7q-4 2 -5 6t-5 6q-4 -4 -1 -5t1 -5q-4 6 -9 9t-9 7v-6h-2q0 -2 2 -4q-4 2 -8 10q-2 4 -2.5 -1t-4.5 -3q-6 10 -4 10h-2l-8 8 q-10 20 -27 37q-4 10 -14 20.5t-14 26.5q-2 0 -2 1t-2 1q-23 51 -40.5 106.5t-35.5 115.5q-14 -25 -30.5 -47.5t-29.5 -47.5q-29 -35 -54 -67.5t-54 -65.5q-20 -23 -37.5 -46t-40.5 -44q-4 0 -6 -4t-4 -4q-10 0 -14 -4q-8 0 -16.5 2t-16.5 0q-4 12 -8.5 12t-6.5 8 q-2 2 -6 2.5t-4 4.5q2 14 -2 29.5t6 25.5q0 6 -1 4t-3 4h4q8 8 13.5 15.5t11.5 15.5q10 8 15 18t14 17q2 0 2 4q2 4 7 8t5 12q20 25 37.5 47.5t38.5 44.5l20 25l37 49l35 55l10 15q12 14 21.5 31.5t19.5 31.5l12 21q4 2 6 5t7 3q2 10 4 22.5t6 22.5q14 23 33 27 q12 8 25 -0.5t24 -10.5q0 -10 8 -12t12 -10q4 -6 2 -16.5t2 -20.5q0 -2 1 -2t1 -4q4 -37 7.5 -71t9.5 -71q8 -47 21.5 -95t29.5 -91q4 -8 7 -15t5 -16q4 -6 6 -14t4 -14q10 -16 11 -27q4 -6 3 -10t5 -8q0 -2 -2 0q2 -8 3 -14.5t5 -16.5zM666 727q0 -2 2 -2q-2 0 -2 2z" />
<glyph unicode="_" horiz-adv-x="770" d="M723 -113q-2 -2 -6 -2q-4 -4 0 -9t2 -9q-2 -2 -6 0t-4 -2t2 -5t2 -3q0 -4 -3 -5.5t-3 -5.5q-2 2 -2 0t-5 0q-6 -6 -14 -8t-14 -6q-20 4 -35 4q-4 0 -5 -1t-5 -1q-10 0 -17.5 2t-17.5 2q-123 8 -204 3t-136 -5q-8 0 -15.5 -2t-15.5 -2h-12q-4 0 -8 -2t-8 -2 q-8 -2 -13.5 -1t-11.5 -3q-14 2 -22.5 -1t-18.5 -5q-16 0 -18 -2q-4 2 -11.5 -1t-13.5 -1q-4 0 -7 2t-7 0l-11 6q-23 2 -32 14q0 8 -4.5 10t-8.5 7q0 4 6 10q2 8 0 14t0 10t9.5 11.5t9.5 11.5v6q2 4 6 5t6 5q20 4 43 5t47 8h2q94 8 153.5 14t111 7t107.5 -4t142 -19 q0 -4 -3 -2t-3 -3q10 -6 21.5 -7t21.5 -5q0 -2 -2 -1t-4 -1q0 -8 5 -7t9 -1t5.5 -6t5.5 -4v-4q0 -4 4 -4.5t6 -4.5z" />
<glyph unicode="`" horiz-adv-x="555" d="M399 1108l9 -14q-2 -4 2 -5.5t2 -3.5h-4q4 -4 5 -6t5 -6q-2 -4 -3 -2t-1 0q6 -8 4 -8q0 -4 -1 -2t-1 -2q2 -2 2 -6l-15 -11q2 -4 8.5 -4t8.5 -6q-4 2 -12.5 4t-12.5 -2q4 -4 7.5 -4t9.5 -4q-10 -4 -17.5 2t-13.5 4q2 -2 5 -2t1 -4t-4 -1t-2 -1q-23 4 -27 2q-23 12 -31 14 t-10 4q-39 27 -53 37.5t-20.5 15.5t-12.5 9t-30 22q0 2 -2 1t-5 1q2 2 -2 7q-23 25 -35 36t-28 37q2 6 -1 8.5t-5 6.5q2 16 3 32.5t17 32.5q4 0 4 1t4 3q4 0 0 -3t0 -1l5 4l20 -4q4 -8 7 -8h7l17 -14l39 -37q8 -6 30.5 -23.5t47 -38t47 -37t32.5 -22.5v-2z" />
<glyph unicode="a" d="M764 451l2 -5v-4q4 2 7 4.5t7 4.5q2 2 1 -3.5t1 -5.5t4 3.5t2 0.5q0 -2 3 -4h4h6q2 -2 2 -8v-8q0 -6 -2 -12t-4 -13q-4 -10 -9.5 -19t-7.5 -20q-10 -29 -28 -55l-25 -37q-14 -16 -18 -26q-35 -57 -79 -100.5t-98 -90.5q-4 -2 -16 -11t-16 -9q-4 -4 -14.5 -8.5t-20.5 -8.5 q-8 -8 -8 -5t-21 -1q-12 -4 -29.5 -2t-27.5 2q-2 4 -12.5 4t-12.5 2q-4 2 -8 5.5t-8 5.5q-10 8 -17.5 31.5t-11.5 39.5q-2 12 -1 25.5t-1 21.5q-10 -6 -17 -14t-16 -18l-32 -29l-62 -49q-23 -16 -44 -31.5t-50 -28.5q-16 -2 -37.5 -7t-32.5 3q-4 0 -10 1t-10 1l-49 23 q-6 6 -10.5 15t-8.5 24q-6 10 -12 22.5t-2 32.5q2 18 4 34.5t6 27.5q2 6 2 13t4 11q8 27 16.5 45.5t22.5 46.5l21 43q4 20 16 27q10 23 23.5 39t25.5 37q2 0 3 2t3 2q4 16 16.5 26.5t20.5 22.5q2 2 6 2q14 25 33 39t37 29q35 33 80 51q4 8 14.5 10t22.5 10q16 6 29.5 6h25.5 h14.5t16.5 -4q-2 2 4 0t14 -5t16.5 -6t12.5 -3l12 -14q10 -10 16.5 -17.5t14.5 -34.5q16 23 24.5 33t26.5 33q10 14 16.5 15t24.5 1q6 0 12.5 -8t14.5 -12q16 -8 17 -31.5t-7 -40.5q-2 -4 -6 -8t-4 -8q-2 -6 -11 -15l-2 -2v-2q0 -2 -2 -4q-6 -8 -5 -11t-3 -7t-6 -8t-4 -11 l-14 -16q-4 -8 -8.5 -17.5t-8.5 -13.5q-4 -12 -9 -17l-9 -9t-8 -21q-6 -4 -8.5 -13t-12.5 -18q-16 -41 -30.5 -85t-12.5 -103q4 -10 13.5 -9t5.5 -1q20 14 29 19t16.5 8.5t16.5 11.5t28 30l26 25q43 43 77 89t69 97q4 8 14 19l6 8l12 14q4 4 7 4zM53 68q53 29 99.5 68.5 t86.5 84.5t74.5 92t67.5 90q18 53 21.5 75t-13.5 40q-8 8 -18.5 8t-18.5 -2l-37 -20q-43 -31 -73 -66q-35 -33 -52.5 -58.5t-23.5 -31.5q-12 -16 -25.5 -34.5t-23.5 -34.5q-14 -20 -25.5 -41t-21.5 -43l-21 -43q-10 -20 -10 -37v-35q16 -4 9 -7t5 -5z" />
<glyph unicode="b" horiz-adv-x="696" d="M-8 2q-23 16 -28 27.5t-15 46.5v10q0 4 -1 3t-1 1v18.5t2 18.5q0 4 -1 1t-1 1q2 27 2 41t10 35l4 -2q0 4 1 5t-1 5q8 16 11 30.5t8 30.5q8 14 14 32t16 32q16 45 35 81t35 75q12 23 18 37t12.5 25t13.5 24.5t19 31.5q0 4 7 11l12 26q0 2 2 2q0 4 1 4t1 4q6 4 8 12.5 t8 8.5q0 4 2 5t0 7q2 10 7.5 16.5t7.5 16.5q4 2 4 5t4 3q10 23 25.5 43.5t25.5 42.5q2 2 4 2q0 10 7.5 16.5t9.5 14.5q4 -4 6 0t4 4q2 2 0 6q16 31 34.5 50.5t41.5 54.5q4 -2 5 4t3 12q8 -4 14 8.5t10 20.5l2 2v-2q6 2 11.5 6t11.5 6h4q10 12 26.5 4t27 -24.5t11.5 -36 t-18 -27.5q0 -2 4 0t8 0t-4 -4t-4 -2q0 -4 -2 -5t-2 -5q-41 -66 -77 -120t-76 -124q-16 -29 -31 -52.5t-29 -48t-28.5 -54t-32.5 -66.5q10 8 11 9t13 7q14 10 26.5 18.5t29.5 20.5q55 45 127 61q33 2 57 0q25 0 41 -10t31 -26q8 -10 13 -12.5t11 -12.5q18 -39 14 -102 q-2 -12 -7 -31t-9 -35q-6 -16 -13 -28.5t-14 -28.5q-4 -4 -7 -9.5t-5 -11.5q-6 -4 -9 -11t-7 -13q-23 -33 -44.5 -62.5t-43.5 -58.5q-16 -14 -18.5 -18.5t-16.5 -20.5q39 20 60.5 32.5t38 24t37 27.5t61.5 45q35 29 57 53q12 14 31.5 38t35.5 36q8 8 13 16q2 4 4 4 q4 4 18.5 17.5t16.5 19.5h4q4 4 3 1t1 3q4 -4 3 0.5t1 -0.5q14 2 20.5 9.5t-0.5 -7.5q0 -2 7 5q4 -2 3 -3.5t1 -5.5q2 2 4 0t4 -2q0 -4 -4 -2t-4 -2q6 -4 6 -5t4 -1q0 -4 -1 -5t-1 -5q0 2 6 -4q-4 -10 -5 -13.5t-5 -9.5q2 -4 -6.5 -12t-12.5 -23q-2 -6 -10 -15t-17.5 -19.5 t-16.5 -19.5t-7 -15q-2 0 -6 -4t-6 -2q0 -2 -1 -4.5t-1 -4.5q-16 -16 -34.5 -36.5t-23.5 -22.5q-23 -16 -38 -33q-4 -2 -8.5 -6t-8.5 -8q-14 -8 -14 -9t-15 -12q-23 -18 -33 -25t-19 -13.5t-22.5 -13.5t-43.5 -25l-4 -4h1t0 -1.5t-8 -3.5q-10 -4 -24 -10t-27 -10 q-25 -6 -59.5 -17.5t-63.5 -13.5q-14 0 -32.5 -5t-32.5 -5q-16 0 -28.5 -2t-24.5 2q-6 2 -15.5 0t-15.5 0q-8 4 -18.5 3t-18.5 3q-23 4 -31 10q-20 6 -30.5 12.5t-24.5 12.5q-2 0 -6 1t-2 3zM473 442q0 14 -10 20.5t-24.5 7.5t-30 -2t-27.5 -7q-41 -16 -76 -41t-63 -51 q-8 -6 -14.5 -9.5t-10.5 -11.5q-29 -31 -59.5 -69.5t-69.5 -110.5q-2 -8 -8 -17.5t-6 -13.5q-2 -10 -4 -21.5t2 -17.5q2 -4 8 -11t10 -11q4 -8 15.5 -11.5t15.5 -5.5q4 0 11 -2t18 0l73 35q61 41 108.5 95.5t88.5 117.5q10 14 18 25.5t13 23.5q0 4 3 6t3 7q4 18 12 35t4 40z " />
<glyph unicode="c" horiz-adv-x="489" d="M344 457q6 10 12 23.5t9 27.5q-2 10 -2.5 11t-4.5 7q-4 10 -16 7t-27.5 -12t-33 -21.5t-31.5 -24.5q-20 -16 -37.5 -35.5t-34.5 -42.5q-33 -41 -59.5 -94t-38.5 -115q-4 -10 -4 -15v-17q-2 -6 -2 -14.5v-16.5q8 -25 12 -34t20 -9q16 -2 18.5 -1t18.5 7q74 31 134.5 80 t115.5 96q10 10 11.5 11t-1.5 -3l9 11q16 16 25 27.5t17.5 20.5t16.5 18t23 24q6 8 7 11l1 3l2 2t8 10q2 0 9 8.5t16.5 19.5t17.5 22.5t12 15.5q2 0 1 1t3 1q4 4 7.5 7t5.5 7q4 -2 4 -3t4 5q4 -2 3 2t3 0v11q8 -8 12 -9q0 -4 1 1.5t1 0.5q4 2 5 7.5t1 -0.5q2 -2 7.5 2 t11.5 6t11 -2t3 -25q0 -8 -4 -16q0 -4 -4 -12.5t-9 -17.5t-10.5 -18.5t-7.5 -13.5q-8 -10 -11 -14t-5 -7t-4 -7t-8 -15q-4 -10 -6 -9t-13 -9l-24 -31l-6 -8q-2 0 -7 -4q-4 -10 -7 -13t-7 -8q-6 -4 -10 -10t-10 -12q-6 -10 -15.5 -16.5t-15.5 -16.5q-4 -4 -9 -8t-9 -12 q-16 -18 -22.5 -25.5t-10.5 -12.5t-12.5 -11.5t-28.5 -20.5q-35 -29 -67 -52.5t-70 -45.5q-10 -2 -21 -13q-29 -12 -56.5 -25t-58.5 -20q-35 -6 -45 -2t-20 9q-14 8 -29.5 12t-25.5 18l-17 33q-4 10 -10 22.5t-8 26.5q-6 80 18.5 151.5t48.5 121.5q25 55 70 100q4 10 9 16 t11 17q6 2 6.5 4t6.5 4q0 6 3 7t3 3q10 8 19.5 20.5t19.5 22.5q0 -2 6 4l20 17l9 6l63 43q29 14 60.5 16t60.5 -8q16 -8 20.5 -11t14.5 -12q18 -18 24 -45q12 -29 9 -65.5t-15 -65.5q-8 -16 -13 -26.5t-18 -20.5q-10 -10 -16 -17t-20 -12q-10 10 -16.5 10.5t-18.5 20.5 q2 2 0 4t-4 0q-2 4 -5.5 8.5t-0.5 8.5q4 0 4 6q0 2 1 3t-1 5l10 10v2q0 6 4 11v-2l4 8l-4 -6l4 8v-2zM324 418q-2 0 -2 -2q0 2 2 2z" />
<glyph unicode="d" horiz-adv-x="739" d="M887 463q0 -6 -1 -8t1 -6l-4 -27q-4 -8 -8.5 -13.5t-4.5 -9.5q-8 -10 -16 -18t-12 -19q-2 0 -2 -2q-2 -2 -2 -4t-2 -2l-5 -8l-18 -20l-6 -9v-2q-2 0 -4 -6q-10 -12 -14.5 -17t-7.5 -10.5t-7 -11.5t-16 -18q-12 -16 -24.5 -32.5t-26.5 -31.5l-7 -4q-4 -6 -7 -11t-13 -11 q-10 -14 -14 -17.5t-6.5 -5.5t-5.5 -5t-15 -17q-16 -4 -21 -17q-16 -12 -24 -20l-15.5 -15.5t-16.5 -14.5t-25 -15q-12 -6 -16.5 -9t-7.5 -6.5t-7 -6.5t-17 -9q-6 -2 -18 -4t-25.5 -4t-25.5 -3t-19 -1q-23 2 -37 5t-30 32q-16 16 -21.5 36.5t-9.5 51.5q-2 -8 -1 -18.5 t3 -20.5q-4 18 -5 36.5t1 39.5q-16 -18 -35.5 -36t-40.5 -36q-23 -20 -37 -33.5t-41 -30.5q-4 0 -4 -2q-14 -4 -21 -11t-20 -11q-16 -6 -28.5 -12.5t-28.5 -1.5q-23 4 -50.5 11t-43.5 21q-6 10 -14.5 19.5t-12.5 23.5q-6 10 -9 27.5t-1 34.5q10 63 24.5 109t38.5 87 q2 14 10.5 24.5t12.5 27.5q27 37 53.5 71.5t55.5 67.5q16 16 33.5 34.5t39.5 36.5q2 0 4 1.5t7 1.5q4 4 9 7t9 7q29 14 55.5 26.5t55.5 18.5q16 2 34.5 2t34.5 -6l51 -23q4 -16 11.5 -25.5t11.5 -23.5l22 31l56 80q0 4 3 8t7 10q27 43 43 66.5t27.5 38t20.5 23.5t20 24 q12 18 31.5 41.5t35.5 50.5q33 51 61.5 56t43.5 -29q0 -2 1 -2.5t1 -4.5l12 -24q0 -4 -5 -4t-5 -4t4 -3t4 -1l-19 -31q-2 -4 -1 -6t-1 -4l-65 -84q-20 -37 -38.5 -64t-37 -53.5t-39 -56t-45.5 -68.5v-2q-18 -35 -37 -62q-4 -4 -8 -12q-6 -14 -10 -19t-7 -9.5t-7.5 -11.5 t-12.5 -25q-8 -16 -13 -23.5t-11.5 -18t-15.5 -26.5t-23 -49q-8 -18 -15 -35q-4 -8 -6 -14t-4 -11l-4 -12q-6 -27 -8 -38t-3 -19t0 -17.5t3 -31.5q6 -6 6 -8.5t-1 -3.5t-1 -2t4 -5q4 0 8 -1t10.5 -1t14.5 4t22 15q31 23 53.5 43t43 39.5t41 42t45.5 49.5q16 18 33.5 39.5 t33.5 42.5q14 20 20.5 26t9.5 8.5t8 7.5t20 25q2 0 -0.5 -2t2.5 -2v4l2 -2q0 2 7 12.5t17 21.5t22.5 17.5t20.5 1.5q2 -4 5 -4t5 -4q0 4 5 4q-4 -10 2 -7t2 -7q4 -4 5 -2t-3 -2q4 -4 4 -2zM82 98q23 12 38 22.5t27 26.5q10 4 22.5 15.5t23.5 21.5l24 27q10 14 22.5 21.5 t22.5 17.5q8 10 18.5 21.5t20.5 21.5q12 12 21.5 29.5t25.5 35.5q10 12 12 21q2 2 3.5 7t3.5 5q2 4 8 11.5t10 15.5l4 8q0 8 3 19.5t7 17.5q6 10 7.5 23.5t-4 24.5t-15.5 18.5t-27 5.5q-16 -2 -35.5 -13.5t-29.5 -17.5q-14 -12 -30.5 -22.5t-26.5 -20.5q-25 -27 -48.5 -52.5 t-44.5 -52.5q-29 -45 -50 -87t-38 -99q-6 -23 -9 -36t-1 -36q14 -4 21.5 -5t13.5 5z" />
<glyph unicode="e" horiz-adv-x="575" d="M262 610q4 0 3 2t3 2q20 8 38 18.5t46 12.5q0 2 15.5 3t15.5 3h37q8 -2 25.5 -5t21.5 -7q12 -8 20.5 -15.5t12.5 -23.5q0 2 5 -3t3 -3q4 -4 7 -21.5t3 -25.5t-3 -14.5t-5 -14.5q-4 -8 -4 -14q-10 -37 -19 -49q0 -4 -8 -16.5t-8 -14.5q-39 -47 -71.5 -79t-73.5 -60 q-16 -10 -41 -24.5t-52 -16.5q-14 -2 -29.5 -5t-27.5 -1q-16 2 -34.5 8t-35.5 41q-16 -20 -28 -41t-21 -60q-2 -6 -4 -19t-2 -26.5t2 -25t8 -17.5q18 -18 44 -19t51 3q10 0 19 2t13 4q16 6 26.5 8t21.5 6q25 12 53 25.5t51 26.5q33 20 63.5 42.5t63.5 55.5q88 78 139 136 t66 79q2 6 4 6q-4 -8 -4 -10v-2q2 0 2 6q4 0 5 -1t5 -1q2 -6 0 -6q4 0 3 8t3 6l10 -6q6 6 5 6q4 -2 0.5 -3t-3.5 -5q4 0 7 2v-8h4q8 -4 5 -21.5t-12.5 -40t-21.5 -43t-22 -26.5q-8 -10 -17.5 -20.5t-17.5 -20.5q-2 0 0 -1t-2 -1q-2 -8 -3 -7t-8 -6q-4 -8 -8 -10 q-10 -12 -9 -7t-7 -9q-14 -14 -15.5 -16.5t-0.5 -2.5t-2 -2t-17 -16q-66 -66 -140.5 -119t-170.5 -84q-25 -10 -55.5 -15t-62.5 -6t-63.5 2t-56.5 9q-4 6 -14 8t-15 8q-14 6 -22 16.5t-16 22.5q-4 10 -7.5 19.5t-11.5 21.5q-2 18 -4 39t2 39q2 2 2 6v2q4 4 4 15 q10 39 18.5 68.5t26.5 51.5v2q43 78 96.5 141.5t124.5 112.5q2 4 2.5 0t2.5 0q16 10 30.5 20.5t32.5 20.5h2h2zM166 365q-2 -12 8 -23q2 -10 9 -11t16 3q39 10 65 26l43 33q4 8 6 11.5t6 -1.5q4 4 12.5 13.5t12.5 11.5q10 16 21.5 24.5t19.5 20.5q10 14 23.5 34.5t-0.5 31.5 v6q2 0 -4.5 1t-6.5 3q-10 4 -8 3t-10 1q-23 -6 -47.5 -20.5t-40.5 -24.5q-25 -16 -43.5 -32.5t-34.5 -37.5q-10 -8 -21.5 -22.5t-13.5 -22.5q-8 -14 -8 -15t-4 -13zM-80 176q0 -2 -1 -3t-1 -3v6h2zM672 465q2 0 2 -1t-2 -1v2z" />
<glyph unicode="f" horiz-adv-x="526" d="M575 1020q2 0 4.5 -2t6.5 -2l2 2q0 2 2 4q4 0 3 -5t3 -3t23.5 -17.5t19.5 -60.5q0 -8 -4 -29v-28q-2 -6 -2 -11.5t-4 -9.5l-4 -18q-4 -10 -10.5 -21.5t-10.5 -21.5q-6 -23 -15 -41.5t-20 -36.5q-18 -35 -31.5 -59.5t-37.5 -57.5q-23 -33 -35 -50t-23.5 -30.5t-23.5 -27 t-37 -35.5q2 0 -12.5 -13.5t-16.5 -13.5q-2 -4 -2 -3t-6 -5q-6 -10 -14 -14t-19 -15q-31 -29 -54.5 -45t-55.5 -45q-16 -16 -28.5 -23.5t-27.5 -19.5q0 -8 -4 -7t-2 -3q4 -4 2 -4t-2 -2q8 -29 15.5 -40t31.5 -28q10 -6 13.5 -10t5.5 -5t5 -2t11 -3q16 -6 23.5 -8.5 t13.5 -2.5t13.5 2.5t21.5 2.5h7t1 1t2 2t10 1t25.5 8t36 19.5t35 22.5t22.5 19l14 17q16 10 42 39.5t38 46.5q4 4 8.5 15t8.5 15q2 -6 6 5.5t6 13.5q2 -4 8 8t12 18q12 12 29 9.5t17 -9.5q0 -10 6 -4q-2 -6 2 -10t7 -8t2 -11.5t-11 -19.5q2 0 3 2t1 -2q2 -8 -4 -6t-2 -8 l-9 -12l-10 -21l-8 -14q-6 -8 -7 -12.5t-7 -10.5q-2 0 -1 -1t-1 -1q-6 -10 -21.5 -27.5t-32 -37t-33 -36t-26.5 -24.5q-4 -4 -7 -4t-5 -10q-23 -25 -71 -48.5t-103.5 -30.5t-104.5 11.5t-74 77.5q20 -57 27.5 -110.5t5.5 -99.5t-8 -84t-10 -62q-12 -49 -32.5 -88t-41.5 -74 q-20 -35 -49 -64.5t-55 -58.5q-12 -12 -29.5 -22.5t-34.5 -20.5q-16 -10 -37.5 -14t-44.5 -6q-4 0 -9 1t-9 1q-23 4 -26 9t-13 19q0 2 -1 3t-1 4q-4 2 -6 2t-6 4q-6 20 -11.5 43.5t-3.5 56.5v31q16 94 54 192.5t73 169.5q53 113 104.5 212.5t110.5 201.5l41 78l10 22 q0 -6 2 0l7 11l-9 -11q2 4 5.5 10.5t5.5 4.5q8 16 15 27.5t22 31.5l18 33q0 2 2 0l25 45l14 16q4 10 8 16.5t6 16.5q6 2 8 8t9 15l32 49q4 8 1 6t1 2v2l7 6l4 6l10 17q4 4 4 6t4 6q12 10 24.5 25.5t22.5 29.5q4 4 3 4t3 2q12 8 17 23q4 6 11 11t11 11q10 10 19.5 21.5 t21.5 21.5q4 4 9.5 8.5t13.5 8.5l20 16l8 4q12 8 42 19.5t46 9.5zM0 68q-14 -20 -20.5 -37t-16.5 -33q-14 -25 -25.5 -51.5t-21.5 -46.5l-6 -15l-25 -55q-4 -12 -4 -18q-10 -25 -20.5 -51.5t-18.5 -57.5q-4 -29 -12 -60.5t-10 -66.5q-4 -10 -2 -22.5t8 -16.5q2 0 4 -2 q25 14 49 39q14 10 25.5 22.5t23.5 26.5q23 27 39.5 58.5t32.5 64.5q16 37 31.5 95.5t11.5 103.5q-4 53 -9 96t-16 49q0 4 3.5 7t-3.5 7q-4 -4 -9 -16t-9 -20zM479 852q-2 -4 -8 -7t-8 -7l-4 -11l-10 -8q-18 -29 -39 -55.5t-41 -54.5q-18 -25 -27.5 -41.5t-26.5 -42.5 q-10 -16 -18 -28.5t-16.5 -24t-16.5 -23.5t-16 -31q-6 -10 -3 -6t-1 -6q-23 -35 -36 -58.5t-30 -58.5q14 4 17 6q4 4 5 7.5t5 5.5q2 2 4 1t4 1q4 2 7 7t5 7q4 6 16.5 16.5t16.5 14.5l53 49q23 20 53.5 58t69.5 97q10 16 14.5 21.5t14.5 21.5l14 19l45 86q10 23 14.5 44 t8.5 44q-4 0 -4 1t-4 3z" />
<glyph unicode="g" horiz-adv-x="602" d="M563 -270l-6 6q-4 0 -3 -2t-1 -2q-8 2 -17.5 2h-17.5q0 -2 -11 1t-13 -1q0 4 -38 4t-85 -6t-88 -16.5t-47 -24.5q0 -6 -7.5 -14.5t-9.5 -8.5q-2 -2 1 -3t-1 -3q-18 -39 -28.5 -62.5t-20.5 -45t-22.5 -45t-34.5 -62.5q-39 -80 -69 -137.5t-36 -67.5q-8 -16 -18 -27.5 t-19 -25.5q-10 -18 -25.5 -39.5t-31.5 -43t-31.5 -39t-25.5 -28.5q0 -2 -2 -3t-2 -3q-4 -8 -12.5 -13t-16.5 -9q-37 -37 -90 -62q-20 -10 -40 -11t-38 1t-31.5 9.5t-30.5 15.5q-10 14 -19 21t-15 20q-6 10 -2 16q-8 16 -12.5 31.5t-6.5 34.5q-2 10 -2 17v11q2 39 7 76t14 72 q14 55 29.5 82.5t37.5 68.5q6 10 11.5 18.5t11.5 12.5q0 2 1 2t1 2l2 2q2 0 2 2l2 4q33 39 58.5 60.5t64.5 56.5q41 31 81 55.5t85 48.5q2 0 2 3q2 0 4 2q6 10 15 11t24 9q43 16 73.5 28.5t77.5 28.5q8 10 11.5 17.5t9.5 17.5q2 4 2 8q2 4 16.5 36t30.5 69t29.5 70.5 t15.5 39.5q4 12 15.5 35t22.5 45.5t19.5 41t8.5 24.5l4 10q0 8 5 13.5t5 13.5q-59 -66 -117.5 -121t-152.5 -94q-18 -2 -37 -7.5t-33 3.5q4 0 13 -1t11 3q-6 0 -15 1t-11 -3h2q-2 -2 -10 -2q-4 6 -15 10q0 -2 2 -2q-2 -2 -6 4q0 -2 4 -2q-2 2 -3 5t-5 3l4 -6q-6 2 -6 10 q-4 8 -10 12t-10 13q-8 12 -14.5 30.5t-6.5 42.5q4 0 -2 6q0 -2 0 13.5t-2 19.5q2 0 2 2q23 92 51.5 150.5t59.5 109.5q31 39 68.5 78t82.5 74l15 12q10 8 20 13.5t27 13.5q27 18 58.5 26.5t61.5 10.5q10 -4 22.5 -5t23.5 -6q2 -4 6 -4t12 -4q10 -12 27.5 -31.5t21.5 -39.5 q6 10 8 10t9 8q2 0 1 -1t1 -1q4 10 8 18.5t12 10.5q10 0 10 6q2 -2 5 8t3 8q16 25 34 26t31 -10.5t20.5 -30t3.5 -30.5q0 -4 -3.5 -4t-3.5 -4q2 -4 0 -7t0 -7q-8 -10 -8 -13.5t-6 -13.5q-8 -10 -6 -7t0 -9q-16 -27 -29.5 -47.5t-25.5 -42.5q-25 -51 -46.5 -100.5 t-46.5 -100.5q0 2 -9 -21.5t-21 -54.5q-12 -29 -23.5 -54.5t-9.5 -21.5l-18 -49q-23 -47 -45.5 -101.5t-38.5 -101.5q8 0 18 2t20 7q41 12 71 12h40q-2 2 17.5 2t31.5 -2q10 0 23.5 -1t19.5 -5q0 -2 1 0t3 -2q0 -2 5.5 -3t11.5 -2.5t12 -2.5t6 -3q10 -2 8 -8t9 -8v12 q4 -2 2 -12t4 -10q2 -2 2 -14.5t-4 -16.5v-2h-2l-2 2l-3 -2q-6 2 -6 -8l2 2v-2l4 4q2 0 3 2l6 -6h-4q-4 -4 -5 -6q0 2 -4 2h-2h-2l2 2q2 0 2 1t2 1h-4zM104 -350q-45 -10 -90 -36t-88 -56q-37 -25 -64.5 -45.5t-49 -41t-41 -44t-43.5 -56.5q-8 -14 -12.5 -20t-7.5 -10.5 t-7 -11.5l-12 -21l-17 -43q-8 -12 -14 -40t-9 -58.5t-1 -61.5t14 -51q4 -10 25 -8q41 6 64.5 28.5t53.5 57.5q0 4 5.5 6t9.5 6q6 0 6 6t4 8q10 18 24.5 33.5t20.5 32.5q12 14 19.5 23.5t12.5 18.5t9 18t12 24q4 4 4 6t5 6q27 49 44 80t32.5 59.5t31.5 62.5t41 87q0 2 4 7 t2 5zM70 94q23 10 48 29.5t50 34.5q16 18 42 41.5t46 46.5l35 39q27 25 45 54.5t37 57.5q10 10 10 21q2 8 8 17t6 20q2 39 -12 57t-39 12q-20 -4 -38.5 -21.5t-35.5 -27.5q-43 -31 -81.5 -72t-67.5 -88q-29 -43 -53 -94q-14 -33 -23.5 -56.5t-3.5 -60.5q6 -8 9.5 -12t17.5 2 zM-84 139q0 -2 -2 -2z" />
<glyph unicode="h" horiz-adv-x="655" d="M389 -20q-14 6 -31.5 6t-25.5 14q-31 16 -43.5 49t-9.5 76v10q10 59 28.5 113.5t38.5 105.5q14 25 25.5 45.5t25.5 42.5q8 27 15.5 36t11.5 36q-12 0 -21.5 -6t-21.5 -10q-66 -37 -120 -90.5t-101 -112.5q-41 -47 -70 -97.5t-59 -109.5q-10 -25 -22.5 -45t-14.5 -45 q-6 0 -10 -6t-4 -12q-2 -4 -6.5 -7.5t-6.5 -1.5v-4q0 -2 -2 -4q-6 0 -8 6q-4 -2 -5 -5t-3 -7l-25 12q-4 0 -4 -2t-2 -4v6q-2 0 -1 3t-1 3q-4 0 1 3.5t1 5.5v2q0 4 -2 4q-4 4 -3 -1t-3 -5q-2 4 0 8t-2 8q-2 2 -2 0t-2 2q-4 4 -1 7t3 7q-4 -2 -4 2.5t-4 4.5v6t2 6q-4 8 1 15 t-1 11q4 10 3 18.5t3 14.5q2 4 -1 2t-1 2l61 156v6q2 4 5 7t1 12q18 31 31.5 62.5t30.5 59.5q16 31 33.5 62t31.5 59q6 16 15.5 28.5t15.5 31.5q16 18 25.5 39.5t23.5 37.5q10 18 18.5 35t20.5 31q10 20 21.5 35.5t17.5 36.5q35 45 58.5 88t58.5 88q4 6 10 14t10 12 q4 10 8.5 14.5t8.5 10.5q6 6 14 14.5t12 14.5q4 4 5 4t1 4q8 4 8.5 12t14.5 8q10 18 27.5 17.5t33 -12t22.5 -29t-3 -29.5v-12q-20 -35 -43 -62.5t-45 -58.5q-63 -100 -125 -199.5t-119 -208.5q12 6 24.5 17.5t24.5 21.5q23 20 47.5 38t55.5 34q14 8 30.5 14t32.5 9 q10 2 22.5 -0.5t24.5 2.5q2 -2 17 -2q4 -4 13 -6.5t13 -8.5q10 -6 21 -20q4 -6 5 -14.5t7 -14.5v4q4 -23 3 -38t-6 -27.5t-12.5 -25.5t-15.5 -30l-67 -145q-12 -31 -23.5 -56.5t-19.5 -60.5q-6 -16 -13.5 -37.5t-3.5 -44.5q2 -4 2 -6t2 -4q4 -6 4 -12h7q4 2 22 2q10 4 6 4 t6 4q16 4 25 12q4 4 15.5 8.5t27.5 22.5q25 20 30 25.5t4 5.5t1 3t20 21q6 6 13.5 16.5t19.5 26.5q16 35 38.5 64.5t39.5 62.5q2 -4 4 7.5t2 7.5q4 2 4 6t4 14q2 2 6 2q4 10 11 14q8 4 8 7q2 -2 0 -5.5t0 -5.5q4 -4 11 -5t9 5q4 2 4 -3t4 -5l5 -12q4 2 0.5 -4t1.5 -6 q-2 -4 -6.5 -12.5t-6.5 -14.5q0 -6 -1 -9t-1 -7q0 -2 -4 -10.5t-9 -18.5t-10 -19l-5 -10q0 -6 -5.5 -12t-7.5 -10q-4 -16 -7 -22.5t-6 -10.5t-8 -10t-16 -21h-4q0 -4 -1 -5t-1 -3q-14 -23 -19 -32t-8 -13t-9.5 -10t-24.5 -25q-16 -16 -22.5 -23.5t-11.5 -12.5t-14.5 -11 t-29.5 -20q-10 -8 -7 -5t-11 -6q-12 -10 -11.5 -8t-13.5 -6q-8 -4 -30.5 -12t-32.5 -8q-4 0 -8.5 -1t-8.5 -1zM-80 -25q-2 0 -2 -6q6 6 2 6z" />
<glyph unicode="i" horiz-adv-x="368" d="M154 137q12 12 29.5 27.5t37.5 28.5l27 26q18 18 33.5 32.5t30 29t28.5 31t33 38.5l8 8q4 4 8 11q4 6 5 4t5 6q8 0 11.5 9t7.5 13q4 -2 8 5.5t8 15.5v-8q2 0 4 2t4 2l2 2l2 2v-2q14 8 19.5 8t26.5 -2q2 -4 -1.5 -7t-3.5 -7q4 -4 4.5 -2t2.5 2q4 -10 0 -13q-2 -4 0 -1 t2 -1l-10.5 -21t-10.5 -20q4 -6 -1 -8t-9 -12l-8 -8t-4 -11q0 -2 2 -2q-8 -8 -11.5 -15t-13.5 -15l-4 -9q-12 -12 -31.5 -32.5t-42 -42t-43 -43t-35.5 -35.5q-16 -12 -21 -16.5t-7 -5.5t-7.5 -5t-21.5 -18l-47 -37q-39 -23 -69.5 -34t-77.5 -7h-11.5t-9.5 4q-39 23 -55 59 l-6 17q-2 2 -2 8q-12 63 18 154q0 10 6 22q4 10 6 18.5t11 16.5q10 29 24 54.5t27 52.5q18 37 32.5 61.5t34.5 52.5q10 12 16.5 22.5t14.5 16.5q2 6 5 9t5 7q4 0 2 0t2 3q16 18 22.5 26t14.5 4q4 -2 6 -1t7 1q2 -2 4 -2t4 -6l16 -6q4 -6 12.5 -20.5t10.5 -20.5 q2 -4 -6.5 -16.5t-12.5 -18.5l-4 -4v-2l2 2q8 2 5 0t-7 -2q0 -4 2 -8q-14 -12 -20 -30.5t-17 -33.5q-14 -12 -9 -16t-9 -6q0 -6 -3 -10.5t-3 -10.5q-2 0 -6 -14q-10 -23 -19.5 -39t-17.5 -33q-2 -6 -8.5 -13t-10.5 -15l-14 -37q-16 -18 -25 -64q-4 -20 -3 -39.5t5 -31.5 q2 -4 8.5 -9.5t18.5 -1.5q8 4 18.5 8.5t18.5 8.5l12 6l2 2zM317 827q-2 0 -2 -2q8 -4 20.5 -11t2.5 -3q0 -4 2 -4h2q8 -6 11 -24.5t-1 -34.5t-14 -31q-8 -2 -6 -3t-4 -5l-2 -7q-2 -4 -4.5 -5t-6.5 -5l-14 -14q-8 4 -9 0t-5 -8h-8q0 4 5 5t5 5q-4 -2 -14.5 -4t-10.5 -6 q-6 0 -8 2q0 -8 -2 -10q2 0 -2 10q-4 0 -3 -4t-3 -6q0 2 1 6t1 6q-4 -2 -10 -2q0 4 -1 4t3 4q-2 2 -5.5 -1t-3.5 -1v6q-4 2 -5 -2t-3 0q2 4 0 8t0 8q-4 2 -8 -4q-2 4 0 6t2 5q-4 2 -1 5t3 7q-2 0 1 2t1 4q6 23 21.5 43t21.5 39h6q0 2 5.5 8t7.5 8q2 -4 16 4v2q4 0 6 -2 q4 2 5 1t5 -1q-4 2 -4 3t6 -1zM297 819l2 2l-4 -2h2zM444 420q-2 0 -2 -2q0 2 2 2z" />
<glyph unicode="j" horiz-adv-x="243" d="M197 -250q2 -2 0 -1t-2 -3q0 -6 -1 -2t-4 2q-2 -4 -2 -10t-4 -6h-2q-2 -4 -1 -4t1 -5q-2 0 -4 -2t-6 -2q-4 -2 -2 -4t0 -2q-10 2 -24.5 1t-24.5 -1v-4q-29 -2 -48.5 -1t-48 0t-75.5 -9t-129 -29q0 -4 -8 -12l-7 -6q-2 -4 0 -5t0 -3q-23 -39 -35 -65t-24 -48.5t-26.5 -49 t-36.5 -65.5q-4 -8 -9.5 -18t-11.5 -14l-2 -3q-4 -4 -6 -8t-6 -10q4 0 2 -2t-6 0q0 -4 -1 -8t-1 -6q2 4 4 6t2 0l-10 -10l-5 -9l-6 -18q-6 -4 -4 -4t-2 -10q-6 -14 -11 -15.5t-9 -11.5q-16 -16 -23.5 -32.5t-13.5 -26.5q-8 -16 -19.5 -28.5t-19.5 -27.5q-10 -18 -27.5 -39.5 t-37 -43t-38 -39t-30.5 -27.5q0 -2 -2 -3t-2 -3q-10 -14 -27 -23q-16 -16 -43 -31.5t-55 -29.5q-33 -18 -74 -15q-18 2 -30.5 11.5t-28.5 19.5q-8 12 -17.5 19.5t-15.5 19.5l-4 18q-4 16 -9.5 30.5t-3.5 35.5q-2 8 -2 15v14q4 37 13.5 73.5t19.5 71.5q8 29 16.5 48.5 t17.5 34.5t19.5 30.5t22.5 36.5q4 10 10 18t17 12q0 2 1 2t1 2v2l6 7q29 39 55.5 61t71.5 55q41 31 82 55.5t94 49.5q2 0 2 4q2 0 4 2q6 8 16.5 9t22.5 9l151 58q10 10 13.5 17t7.5 17q4 4 6 4.5t2 4.5l4 8q2 6 -3 -1t-1 3q8 10 17.5 29.5t15.5 29.5q4 10 10 19.5t12 23.5 q0 2 7.5 17.5t15.5 34t15 34t10 17.5q4 4 8 9t6 9l12 31q8 10 11.5 17t7.5 18q2 8 11 26.5t15 24.5q0 2 6 8q4 16 18.5 42t18.5 48q10 33 27.5 63.5t34.5 61.5q20 61 63 121q8 12 11 23.5t12 23.5q4 8 11 15.5t9 17.5q4 4 4 8t6 4q2 0 2 6q2 -2 7.5 8.5t7.5 8.5 q18 25 36.5 25.5t33 -10.5t22.5 -29.5t4 -30.5q0 -4 -3 -4.5t-3 -4.5t-3 -6t-1 -6q-6 -12 -6 -15t-9 -14q-10 -10 -7 -7t-1 -9l-59 -90q-27 -51 -50.5 -100.5t-49.5 -98.5q0 2 -14.5 -26.5t-31 -63.5t-31 -63.5t-14.5 -26.5l-65 -129q-10 -23 -15.5 -33t-8.5 -17t-8 -17.5 t-15 -32.5q10 0 21.5 5t23.5 7q27 10 68.5 11t101.5 5q12 2 12 0t12 0q29 0 45 -6q2 -2 2.5 0t2.5 -2q0 -2 4 0t10 4t12 0t6 -10q10 -2 2 -12.5t2 -12.5h2q4 -2 2.5 -6t4.5 -4zM-317 -371q-45 -10 -90.5 -35.5t-96.5 -54.5q-41 -25 -68.5 -45t-51 -40.5t-45 -44t-48.5 -56.5 q-10 -12 -14 -18.5t-7 -11.5t-6.5 -11t-9.5 -21q-8 -10 -13 -18t-11 -25q-16 -41 -29.5 -102t-3.5 -109q0 -10 4 -10q2 2 0 6t0 9q2 -16 10 -23q2 -2 -2 -3t0 -5q2 -2 2 -6h2q20 6 41 18t40.5 26.5t35.5 28t29 23.5q0 4 4 12q4 0 9 6.5t9 8.5q12 20 25.5 34.5t23.5 30.5 q27 29 36.5 42t25.5 44q2 4 2 5t6 5q31 47 50.5 80t38 64.5t36.5 67.5t45 89q2 2 6 7.5t2 5.5zM373 748q-8 -23 -29 -37q-8 -10 -12 -15.5t-17 -13.5q-2 2 -1 3t-1 3h-4v-6q-18 0 -28.5 12.5t-12.5 29.5t3 34.5t16 25.5l2 2h-2q2 0 2 2q12 12 16 21.5t8 17.5q0 -2 -1 -3 t1 -5q4 6 8.5 10.5t2.5 12.5q2 -2 2 -6l12 8q2 2 2 -2q6 6 4 6q0 -4 2 -6q2 4 4 4t4 4q6 -8 11 -4v-4l2 2q0 -4 2 -6q2 0 2 4q2 0 2 -4l4 6q4 -4 3 -10.5t7 -2.5q0 -2 -1 -8t3 -4q0 -4 -1 -7t5 -1q0 -2 3 -2t1 0q4 -6 0 -12t-10 -19q-2 -8 -3 -10t-5 -6q-2 0 -2 -6t-4 -8z M186 -264q-2 2 -2 -6l2 4v2zM-342 -629q-2 2 0 3t2 3q0 -4 -2 -6z" />
<glyph unicode="k" horiz-adv-x="653" d="M-94 20q2 0 6 -4q-8 12 -8 17q6 8 -1 6t-3 8q-4 2 1 6t1 4q2 8 2 9l-2 4q0 6 4 17t2 17q14 43 26.5 77t24.5 66t27.5 64.5t33.5 71.5q4 23 14.5 40t20.5 40q10 16 19.5 32.5t15.5 36.5q2 0 4 5.5t4 5.5q4 10 9.5 16t9.5 16h-2q2 6 7 10.5t5 14.5q4 -4 2 -4t-2 -2 q6 6 8 16.5t8 16.5l2 -2v8q2 0 2 -2q4 6 6.5 13t6.5 18q2 0 2 -5q14 20 22.5 36t20.5 38q35 63 65.5 111.5t65.5 101.5q8 10 14 22.5t17 22.5q12 23 23 35t20 29h6q4 6 5 12t9 10v-4l8 4q0 10 9.5 11t19.5 -2t18.5 -10t10.5 -13q2 -4 2 -8q16 -4 13 -14.5t1 -20.5 q0 -8 -3 -11t-5 -10q-68 -117 -136.5 -230.5t-136.5 -231.5q33 18 65 37.5t62 35.5q6 4 13.5 5t17.5 5q14 8 37 13.5t46.5 3.5t45 -15.5t35.5 -44.5q8 -25 4 -50t-14.5 -48.5t-25.5 -44t-30 -39.5q-29 -37 -57.5 -53t-64.5 -39q-2 0 -7.5 -3t-13.5 -7t-18 -8q-2 0 -8.5 -2 t-10.5 -2q-23 -8 -34 -7.5t-40 -5.5q0 -25 12.5 -68.5t35.5 -72.5q14 -18 20 -23.5t33 -13.5q16 -4 22 -4t21 4q8 2 10 2t1 0t0 0t11 4q20 10 23 12l4 3l4 3t27 15q16 10 36.5 30.5t41 43t38 43t25.5 32.5q6 2 16.5 18.5t14.5 20.5q2 0 10 13.5t10 13.5q6 10 4 12t4 6v-2 q6 16 15.5 17.5t23.5 -2.5q-4 -4 21 -13q-4 -4 0 -4q2 0 2 2t4 2q0 -4 -1 -7t-1 -7q-2 -2 0 -2t2 2q4 -2 -1 -9t-1 -5q-4 -10 -5 -5t1 -3q4 0 3 1t1 1q0 -2 -6 -12.5t-14.5 -21.5t-14.5 -22.5t-6 -15.5q-49 -72 -93 -126t-116 -101l-8 -4q-4 -2 -8 -3q-16 -10 -30.5 -14 t-31.5 -8q-18 -4 -26.5 -6t-34.5 -2q-14 0 -15.5 1t-15.5 5q-63 14 -80 39l-24 22q-16 20 -25.5 33.5t-14.5 26t-10.5 25t-11.5 30.5q-6 14 -8 29q0 6 -3 26.5t-5 28.5q-2 -2 0 -10t2 -13q-4 4 -5 15.5t-7 11.5q-12 -18 -24.5 -48t-23.5 -50q-6 -12 -10 -20.5t-7 -15.5 t-6 -16.5t-9 -25.5q-2 -14 -6.5 -22.5t-8.5 -30.5q-4 -2 -8 -13q-4 2 -2 -3t-2 -9q-8 -12 -13 -14t-9 -6q-6 2 -7.5 0t-5.5 2q-4 -4 -5 -3t-5 -3q-4 -2 0 1t0 3q-4 -4 -4 0t-2 4q6 6 4 6q-4 -2 -8 -1t-8 -3q0 4 4 4h4q0 2 -2 2t-2 2q-4 0 -7.5 -1t-7.5 -1q2 4 -1 6t-7 8 q-4 -4 -2 0l-6 4q0 -2 2 -4q-2 -2 -4 2t-4 6zM436 535q-27 -4 -46 -12.5t-42 -22.5q-16 -10 -30.5 -20.5t-26.5 -20.5q-33 -25 -60.5 -50.5t-48.5 -54.5q-4 -4 1 -7t12 -3q55 6 96 25l14 8q2 2 5 2t5 2l19 12q2 2 5 6t7 4q25 16 46.5 37t35.5 39.5t17.5 31.5t-5.5 19 q-2 -2 -2 1.5t-2 3.5z" />
<glyph unicode="l" horiz-adv-x="456" d="M684 1217q6 0 14 -5q16 -8 25.5 -26.5t13.5 -46.5v-15l-10 -57q-2 -4 -1 -8t-1 -8q0 -4 -2 -5.5t-2 -5.5l-5 -10t-7 -22q-23 -68 -75 -159t-124 -184.5t-155 -177.5t-162 -137q-4 4 -6.5 -2t-6.5 -8t-14 -8t-22.5 -12.5t-21.5 -12.5t-9 -8q-4 0 -5.5 -1t-3.5 -1 q-4 2 -6 -3t-2 -7q-8 -12 -17 -34t-17.5 -46.5t-13.5 -48t-5 -35.5q-4 -27 10 -41q12 -4 22.5 -4t30.5 10q37 18 51.5 29.5t37.5 27.5q41 29 80.5 61t70.5 58q25 23 47.5 46.5t46.5 49.5q8 8 17.5 18.5t19.5 16.5q6 12 21 17q0 4 2 8t4 10q2 2 2 -1t2 -1q4 4 6 7t6 7l8 7 q4 4 5.5 8t7.5 4q12 14 41 28q12 -8 12 -18q4 4 3 9t3 5v-6q2 -4 3 -2t1 -2q-2 -2 -2 -12q0 -4 -1 -5t-1 -5q2 0 3 2t3 0l-8 -19v-6l-6 -27q-4 -4 -9 -7t-5 -9q-10 -10 -17.5 -20.5t-17.5 -22.5q-4 -4 -7.5 -7t-7.5 -7q-14 -16 -30 -31q-2 -10 -5.5 -12t-9.5 -6l-26 -29 q-14 -10 -22.5 -20.5t-18.5 -20.5q-16 -16 -33.5 -36.5t-40.5 -35.5l-10 -10q-10 -10 -26.5 -22.5t-22.5 -16.5q-4 -4 -8.5 -8t-12.5 -6l-8 -6q-4 -2 -5 -4.5t-5 -6.5l-19 -10q-12 -10 -23.5 -19.5t-25.5 -13.5l-57 -28l-23 -8q-14 -4 -29.5 -6.5t-35.5 -4.5q-35 0 -62 17 q-6 4 -12 14q-6 8 -8 14t-4 11q-16 31 -15.5 47t-1.5 39q4 41 12.5 76.5t18.5 64.5l12 45q16 43 35 81t37 77q37 78 81 146.5t89 135.5l14 27l11 12l81 119l23 33q6 4 10 12l13 18q12 12 29.5 35t39 49.5t44 52t42.5 42.5q37 31 72 55.5t80 24.5h12zM170 457l-2 -4 q-2 0 -2 -2v2q-2 -2 0 -2q-4 -10 -8 -14.5t-6 -10.5q16 10 36.5 30.5t34.5 32.5q4 6 12.5 10.5t12.5 14.5q8 2 12 10l23 21q12 12 26.5 25.5t24.5 27.5q16 18 27.5 29.5t21.5 23t20.5 23.5t26.5 33q25 35 46.5 66.5t42 62t40 64.5t41.5 75q12 23 23.5 49.5t15.5 56.5 q-4 8 -14 2l-13 -12q-35 -29 -62.5 -58.5t-55.5 -62.5q-8 -8 -12.5 -13t-8.5 -11l-22 -27l-7 -12l-12 -17q-4 -6 -7 -14t-11 -14q-4 -6 -8.5 -11.5t-8.5 -11.5q-8 -6 -16 -22q-10 -16 -18.5 -27.5t-16.5 -28.5q-2 0 -2 -2q-4 -10 -12 -19t-13 -20q-12 -20 -21 -33.5 t-17.5 -25.5t-16.5 -26.5t-20 -34.5l-6 -13q2 6 2 9.5t-11 -11.5l-55 -100h2l-2 -2l-4 -2v-4z" />
<glyph unicode="m" horiz-adv-x="974" d="M1036 416q-4 0 -3 1t3 1q2 4 3 7t8 3q4 0 4 -8q4 4 2 4t2 2q0 2 2 0q4 -2 2 -2t2 -4h4q-2 -4 -2 -10.5t4 -8.5q-2 -10 2 -10t2 -10q2 -2 6 4q0 -12 -4 -21.5t-6 -19.5q-2 -4 -5 -9t-1 -9l-17 -37q0 -2 -1 -3t-1 -5q-2 -4 -2 -9l-6 -16q-4 -6 -5 -11t-7 -9 q-20 -33 -30.5 -48.5t-18.5 -26.5t-19.5 -24.5t-35.5 -42.5q-10 -10 -14.5 -19t-24.5 -26q-59 -53 -122 -66.5t-106 15.5q-4 2 -6 2q-4 4 -8 5t-10 5q-10 16 -15.5 24.5t-9.5 17.5t-5 23.5t-1 43.5q4 47 25.5 95t31.5 69q6 20 11.5 31.5t8.5 16.5t5 8t4 7l25 53q2 4 10 19.5 t11 29t-2 21.5t-28 -2q-47 -16 -83.5 -46t-68.5 -67t-59.5 -79t-54.5 -80q-16 -31 -30.5 -53.5t-34.5 -51.5q-6 -10 -10.5 -21.5t-14.5 -17.5q-4 -4 -4 -8q-6 -6 -14 -18q-10 -16 -26.5 -8t-23.5 8q-6 0 -6 2q0 4 -4 6q-12 4 -14 10t-6 16q-2 2 -5 2t-4.5 5.5t1 17.5 t10.5 43q25 53 55.5 120.5t54.5 125.5q4 10 11.5 24.5t11.5 29.5t3 28.5t-9 23.5q-18 4 -30.5 -2t-23.5 -10q-39 -23 -64.5 -44.5t-53.5 -53.5q-18 -25 -24.5 -32t-9.5 -13.5t-11.5 -16.5t-28.5 -41q-2 0 -2 -1t-2 -1l-2 -2q-6 -12 -13.5 -20.5t-11.5 -24.5 q-18 -29 -28.5 -46t-17.5 -34.5l-16 -40t-24 -59.5q-6 -4 -10 -17q-6 0 -9 -5t-9 -9q-2 0 -2 -3t-3 -3q-2 -2 -6 0t-6 4q-4 -2 -1 -4t-1 -4q-4 0 -3 1t-5 1q-4 0 0 2t2 4q-6 -4 -9 1t-7 1q0 6 -3.5 7t-5.5 3q0 4 4.5 4t4.5 5q-4 0 -5.5 -3.5t-5.5 -3.5q2 2 -2 7q-2 2 -4 2 q-4 6 -5 14t-5 12v19.5t-2 19.5q8 18 11 35.5t14 34.5q2 14 4 19t3 7t3 6.5t6 16.5q16 25 21.5 43t17.5 43q10 10 14 28.5t12 28.5q16 37 39 74t39 72q12 23 27.5 44t30.5 48q4 0 2 1t0 3q4 14 20.5 34.5t24.5 31.5q10 4 10 2q8 12 20.5 8t23.5 -12.5t18.5 -15.5t7.5 -1 q2 -4 1 -4t-1 -2q0 -8 2 -11t4 -8l-6 -34q-16 -23 -23.5 -38.5t-17.5 -31.5q12 8 34.5 24.5t38.5 22.5q29 12 45.5 19.5t51.5 -0.5q12 -4 17 -10.5t13 -10.5q2 -2 3 -5t6 1q-2 -6 5 -10t9 -10q10 -16 17 -36t-3 -69q10 2 15.5 10.5t9.5 10.5q10 10 15 11t18 13q4 4 9 10.5 t9 6.5h6q4 4 2 4t4 6q4 0 13 4q10 6 5 5t1 5q14 8 16 10l6 4q4 4 11.5 7.5t13.5 7.5l51 24q4 4 28.5 7.5t28.5 5.5q6 0 15.5 -2t19.5 0q10 0 22.5 -2.5t18.5 -10.5q2 0 3 3t3 -1l23 -22q8 -12 14 -33.5t-2 -46.5h2l-2 -4q-2 -2 -2 -6q-4 -8 -4 -15q-2 -4 -2 -8 q-4 -12 -8 -21.5t-13 -19.5q-6 -4 -7 -10t-5 -10q-6 -10 -11 -23.5t-9 -23.5q0 -2 -2 -5.5t-2 -7.5l-5 -6l-20 -39q-14 -29 -28.5 -67.5t-18.5 -73.5q-2 -2 0 -8t0 -8q2 -12 0 -19.5t14 -11.5q10 -4 8 -7t7 1h8l4 2q4 4 4 1t10 1q10 8 13.5 8t13.5 8q6 6 8 10 q10 8 19.5 13.5t15.5 17.5l33 35l24 23q2 2 4 8t4 6q8 12 12.5 18t8.5 12.5t8 13.5t12 19q6 10 16.5 26.5t10.5 27.5q10 6 9 13t7 13l4 6q4 4 8.5 14.5t8.5 18.5q2 -2 0 -6t-2 -6q4 4 7 17.5t7 17.5q4 0 2 -1t-2 -3q8 0 10 8zM1067 424q0 -4 -2 -4q0 2 1 2t1 2z" />
<glyph unicode="n" horiz-adv-x="632" d="M762 430q4 -6 -1 -13t-7 -14q4 -2 4 2.5t4 2.5q0 -10 -8.5 -26.5t-17.5 -34t-18 -32t-16 -18.5q-10 -23 -28.5 -46.5t-34.5 -45.5q-18 -29 -45 -60.5t-49 -54.5q-23 -18 -37 -30.5t-27.5 -22.5t-29 -18.5t-37.5 -16.5q-12 -4 -13.5 -4t-11.5 -2q-14 0 -22 2 q-6 -2 -12.5 1t-10.5 3q-4 4 -10 7t-10 1q-12 10 -22.5 21.5t-14.5 29.5q0 2 -2 2t2 5q-16 31 -8 76.5t26 88.5q10 25 18.5 52.5t28.5 54.5q4 12 10.5 22.5t8.5 20.5q12 29 24.5 51.5t12.5 33.5t-16.5 9t-59.5 -24q-39 -18 -85 -55.5t-93.5 -88.5t-93.5 -115.5t-85 -138.5 v-6q-4 -4 -4 -6q-8 -6 -10 -13l-4 -14q-6 0 -6 -6q-10 -10 -21.5 -11t-21.5 3t-18.5 11t-10.5 14q4 6 1 7t-7 9q0 4 2 7t2 9h-2q4 8 0 11q4 8 4 14q27 74 59.5 136.5t65.5 123.5l117 207q16 16 30.5 35.5t28.5 40.5l4 6q4 -2 7.5 3t7.5 7q4 -2 6 0t4 -2q2 0 2 2q8 -6 12 -6 l31 -10q4 -14 8 -15q8 -18 10 -34.5t-10 -30.5l-31 -55v-5l13 9q29 27 64.5 46t72.5 38l8 4q16 6 47 9t47 -1q6 -2 14.5 -5t10.5 -7q4 -2 12 -5.5t12 -9.5q2 -6 5.5 -11t3.5 -15v-4q6 -16 3 -36t-11.5 -38.5t-18.5 -34.5t-16 -29q-25 -55 -55.5 -115.5t-47.5 -125.5 q-2 -8 -4 -21.5t-2 -19.5q0 -4 3 -3t3 -3q16 -8 25.5 -1t19.5 15q2 0 8.5 5t12.5 11t11 11.5t3 7.5q2 -2 3 0t3 2l27 26q16 12 19 16l3 3l2 3l15 15q6 6 4 5t6 5q6 10 9 14.5t28 33.5q10 16 27.5 43.5t31.5 44.5q2 2 9.5 13t16.5 24.5t17.5 23.5t14.5 12q4 0 8 8.5t8 10.5 q0 -2 4 -6q2 0 3 2t5 2v-6q0 -4 0 -2t4 2q2 -4 2 -2t5 4q0 -16 6 -13q0 -2 -4 -6q2 -4 4 -1t2 1q-2 -4 -1 -5t1 -5q4 -4 3 -1t1 5zM-127 51v4q0 2 1 2t1 2q-4 -6 -2 -8z" />
<glyph unicode="o" horiz-adv-x="606" d="M96 461q0 2 2 4q14 10 22.5 20.5t22.5 18.5v-2l4 4q23 55 76 94q14 14 32.5 28.5t35.5 20.5l28 13q12 2 23.5 3t24.5 5l4 2h4q6 2 9 0t9 -2q8 -2 16.5 -1t18.5 -3q2 0 2 -4h4q8 -2 19.5 -8.5t15.5 -6.5q4 -8 4 -6q18 -20 30.5 -49t2.5 -64q-6 -63 -24.5 -121.5 t-28.5 -78.5l49 16q31 6 39 14q25 10 40 20.5t40 20.5q4 0 5 6.5t5 6.5q14 6 18 8t6 4t6.5 5t16.5 9q4 4 6 8.5t6 6.5q4 -4 9.5 7t9.5 11q0 -2 -1 -2t1 -4q10 0 15 7t15 11q-2 -4 -6 -5t-4 -5q8 2 11 6t10 8q-2 0 -2 -6q6 0 12 4q2 -2 -1 -3t-3 -5q6 2 14 2q2 -4 2 -7t0 1 q4 0 0 -4t4 -8l-10 -10q0 -2 3 -2t3 2q0 -6 -7 -8.5t-7 -12.5l-4 -8q2 -2 4 0q2 -2 -2 -6q0 -4 -3 -5t-1 -1l-23 -19q-2 -2 0 -2q-10 -8 -18.5 -17.5t-20.5 -19.5t-21.5 -17t-25.5 -18l-12 -8q-41 -23 -66.5 -34t-48 -17t-50.5 -11t-73 -18q-18 -23 -24.5 -34t-10.5 -17 t-10 -14t-22 -25q0 -2 -2 -4q-23 -23 -50.5 -46t-52.5 -46q-23 -14 -52.5 -27.5t-59.5 -13.5q-16 0 -39 1t-37 7q-31 10 -43 29l-8 16q-10 18 -14.5 30.5t-4.5 39.5v25q2 20 0 19t0 13q4 8 3 16.5t1 12.5q4 12 6 24.5t7 22.5q2 2 2 4q6 6 8 15.5t6 17.5q23 51 40 84t50 74 q0 -4 3 2t5 4q0 2 2 2zM352 569l-4 -2q-29 -18 -55.5 -46.5t-40.5 -63.5q-6 -10 -19.5 -35t-15.5 -39q-2 -27 6 -44t33 -24q10 0 13 -2t10 -6q4 0 5 -1t3 -1q14 2 20 1t21 1q23 47 50.5 102.5t31.5 108.5q4 25 2 43.5t-19 24.5q-8 0 -4 0t-4 -2v2q-8 0 -6 -3t-4 -1 q-6 -4 -13.5 -5.5t-13.5 -7.5v-2zM262 225q-39 -4 -68.5 4.5t-50.5 30.5q-10 18 -11 23.5t3 23.5q-29 -29 -40 -54.5t-27 -78.5q-6 -23 1 -38t19 -34h9h1l2 1t9 1q12 6 27.5 11.5t27.5 15.5q18 14 28.5 20.5t16.5 11.5t14 12t25 26q0 2 2 1t2 1q-2 2 5 12t5 10z" />
<glyph unicode="p" horiz-adv-x="663" d="M418 627q4 0 6 1t4 1q4 8 16 8q4 4 10.5 4h8.5q8 -4 21.5 -2t13.5 -2q12 -8 24.5 -15.5t20.5 -21.5q16 -10 27.5 -24.5t15.5 -43.5q2 -10 1 -22t-1 -23q0 -4 1 -7t-1 -9q-2 -12 -6.5 -23.5t-6.5 -19.5q-20 -74 -63 -146.5t-78 -123.5q-4 0 0 -2t37 8l12 10q31 25 66 54.5 t78 70.5q12 10 19 19.5t18 19.5q6 8 6 7t4 9q8 0 10 10.5t6 6.5q2 2 11.5 15t18.5 27.5t18 27t12 10.5q4 6 7 9t11 7q0 -2 -1 -2t-1 -2l16 12q4 0 20.5 2t18.5 6q4 0 2 -2t-2 -6l4 -6q-2 -4 1 0t-1 -2q4 -2 4 1t4 1q0 -4 -1 -4t-1 -4q2 -4 3.5 0t1.5 0q0 -10 -5.5 -15.5 t-7.5 -15.5q-4 -12 -14 -30.5t-23.5 -38t-26 -37t-16.5 -27.5q-16 -14 -18 -15t-8 -12q-20 -25 -26.5 -34t-10.5 -15t-13.5 -14t-33.5 -29q-10 -10 -12.5 -12t-6.5 -8q-6 -10 -23.5 -16.5t-33.5 -26.5l-4 -2q-8 -10 -20.5 -15.5t-22.5 -13.5q-2 0 -3 -1t-3 -1q-2 -2 -4 -2 q-8 -8 -12.5 -10t-7.5 -2t-6 -1t-11 -8q-98 -45 -209 -69q-39 -6 -73 -8t-70 10q-6 2 -14.5 4t-12.5 6q-29 12 -52.5 31.5t-27.5 66.5q-23 -43 -38 -70.5t-27.5 -54t-25.5 -57.5t-34 -78q-4 2 -3 -7t-1 -9q0 -10 -2 -8q-23 -51 -43.5 -110.5t-50.5 -108.5v6l-8 -13v2 q-10 -2 -9.5 -3t-9.5 -3q2 4 -2 4t-4 4q-2 0 -2 2.5t0 -2.5q-4 6 -3 3t-1 -7q-4 2 -1 5.5t1 7.5q-4 -4 -6 -6.5t-6 -4.5v5q-4 0 -3 -2.5t-4 -2.5q-2 4 0 5.5t2 7.5q-2 -2 -2 -1t-4 -1q2 4 2 10q-2 4 -5 -1t-1 1h-2l-2 2v2q-10 4 -12 15.5t2 21.5q-4 2 -2 1t-2 -3q0 8 3 7 t3 9q-2 4 -1 2t-1 -2q-2 25 17.5 82t51 132t70.5 157t77 156.5t67.5 134t44.5 88.5q18 31 32.5 59.5t32.5 57.5q6 12 16.5 28.5t19.5 32.5t18.5 29.5t13.5 19.5q8 4 7 9t9 10q2 8 10 12h2v2q2 0 8.5 3t10.5 1q8 0 10 -5t10 -7q2 -2 0 -3t-2 -5l15 8q0 -2 -2.5 -2t-2.5 -4 q10 -4 16.5 -12.5t10.5 -18.5q2 -2 0 -3t-2 -3q8 -4 4 -12.5t0 -18.5q-6 -25 -19.5 -46.5t-23.5 -43.5q39 33 84 62.5t94 52.5q6 6 11 6q-2 -2 -5 -6q4 2 4.5 4t4.5 4v-2l2 2q2 0 6 2t6 0zM162 100q37 12 66.5 31t52.5 41q4 6 11 12t11 15q4 2 6 5t4 5q8 8 11.5 15t11.5 14 l22 28l13.5 22.5t17.5 22.5q10 18 21.5 37t21.5 41q4 10 9 19.5t10 19.5q8 20 16 44t2 46q-10 0 -16 4q-23 6 -63 -11t-64 -32q-27 -18 -47.5 -36.5t-36.5 -36.5q-61 -53 -113 -123q-6 -10 -9 -22.5t-14 -22.5q-16 -57 -19 -90t28 -48q8 -4 21.5 -4t25.5 4zM414 623q2 0 0 2 l-2 2q0 -2 -1 -4t3 0zM-233 -414q-2 0 2 4q-2 -2 -2 -4zM291 557q0 4 2 4zM414 625q-2 0 -2 -2z" />
<glyph unicode="q" horiz-adv-x="571" d="M72 -377q10 33 16 49.5t11 28.5t11.5 26.5t16.5 45.5q-2 4 2 3t6 1q-2 0 -1 7t5 11q-2 6 -22.5 11.5t-48 10.5t-59.5 10t-54 11q-2 2 -9 1t-9 -1q-14 4 -20.5 5t-16.5 1l-2 4l-15 7q-6 23 -3 31t5 8q4 0 9.5 4t9.5 8h4h4q10 0 7 1t7 1q-2 2 7.5 0t7.5 2q4 4 13 0t11 -2 q2 -2 10.5 -2t16.5 1t15 1t5 0q4 0 32 -1t77 -16l31.5 -9t21.5 -9q16 35 23.5 54.5t21.5 43.5q-2 0 -4 -2q8 20 19.5 44t19.5 50q2 8 3 9.5t1 0.5v-1l4 8q0 2 -2 4q6 14 10 14l6 19q-14 -14 -37.5 -40t-52 -50.5t-60.5 -44t-63 -19.5q-6 0 -11 -1t-13 3q-4 0 -8 -2 q-4 4 -13 4q-10 4 -21 7t-22 10q-6 8 -28 16q-2 4 -5 1t-3 5q0 14 -10.5 39t-10.5 43q-2 23 3 43.5t11 42.5q10 59 34 117.5t57 99.5q16 25 35.5 47.5t35.5 46.5q16 10 26.5 23.5t31.5 28.5q23 18 46 34.5t52 28.5q4 4 13 5t18 5l9 3t11 1q8 2 14.5 0t12.5 4q31 4 56.5 -11 t35.5 -42q8 -8 11 -27.5t7 -33.5q18 33 33.5 50t26.5 40q2 0 1 -2t1 -2q4 0 10 11t10 7q12 12 27.5 11t31 -9t25.5 -21.5t12 -27.5q0 -6 -3 -11t-7 -15q-4 -8 -14 -18.5t-14 -18.5q-8 -16 -9.5 -15.5t-9.5 -13.5q-2 -14 -14 -29q-4 -8 -8.5 -14t-8.5 -16q-6 -14 -16 -31 t-14 -33l-11 -20l-10 -15q-2 -4 -2 -7t-2 -5q0 -4 -2 -6l-6 -6q-2 -2 -2 -13q-4 -4 -9 -12t-8 -16q-12 -27 -25 -54.5t-24 -56.5q-10 -14 -15 -30.5t-13 -28.5q-8 -10 -10.5 -19.5t-6.5 -21.5q-10 -29 -26 -60q-8 -20 -12.5 -30.5t-8.5 -14.5q-2 -8 -5 -13t-3 -9 q-4 -2 -11 -20.5t-5 -22.5l-5 -8q-2 -10 -4 -14.5t-2 -12.5l88 -86q4 -8 11.5 -14t7.5 -17h2q20 -31 31.5 -58.5t27.5 -60.5q6 -35 11.5 -56t9.5 -56q-2 -2 -2 -4v-6q4 -10 -4 -25q-8 -35 -12.5 -56.5t-30.5 -60.5q-20 -29 -42 -52t-51 -48q-4 -4 -6 -7t-12 -9 q-16 -10 -29.5 -18.5t-31.5 -16.5q-8 -8 -17 -8q-8 -8 -23.5 -9.5t-33.5 -5.5h-33.5t-34.5 4q-33 10 -53 33q-16 16 -25.5 32.5t-13.5 33.5q0 4 -4 11t0 13q4 0 2 1t-2 3q-4 18 -3 59.5t11 71.5q6 12 5 22.5t3 24.5q0 4 16.5 51.5t39.5 106.5zM213 -270q-2 0 -1 -6.5 t-1 -10.5q-18 -39 -30.5 -64.5t-20.5 -48t-15.5 -47t-17.5 -63.5q2 -4 0 -5t2 -5q-8 -23 -12 -33t-8 -39q-4 -12 -3.5 -25.5t-1.5 -27.5q0 -2 -5 -7t5 -5q-2 -6 1.5 -8.5t0.5 -6.5q2 -31 6.5 -46t34.5 -34q8 -4 29 -4q25 10 49.5 26.5t45 35t33.5 36t18 27.5q4 14 9 20.5 t7 12.5q8 20 9 24.5t7 26.5q0 29 1 49.5t-2 41t-9 41t-20 48.5q-16 33 -43 64t-58 47zM346 512h-17.5t-17.5 -4l-39 -21q-10 -4 -18 -12t-21 -16q-18 -14 -35.5 -37t-33.5 -39q-25 -27 -42.5 -56.5t-33.5 -60.5q-23 -43 -39 -89t0 -103q16 -12 38 -3t34 19q4 4 8 4t8 4 q10 10 26.5 21.5t24.5 21.5q43 47 83 97.5t75 103.5l21 41q0 4 4 7t4 5q0 8 3 18.5t3 20.5q4 14 -5 28.5t-7 31.5q-8 2 -12.5 8t-10.5 10z" />
<glyph unicode="r" horiz-adv-x="583" d="M696 408q4 -8 6.5 -10.5t2.5 -20.5q0 -4 -5.5 -14.5t-11.5 -21.5t-12 -21.5t-10 -12.5q0 -2 -2 -4q-12 -31 -44 -74t-67 -84q-8 -8 -9 -10t-5 -5t-13.5 -13.5t-33.5 -34.5q-4 -10 -21.5 -24.5t-28.5 -24.5q-2 -2 -6 -2q-29 -29 -71 -47q-2 -2 -14.5 -7.5t-14.5 -5.5 q-10 -10 -24.5 -11t-26.5 -3q-35 -4 -67 6t-46 27q2 0 2 -1t2 -1q-8 14 -17 31.5t-14 39.5q6 84 35 142q16 41 43 85t53 83q12 20 26.5 38.5t26 34t13.5 24.5t-12 9l-76 -20q-10 -8 -21.5 -12.5t-25.5 -8.5q-6 -4 -11.5 -3t-13.5 -1q-2 0 -3 -1t-5 -1h-14q-4 2 -2 3t-2 -1 h-3t-6 -10q-12 -29 -25 -45.5t-24.5 -24.5t-20.5 -12t-16 -8q-16 -20 -34 -4q-16 14 -11.5 21t13.5 22l51 82q0 4 -12 16l-13 12q-20 14 -8 49t31 68q10 16 16 26.5t12.5 18.5t13.5 17.5t19 23.5q14 16 20.5 23.5t11.5 12.5t13.5 10t26.5 17v-6q4 2 4 4t4 7q4 -4 7 -3t3 5 q12 2 25.5 -8.5t22 -26t7.5 -31.5t-16 -27q0 -4 -3 -7t1 5q-12 -12 -17 -15t-9 -7t-12.5 -13.5t-26.5 -29.5q-12 -18 -15.5 -21.5t-9.5 -25.5q0 -14 5 -18.5t13.5 -3.5t18.5 5t16 7q8 0 13 8h6t12 2q10 4 4 2t6 2q8 6 37 13t43 13q12 2 22.5 6.5t20.5 2.5q8 -4 26.5 -2 t31.5 0l4 -2q4 0 8 -3.5t8 -3.5q6 -4 8 -6t6 -4q4 -8 9.5 -15t3.5 -18q0 -45 -22.5 -76.5t-43.5 -62.5q-12 -25 -38.5 -58.5t-43.5 -58.5q-29 -41 -51.5 -79.5t-30.5 -104.5q-4 -25 15 -39q10 4 11 2t11 -2q10 4 12 7t13 1q8 6 33.5 21.5t31.5 23.5q8 6 10.5 7.5t2.5 2.5 t2 2t8 7q12 14 15 17t6 5t8.5 7.5t19.5 23.5q12 12 28.5 27.5t24.5 27.5q2 0 10.5 12.5t17.5 27t17 26.5l8 12q6 8 16.5 26.5t24 37t28.5 33t28 16.5q2 2 1 -5t1 -3q4 4 14 2t6 -4zM268 659l-2 -2z" />
<glyph unicode="s" horiz-adv-x="559" d="M410 686q0 -2 -2 -2l10 -10q0 -10 5 -18.5t1 -8.5q-2 -2 0 -4t0 -4q0 2 -4 -6v-6q-2 0 -4 -1t-4 -1q-18 -10 -20.5 -19.5t-20.5 -23.5q-6 -6 -7 -8l-2 -1v-2t-4 -10l-8 -10q-18 -35 -28.5 -85t-10.5 -104q0 -25 1 -48t1 -46q0 -47 -6 -95t-20 -85q16 6 17 10t13 15 q16 10 30.5 22t31.5 25q29 33 59 59l21.5 21.5t41 42t40 44t20.5 27.5q4 8 10 11q4 4 6.5 9t6.5 7q18 23 25 35t32 30h4q12 10 23.5 19.5t27.5 17.5v-2q0 2 2 2t2 2q0 -2 2 -2q4 8 11 9q-2 0 -2 -1.5t2 -1.5t2 -2l16 5v-3h8v-2t2 -2l2 -2q4 -2 3 0t4 0q-2 -2 0 -4v-2 q0 -6 -2.5 -7t-2.5 -5q2 0 3.5 4t3.5 0q-4 -8 -11.5 -11t-11.5 -14q2 -2 5 1.5t7 5.5q0 -4 -5 -7.5t-7 -7.5q-4 -10 -13 -24.5t-18 -24.5q-23 -31 -37 -50.5t-27 -35.5t-29.5 -34.5t-41.5 -45.5q-2 0 -2 -2v-8q-2 0 -2 -1t-2 -1q-8 -4 -8 -5v-1l-1 -1t-9 -7q-2 -4 -5.5 -5.5 t-5.5 -7.5q-2 2 -3 0t1 -6q-10 4 -10 -6q-2 -2 -5 -4t-1 -4q-4 2 -4 -2t-4 -4q-2 -6 -6 -9.5t-9 -7.5v4q-6 -6 -4 -6h-6q-12 -10 -22.5 -22.5t-20.5 -22.5v-4q0 2 -2 0l-2 -2q-4 -4 -10 -7t-12 -11q-2 0 -2 -1t-3 -1q-53 -41 -92 -61.5t-80 -39.5l-41 -8q-8 -4 -16 -3 t-18 -1q-29 -4 -55.5 2t-49.5 16l-2 2q-10 10 -21.5 13.5t-21.5 13.5t-18 13t-15 18q0 2 -3 6t-5 6q-2 12 -7 20.5t-9 26.5q-4 10 -5 7t-3 7l-4 -6q0 8 1 12.5t-1 10.5q-4 4 -2 5t-3 -1q-4 2 0.5 2t4.5 4q-2 2 -11.5 -2t-19.5 -10t-19.5 -12.5t-13.5 -8.5q0 -4 -2 0 q-4 -2 -6 -6t-6 0q0 -10 -22.5 -9t-29.5 17q-4 10 3.5 27.5t21.5 22.5q-2 4 -4 0.5t-2 -0.5q2 4 6 5t4 5q0 2 10.5 13t22.5 25.5t21.5 26t7.5 11.5q0 4 4 4t8 4q2 2 2 4t4 6q10 12 21.5 24.5t19.5 28.5l9 13.5t11 11.5l48 55q10 10 20 24.5t25 24.5q2 4 9 11.5t9 15.5 q29 37 62.5 63.5t76.5 71.5q18 16 30.5 27.5t24 20.5t23.5 19.5t31 22.5v2q4 4 5 3t3 5v-4q2 0 3 4t5 4v-4q4 4 7 4t8 5q8 -2 11 -1t11 -4v-4q2 2 8 2q2 -6 4 -2t0 -6q2 0 3.5 -3t3.5 -3h2zM111 340q-4 -4 -9 -4q-29 -41 -63 -76q-4 -10 -12.5 -16t-6.5 -15q2 0 5 2 q2 -4 -9 -14v-27q4 -16 7.5 -24t5.5 -25q16 -16 27.5 -30.5t27.5 -26.5q10 -4 24.5 -11t24.5 -5q10 0 24.5 8t20.5 16q12 20 18.5 54t6.5 61q2 27 2 59.5v66.5t1 65.5t7 58.5q-23 -29 -49 -56.5t-53 -60.5z" />
<glyph unicode="t" horiz-adv-x="372" d="M532 455q0 -8 -1 -10.5t1 -6.5l-4 -26q-4 -6 -7 -11.5t-3 -9.5q-20 -23 -24 -37q-2 0 -2 -2v-2q-2 -2 -3 -4q0 -2 -2 -2l-6 -6l-16 -23l-6 -6q2 -10 0 -4t-8 -4q-10 -12 -13.5 -17t-6.5 -10.5t-8 -11.5t-17 -18q-12 -18 -25.5 -33.5t-28.5 -30.5l-6 -4q-4 -6 -7 -12 t-13 -10q-10 -14 -13.5 -17.5l-5.5 -5.5t-6 -5t-16 -17q-10 -2 -21 -17q-16 -12 -24.5 -20.5l-15.5 -15.5t-16 -14t-26 -15q-12 -8 -16 -11.5t-7 -4.5t-7.5 -4t-16.5 -9q-10 -4 -18 -5t-19 -5q-23 -10 -62.5 -6t-55.5 32q-12 14 -19.5 37t-9.5 47.5t0 51t6 49.5 q18 98 59 181t88 155q12 20 21.5 35.5t19 29.5t19.5 28.5t24 33.5q0 6 3.5 10t7.5 10q-8 -2 -24.5 -4t-35 -3t-36 -1h-29.5q-18 4 -19.5 17.5t7 27.5t20.5 25.5t20 13.5q8 4 23.5 5t26.5 3q25 0 38 1t24 3t23.5 4t32.5 2q10 10 22.5 29.5t20.5 32.5q10 18 28.5 39.5 t35.5 48.5q33 51 61.5 56t42.5 -30q0 -2 1 -3t1 -5l13 -22q0 -4 -4.5 -5.5t-4.5 -5.5t3.5 -3t3.5 -1l-19 -30q-2 -2 -1 -4.5t-1 -4.5l-65 -86q35 2 54 4t31.5 3.5t23.5 1.5t30 -3q14 2 15 -10t-6 -27.5t-19.5 -28.5t-26.5 -13q-2 0 -10 2t-8 -2q-29 -4 -42.5 -5.5 t-23.5 -2.5t-24.5 -2t-43.5 -7q-23 -29 -64.5 -84t-88.5 -141q-8 -14 -12.5 -19.5t-7.5 -9.5t-7 -11t-12 -26q-6 -16 -11 -23t-11.5 -17.5t-15.5 -28t-26 -49.5l-14 -35q-6 -12 -10 -25q-2 -6 -4 -10q-2 -10 -6.5 -26.5t-6.5 -35t-1 -34t12 -23.5q4 0 8 -2t10 -3t15.5 2 t23.5 13q31 23 53.5 42.5t43 40t41 43t44.5 49.5q16 18 33.5 39.5t34.5 41.5l49 66q2 0 0 -2t2 -2v4l2 -2q4 4 6 9t6 7q4 0 6.5 9.5t8.5 9.5q4 12 21.5 13t27.5 7q2 -4 6 -5t6 -5q0 4 4 4q-4 -10 1 -6t1 -6q4 -4 5 -2t-3 -2q4 -4 4 -2z" />
<glyph unicode="u" horiz-adv-x="708" d="M672 164q0 -8 -9.5 -9t-7.5 -5q-20 -25 -23 -30t-4 -5t-7.5 -4.5t-30.5 -28.5q-6 -2 -6 -6t-9 -8l-10 -5q-10 -4 -22.5 -14t-18.5 -16q-25 -16 -54.5 -25.5t-63.5 -3.5q-20 4 -27.5 4t-28.5 17q-4 4 -8 9t-10 11l-10 12q-2 10 -11 23q0 2 1 2t-1 4q-6 10 -8 30.5t2 37.5 q-2 16 1 25t5 26q-12 -16 -21 -31.5t-26 -26.5q-4 -2 -5 -6t-3 -6l-8 -6l-21 -20q-16 -14 -31.5 -26.5t-31.5 -25.5q-6 -10 -14.5 -13t-22.5 -13q-29 -18 -72 -30.5t-78 -2.5q-4 2 -14 6t-14 8q-2 2 -7 3t-10 1q-16 16 -26 37q-4 10 -8 19.5t-2 21.5l4 40t8 36l31 84 q4 12 8 24.5t12 24.5q8 18 17.5 33.5t19.5 34.5q14 25 21.5 41t15.5 26l14 17.5t12 17.5q2 6 5.5 10t5.5 9q4 4 8 9t8 13q6 8 11 16.5t18 18.5q6 10 14 19.5t18 19.5q4 0 2 2t3 6q18 23 46.5 19.5t45.5 -31.5q4 8 8 -2.5t4 -22.5q0 -4 -3 -13t-3 -14q2 -2 -3 -3t-5 -3l-4 -8 q-4 -4 -6.5 -6t-2.5 -8l-45 -64q-4 -8 -11 -15t-11 -17l-19 -33l-22 -41q-4 -6 -9.5 -13.5t-9.5 -15.5q-10 -10 -13 -20.5t-7 -20.5l-27 -55q-4 -16 -9 -26.5t-9 -22.5t-2 -23.5t2 -21.5q10 -16 30.5 -10t34.5 16l144 125q2 0 8 8t13 17.5t13.5 17.5t8.5 8q33 37 58.5 68.5 t50 63.5t48 65.5t54.5 72.5q4 0 4 1t2 1l8 19q4 -2 7 2t7 6t0 4t2 6q4 4 6.5 7t10.5 -1q4 0 4 3t4 6q8 2 13 -1.5t18 -1.5q4 -2 4 -7t8 -1q0 -4 -1 -5t1 -5t8 -7t6 -7t4.5 -7.5t8.5 -9.5q4 -14 -4 -26q-4 -4 -8.5 -7.5t-4.5 -9.5l-73 -98q-29 -51 -47.5 -93t-41.5 -97 q-8 -23 -12 -41.5t-4 -46.5q-2 -33 0 -38.5t16 -7.5q39 2 68 29t70 68q4 6 5 6h2t2 1l5 5q2 2 9 10t13.5 16.5t11.5 15.5l5 7q2 6 6 5t6 7q10 8 14.5 14.5t8.5 11.5t8 12t14 18q10 18 13.5 21t17.5 18q4 4 6 4l12 22q2 0 4.5 3t4.5 3q2 -2 4 3.5t6 5.5q4 2 8 -1t6 1 q0 -2 3 1t3 -1q2 8 9.5 6t5.5 -4q4 0 8 -4l6 -35q4 -4 2 -8.5t2 -6.5q-14 -37 -37.5 -63.5t-44.5 -54.5q-4 -8 -11 -16.5t-11 -14.5q-8 -12 -9.5 -15.5t-3.5 -3.5z" />
<glyph unicode="v" horiz-adv-x="589" d="M426 543q20 33 34.5 51t23 29.5t11.5 15.5t5 8q4 0 9 3t13 7q8 0 7 3.5t1 -7.5q8 4 11.5 -4t13.5 -10q-6 -8 4 -11t6 -7q0 -2 1 -8.5t1 -10.5q0 -10 -7 -23.5t-7 -19.5q-10 -12 -10 -18t-8 -21q-8 -14 -7.5 -14t-3.5 -19q-8 -12 -9 -25t-1 -28q-2 -23 9.5 -44t27.5 -23 q8 -2 3 -4.5t5 2.5q14 4 17 4h4l3 2t17 12q23 14 30 23.5t25 25.5q8 10 9 12l2 2l1 4q1 3 11 13q2 4 6 8l2 2l6 6q4 -4 4 3t6 12v-2q4 0 11 2v-5q4 2 4 6.5t2 4.5q0 -4 6 -4t8 2l6 -4v-2q0 -4 2 0t2 0q8 -8 8.5 -18.5t2.5 -6.5q4 -6 -4.5 -13.5t-1.5 -15.5q-6 -12 -9.5 -18 t-5.5 -10t-6 -8.5t-12 -12.5q-18 -20 -21 -25l-2 -6l-3 -3t-23 -21q-8 -2 -14.5 -11.5t-16.5 -15.5l-49 -22q-12 -6 -9 -3t-4 1q-8 -4 -6 -4h-2q-8 -2 -9 -5l-1 -2l-1 1q-1 1 -7 6q-10 -2 -11 -1t-18 1q-35 16 -56.5 43.5t-23.5 78.5q-18 -25 -47 -60.5t-59.5 -72.5 t-61 -70.5t-53.5 -54.5q-14 -16 -27.5 -27.5t-27.5 -25.5l-29 -22q-10 -8 -22.5 -21.5t-24.5 -21.5q-23 -18 -44.5 -30.5t-59.5 -14.5q-14 0 -35 10q-6 0 -14.5 2t-12.5 8q-4 4 -8 15.5t-4 19.5q-2 0 -2 8q-2 2 -2 10q-2 16 2 23.5t4 21.5q0 4 2 8q0 4 1 6.5t1 4.5 q2 16 4 30.5t12 30.5q4 16 12.5 32.5t14.5 33.5q4 14 9 25.5t9 25.5q4 23 13.5 46.5t19.5 45.5q27 53 47.5 107.5t46.5 107.5q2 4 7 4q6 27 24.5 32t35.5 -4t29.5 -27.5t8.5 -37.5q0 -2 1 -2t1 -2q0 -8 -12 -26q-4 -8 -9 -25q-4 -23 -20 -47l-41 -96q-10 -25 -21.5 -49.5 t-19.5 -49.5q-10 -25 -21.5 -50t-19.5 -50q-6 -16 -14 -36.5t-4 -29.5q12 4 26.5 15.5t22.5 19.5q23 16 41 35t37 39q10 10 20 19.5t16 19.5q20 16 37 35.5t31 40.5q27 20 43 43q0 4 2 6t4 2q6 10 13.5 19.5t15.5 21.5zM743 496q-2 -2 -4 -2q2 2 4 2z" />
<glyph unicode="w" horiz-adv-x="962" d="M1161 500q0 -4 -2 -3t-4 -3q2 -4 2 -11.5t-4 -11.5q0 -2 -1 -11t-1 -7q-16 -35 -56 -79t-73 -69l-18 -12q0 2 -23 -8q-14 -6 -17 -7l-3 -2l-3 2q-2 1 -14 -2q-6 -2 -12 -2t-17 2q-20 2 -27 2.5t-12.5 2.5t-10.5 5t-21 11q-2 2 -10.5 11t-12.5 9q-4 14 -7 22.5t-4 14.5 t-2 14.5t-3 24.5q-41 -53 -80 -107.5t-81 -104.5t-89 -93t-102 -74q-6 -2 -8.5 -3t-6.5 -1q-4 -6 -9 -7t-13 -3q-4 -2 -2 0t0 4q-12 -6 -26.5 -11t-25.5 -1q-8 2 -13 1t-9 1q-35 6 -55 26q-2 4 -7.5 10.5t-9.5 12.5q-8 8 -9 17.5t-7 17.5v13v11.5t1 17.5t1 30 q-10 -6 -25.5 -22.5t-27.5 -27.5q-10 -10 -21.5 -17t-21.5 -20q-41 -41 -99 -65q-14 -4 -31.5 -6t-29.5 -2v2l-2 4q-4 2 -6 2t-4 2q-4 4 -13.5 8t-13.5 4q-4 4 -8 5t-6 10q-4 -2 0 -6.5t0 -2.5q-4 8 -4 19.5t-4 19.5q-4 -2 -2 -4t-3 -4q-10 49 0.5 95t22.5 89q14 39 27.5 76 t29.5 72l13 22q16 29 22 46.5t23 35.5q4 6 8 12.5t8 16.5q10 12 25.5 41t25.5 39q6 10 10.5 14t10.5 8q12 8 28.5 2t30.5 -19t22.5 -31.5t4.5 -32.5t-11.5 -25.5t-15.5 -26.5q-8 -12 -16 -28.5t-13 -20.5q-27 -43 -47 -85t-43 -93q-12 -27 -22 -54.5t-16.5 -49t-6.5 -32.5 t10 -5q31 12 49.5 24.5t39.5 34.5l32 35q20 25 43 49.5t45 52.5q20 25 40 48.5t38 52.5q14 25 31.5 52.5t32.5 49.5q10 4 13 13.5t7 19.5q10 8 17.5 19.5t13.5 15.5l6 4q23 16 45.5 -5.5t15.5 -68.5q-4 -23 -20 -39q-2 -4 -7 -11t-5 -18l-3 -6t-6.5 -12t-5.5 -11l-2 -5h-4 v-4l-8 -11q-4 -14 -8 -24.5t-12 -20.5l-7 -10q-10 -10 -15 -26.5t-11 -32.5l-23 -60q-8 -20 -12 -40.5t-3 -36t7 -25.5t16 -8q16 0 20.5 3t14.5 9l33 27q92 78 160.5 174t138.5 198q10 14 15.5 32.5t11.5 37t16 35t29 26.5q16 4 20 3t17 -3q4 -12 12 -23.5t8 -23.5l8 -6 q0 -2 -2 -4t-2 -6q4 -10 3 -24.5t-5 -26.5q4 -10 -3 -22.5t-11 -22.5t-7 -26.5t-2 -34t5 -32t16 -20.5l10 -12l19 -11q2 0 4 1t6 1q14 2 14 0l11 5q10 6 7 3t7 1l18 12q12 8 16.5 10t6.5 4t5 6.5t15 16.5q12 4 18.5 23.5t18.5 25.5q2 0 2 3t4 1q4 8 11.5 13t11.5 12v-4 q4 0 8 7t8 9q2 -4 8.5 5t8.5 5q4 0 5 1t5 -1q4 0 2 -6t2 -6q-2 -4 -1 -2t-1 -2q2 0 5 -1t7 -1z" />
<glyph unicode="x" horiz-adv-x="614" d="M434 41q-16 -8 -24.5 -14.5t-19.5 -12.5t-28.5 -12t-54.5 -12q-49 -10 -72.5 -3t-52.5 29q-4 -2 -8 3.5t-10 9.5q-8 10 -14.5 17t-16.5 20l-10 49l-17.5 -12.5t-4.5 -3.5l-4 -4t-17 -15q0 -2 -1 -3t-1 -3q-4 -2 -4 -3t-4 -1q0 -4 -2 -6.5t-2 -6.5h-5q-2 -8 -14 -16 q-10 -4 -16 -14.5t-15 -18.5q-2 -2 -2 -4l-4 -4h-4q-8 -10 -8 -12t-10 -8h-2q-6 -4 -11.5 -10.5t-13.5 -14.5v6q-2 0 -2 -2t-2 2q-8 -4 -11 -9t-7 -11q2 4 2 6t2 4q-4 0 -4 -2t-2 -2q-4 0 -3.5 1t-3.5 3l-6 -4q-2 2 -1 3t-1 3q-6 -4 -8 -6v4v2q2 2 2 12q0 4 -1 1t-3 -3 q2 6 2 10h-4q2 4 4 4t2 3h-6q0 4 2 6t2 6q-4 0 -3 -2t-1 -4q2 12 9 21t11 24q0 2 -1 -1t-1 1t-2 4q6 6 9.5 14t13.5 17q2 4 -1 3t-1 1q33 43 50 63.5t31.5 36.5t32 34.5t54.5 59.5q4 23 8 41.5t8 36.5q-10 0 -6 6q4 4 4 10.5t-4 6.5q2 4 -1 25.5t-12.5 47t-20.5 48t-23 28.5 l4 2q-2 6 -6.5 24.5t0.5 20.5h2q4 4 7 15.5t5 15.5q8 2 9 3l5 5q23 -4 38 -9t36 -40q4 -6 10 -15.5t8 -13.5q8 -16 21.5 -61t15.5 -92q23 29 54.5 58.5t66.5 59l70 59t65 56.5q10 6 16.5 13.5t16.5 11.5l8 6q10 0 17 6q2 0 1 -3t1 -5q4 2 6 2t6 6q0 -8 14 -12q0 -8 6 -2v-17 q0 -2 2 -2h5q2 -4 -3 -12q0 -4 7 -4q0 -2 -2 -2t-2 -2q0 2 6 -4q-4 -6 -5 -12.5t-6 -16.5q-86 -84 -174 -164t-172 -166q-2 -29 0 -64.5t15 -52.5q14 -4 18 -14q18 -2 25.5 -4t8.5 -3l1 -1l6 2q49 10 127 59.5t170 161.5l10 12l2 7q8 4 12.5 17t10.5 17q6 0 10 10.5t10 10.5 l11 12q2 -2 5 2t6 8.5t6 7.5t5 1q6 0 6 -11l8 11q0 -4 2.5 -2t2.5 0q-2 -8 4 -13q2 -4 -1 -6t1 -6q2 -4 4 -2t4 -2q-4 -10 -4 -9t-6 -5q2 -2 2 0q0 -2 -3.5 -6.5t1.5 -8.5q-2 -4 -3.5 -6t-1.5 -10q-39 -72 -100 -146.5t-137 -126.5zM127 356l-2 -4q0 2 2 4zM125 352v-2v2z " />
<glyph unicode="y" horiz-adv-x="600" d="M575 -264q-4 2 -4 -8l2 2l2 2q2 0 3 2l8 -6h-4q-6 -4 -7 -7q0 -4 -1 -2t-1 5h-2v2q2 0 2 2l-2 -2v2l-4 -7q-2 0 -3 2.5t-5 4.5q-4 0 -3 -2t-1 -2q-10 2 -17.5 2h-17.5q0 -2 -10 1t-12 -1q0 4 -38 4t-85 -6.5t-89 -17.5t-48 -25q0 -4 -6.5 -12.5t-8.5 -8.5q-2 -2 1 -3 t-1 -5q-18 -39 -29.5 -62.5t-21.5 -44t-22.5 -44t-32.5 -62.5q-41 -80 -70 -138.5t-37 -66.5q-8 -16 -18 -27.5t-19 -27.5q-10 -18 -25.5 -40t-31.5 -42.5t-32.5 -39t-26.5 -26.5q0 -4 -2 -5t-2 -3q-2 -6 -10.5 -11t-18.5 -9q-33 -37 -90 -62q-16 -10 -37 -12t-39 0 t-30.5 10t-28.5 17q-10 14 -20.5 21t-16.5 17q-6 12 -2 19q-8 16 -12.5 30.5t-6.5 34.5q-2 8 -2 16.5v12.5q2 39 7 76t14 72q14 55 29.5 82.5t37.5 68.5q6 10 12.5 18.5t10.5 12.5q0 2 1 2t1 2l2 2q2 0 2 2l2 4q33 39 58.5 60.5t66.5 56.5q41 31 79 55.5t85 48.5q2 0 2 2 q2 0 4 2q6 8 15 9.5t24 11.5q45 14 73.5 27.5t77.5 29.5q10 10 12.5 17.5t6.5 17.5q2 4 2 8q2 2 13 27.5t23.5 55.5t24 57.5t13.5 33.5l75 185l6 16l7 10l14 35q-12 -10 -23.5 -21.5t-21.5 -19.5l-12 -14l-41 -37q-10 -10 -22.5 -21.5t-24.5 -17.5l2 2h-2q-2 0 -2 -2 l-19 -16q-6 0 -6 -5q2 2 6 3l-47 -35q-10 -8 -23.5 -12.5t-23.5 -14.5q-4 4 -8 2t-11 -4q-2 -2 -6 -2h-2q-14 -4 -29.5 -4t-23.5 4q-4 2 -7 0t-3 0l-2 4q-4 0 -11.5 5t-11.5 7v-4q-2 2 -2 6q-2 0 -6 5q-10 4 -12 11t-4 21q0 8 -4 13q-2 0 -3 6q-4 4 0 16q0 4 1.5 8t1.5 11 q6 35 9 57t13 45q2 18 8 32.5t15 30.5q4 16 11 29.5t11 30.5q4 6 9 12t5 14q4 14 19 29l88 148q4 2 5 7t5 9l31 43l24 33q23 16 46.5 -0.5t27.5 -34.5q0 -6 4 -8l4 -4q2 -4 1 -9.5t1 -9.5q-2 -4 -2 -14q-4 -10 -10 -19.5t-10 -15.5q-31 -37 -57.5 -83t-55.5 -93 q-14 -25 -26.5 -50.5t-26.5 -54.5q-8 -14 -13 -28.5t-12 -30.5q-4 -14 -6 -31.5t6 -33.5q10 -2 22.5 4t16.5 10q23 16 46.5 35.5t43.5 40.5q18 10 29 24q80 72 139 148q29 29 52.5 60.5t42.5 60.5q10 18 20 37.5t25 29.5q2 10 6 15.5t8 13.5q6 0 6 4l2 2l8 12q6 12 25 25 q14 10 35 0q8 -6 16 -23q10 -10 13.5 -22.5t-3.5 -28.5q-4 -4 -6 -10t-6 -15q-2 -8 -10 -20q0 -10 -3 -14t-7 -9q-10 -14 -16.5 -24t-12.5 -23q-12 -16 -19.5 -35.5t-19.5 -35.5l-63 -146l-27 -69v-4q-10 -20 -16.5 -34t-4.5 -9l-63 -154q-23 -47 -35 -82t-29 -82 q10 0 22.5 3t23.5 7q41 12 69.5 14.5t42.5 2.5q-2 2 16.5 2t28.5 -2q31 0 45 -8q2 -2 3 1t3 -4q-2 -4 16.5 -4t18.5 -4q8 -2 6 -8t7 -8v12q4 -2 2 -14t6 -12q2 -2 2 -14.5t-4 -16.5v-2h-2l-4 2zM104 -358q-43 -10 -87 -37t-89 -56q-39 -25 -65.5 -45t-49 -40.5t-42 -44 t-43.5 -56.5q-6 -14 -10.5 -20.5t-7.5 -10.5t-7 -11l-12 -21l-15 -43q-8 -12 -16 -40t-11 -58.5t-1 -61.5t14 -51q6 -12 27 -9q41 6 63.5 29t57.5 55q0 6 4 8.5t6 6.5q6 0 6 5t6 7q12 20 25.5 34.5t21.5 31.5q25 31 31 44t20 42q4 4 4 6t5 6q25 49 43 79.5t33.5 59.5 t33 62.5t41.5 87.5q0 2 3 7t1 5zM344 221q-2 0 -2 -2z" />
<glyph unicode="z" horiz-adv-x="710" d="M770 -109v7q-4 -4 -8 -1t-8 1l6 -13q-6 4 -8 1t-11 1l-2 -4l-4 -4h-2q-2 0 -3 1t-3 1q-4 -2 -1 -2t1 -2t-4 -1t-2 -3q-23 4 -43.5 0t-44.5 0q-2 -4 -1 -1t-3 1q2 2 -10.5 0t-28 -5t-31.5 -6t-24 -5q-14 0 -21 -2q-4 0 -7 -3.5t-5 -3.5h-8q-27 -4 -47.5 -12t-47.5 -16 q-25 -45 -58.5 -101.5t-66.5 -93.5q-8 -20 -20 -36.5t-27 -37.5q-10 -12 -12 -15t-3 -6t-4 -7t-13 -17q-37 -53 -80 -103t-88 -99q-12 -18 -32 -39t-40 -39q-16 -18 -37.5 -39t-46.5 -31q-10 -10 -21.5 -17t-23.5 -18v-4q-31 -25 -80 -41t-90 0q0 6 -10 6q-10 8 -20.5 16.5 t-16.5 14.5q-10 14 -14.5 30.5t-4.5 31.5q0 2 -3 5t-5 9q-2 14 -2 34.5t4 43.5q0 14 3 25.5t5 23.5q4 29 15.5 55.5t25.5 53.5q10 16 15.5 30.5t15.5 24.5q4 8 9 16t14 17q8 10 10 14t4 6t6 5t17 16q0 2 -1.5 -0.5t-1.5 0.5q-2 0 1.5 3t5.5 5q2 4 4 5t6 5q6 4 10 10t8 10 l31 31l33 21q31 23 62.5 43t66.5 43q18 8 32.5 17t30.5 20q16 10 35 19t35 17q59 27 119.5 47.5t120.5 40.5q45 72 63 99.5t26.5 40t15.5 26t30 56.5q16 35 23 56t18 46q4 23 4 49.5t-21 42.5q-10 6 -26.5 2t-35 -13t-34.5 -19.5t-27 -14.5q-23 -10 -51 -35.5t-51 -42.5 l-22.5 -18t-25.5 -16.5t-26.5 -5.5t-25.5 14q-4 10 -10.5 18t-2.5 25q0 8 7 20q4 25 19 44.5t26 41.5q4 10 13 20.5t13 20.5q10 23 31 45q0 4 2 6q4 8 16.5 23.5t16.5 26.5q12 20 30.5 47.5t22.5 54.5q-10 6 -33.5 -5t-50.5 -30.5t-54.5 -45.5t-45.5 -46 q-16 -18 -17.5 -22.5t-17.5 -20.5q-4 -8 -12.5 -17.5t-18.5 -19.5q-4 -10 -10 -11t-10 -9q-8 -4 -9 -5l-4 -4q-16 -6 -28.5 2.5t-22.5 14.5q-4 10 -5 10t3 16q0 8 2 11l12 18q4 10 8.5 17.5t14.5 17.5l27 37q29 33 55.5 63.5t64.5 57.5q16 14 33 25t35 24q29 14 55.5 26.5 t63.5 1.5q2 -2 5 -2t5 -2q8 0 10 2q8 -4 19.5 -12t15.5 -14q8 -12 8 -15q4 -6 7.5 -20t5.5 -25q-2 -4 -2 -8v-6q-4 -25 -19.5 -55.5t-34 -61t-37 -57.5t-30.5 -41q78 47 125 58.5t59 7.5q10 -4 11 -2t9 -3q18 -8 28.5 -14t21.5 -25q29 -45 18.5 -106t-35.5 -127 q-16 -43 -27.5 -66.5t-21.5 -42t-22.5 -38t-28.5 -56.5q14 6 40.5 13.5t57.5 13.5t60.5 8t52.5 0q20 -2 39.5 -3t38.5 -5q4 -2 9 -5t15 -1q0 -8 10 -15q-2 -4 -4 -2t-4 0q4 -8 4 -12q-4 -2 -4 -4t-2 -2l2 4q-8 0 -10 -2v-4q0 -2 1 -3t1 -3l6 6v-19q-4 -4 -5 -1t-3 1z M217 -238q-16 -2 -31.5 -12t-29.5 -14q-47 -18 -82 -34.5t-67 -33t-62.5 -37t-65.5 -51.5q-16 -10 -29.5 -22.5t-23.5 -22.5l-12 -16q-27 -27 -48.5 -53.5t-44.5 -61.5q-16 -29 -29.5 -62.5t-15.5 -78.5q0 -25 4.5 -54.5t20.5 -33.5q10 2 18.5 6t16.5 6q16 6 30.5 12 t24.5 17q35 23 65.5 49t61.5 55l55 59q23 29 46.5 59t46.5 62q14 14 20 21.5t9 12.5t6 11t14 21q6 4 8 8l4 8q6 12 13 21.5t10 19.5q10 4 12 10q20 27 43.5 68t44.5 70q-10 -2 -19.5 -3.5t-13.5 -5.5z" />
<glyph unicode="{" horiz-adv-x="595" d="M940 1409q-4 0 -5 1t-5 1q0 -4 -2 -8h-4q-6 -8 -17.5 -8t-23.5 -2q-66 -12 -122 -41t-104 -68q-12 -23 -16 -49.5t-2 -60.5q0 -10 1 -20.5t1 -18.5q2 -12 3 -22.5t1 -20.5q0 -4 -1 -10.5t-1 -12.5q2 -27 0 -51.5t-6 -48.5q0 -12 -5 -27.5t-9 -32.5q-4 -12 -8.5 -27.5 t-8.5 -25.5q-18 -51 -41 -100q-16 -23 -29.5 -43.5t-29.5 -36.5q-16 -23 -34.5 -38t-39.5 -32h-4q-12 -14 -28.5 -23.5t-32.5 -19.5q4 -25 6 -50.5t-4 -49.5q0 -23 -8.5 -44.5t-12.5 -39.5v-14q-4 -4 -4 -9l-10 -30l-6 -23l-78 -201q-14 -45 -33.5 -85t-32.5 -91q2 0 2 3 t2 5q0 -10 -6 -21t-8 -24q2 -2 0 -8q0 -4 -1 -4t-1 -2q-2 -27 -5 -49.5t1 -50.5q2 -16 1 -23.5t-1 -11.5t2 -8t12 -15q20 -29 45 -43t45 -30q-4 0 -9 1t-9 1q4 -4 12 -13.5t17 -13.5q4 -4 5 -12t5 -17q-4 0 -5 -3t-5 -3l2 -10q-4 -4 -9.5 -5t-5.5 -5l-18 6q0 -4 2 -5t0 -5 q-16 4 -26.5 5t-26.5 9q-2 4 -2 2t2 -6q-45 12 -84 43q-4 -2 -4 1t-2 -1q-29 29 -41.5 45t-18.5 57q-16 113 8.5 207t53.5 178l59 174l37 97q0 8 -2 10q6 10 8 26.5t6 32.5q2 14 5 22.5t-1 18.5q-4 4 -4 12.5t-4 14.5q-10 6 -23.5 14t-23.5 19q-14 23 -18 55q-4 14 2 25.5 t10 21.5q6 4 11 14.5t20 6.5q6 8 20 8q8 0 18.5 3t18.5 1q10 -2 17 -10.5t18 -8.5q121 61 178 174q8 27 19.5 51.5t21.5 51.5q6 29 11 57.5t9 59.5q4 43 -3 89t1 91q0 8 1 15t1 14q2 14 2 23t11 17q16 61 58 96.5t91 59.5l41 19l51 12q12 6 24.5 7t24.5 5q10 4 15.5 7 t15.5 -1q4 -4 4 -12q16 0 25.5 1t25.5 -3q2 -8 6.5 -8t8.5 -4q-2 -2 -4 -2h-4q0 -4 8 -4q4 -10 8 -11q2 -4 -2 -2t-2 0q-2 -4 2 -5t6 -5q2 -10 -8 -31q4 -2 5 -3t1 -7zM909 1479q2 -2 4 -2t5 2h-9z" />
<glyph unicode="|" horiz-adv-x="520" d="M373 438q-12 -20 -21.5 -43.5t-19.5 -44.5q-2 -4 -3 -7t-5 -5q-4 -25 -15.5 -42t-19.5 -40q-10 -23 -19.5 -46.5t-21.5 -45.5q0 -8 -3 -12.5l-7 -10.5v-6q-12 -23 -21.5 -48.5t-23.5 -43.5q0 -4 2 -5t-2 -3q0 -4 -1.5 -3t-3.5 -1l-22 -66q-8 -8 -9 -17t-7 -14q2 -4 1 -6 t-1 -6q-4 -6 -9.5 -13t-3.5 -18h-2q-10 -39 -20 -61q-2 0 -2 2q-4 -2 -1 -3t1 -5l-23 -53q-4 -29 -14 -37q2 -4 1 -6t-1 -7q-10 -10 -14.5 -27.5t-14.5 -27.5l2 6q-8 0 -8 -10q-4 -2 -4 4l-4 -8t-4 -14q-4 10 0 16t4 12q-4 -4 -5 -8t-5 -6v4q-2 0 -1 -2t-2 -4v6 q-4 -4 -5 -11t-5 -11q-4 4 1 10t1 10l-2 -4q-8 4 -6 4q-4 -4 -5 -7t-3 -7v2l-2 4l-2 -6q0 6 2 9t0 7q-4 0 -3 -3t-1 -3q2 0 0 6q-4 -2 -2 6t0 6q0 4 -1 5.5t-3 9.5l-7 -13q-2 6 -1 11.5t-1 9.5q-4 0 -3 -2t-3 -2q2 4 3 4t1 4l-10 25v16t-4 18q16 47 30.5 84t33.5 82 q0 8 3 12.5t3 8.5q16 41 30.5 84t32.5 84q51 137 111.5 262t120.5 254q16 29 31.5 60.5t33.5 60.5q2 18 19 41q0 2 2 3t0 5q8 14 9 15t0 -1t1 -1t12 17l74 123v7q23 31 39 62.5t37 59.5l10 17q6 6 26.5 41t44 73.5t45 72.5t27.5 40v8q16 10 36 5t36 -13q4 -4 2 -8v-10t4 -6 q8 -16 16.5 -22.5t4.5 -23.5v-6q-6 -10 -10.5 -17t-4.5 -17q-45 -66 -94 -145t-98 -161t-95.5 -163.5t-82.5 -155.5q-4 -10 -10.5 -19.5t-10.5 -19.5q-4 -8 -7 -12t-3 -15h-4l-21 -41h-2q-4 -10 -6 -21t-12 -18v-8zM-8 -358q0 2 2 2z" />
<glyph unicode="}" horiz-adv-x="630" d="M-74 -393q-10 -6 -23.5 -15.5t-27.5 -13.5q-2 4 1 5t5 7q-4 0 -8 -5t-10 -7h-4l-17 -6q-8 -2 -16 -3t-19 -7q-20 -4 -49 -4q-2 0 -3 1t-3 1t-2 -1t-4 -1q-6 0 -9 1t-7 1q-4 6 -11.5 6t-17.5 4q-6 6 -15.5 10t-15.5 14q-4 10 -8 21.5t0 28.5l12 20q0 8 2 8q6 10 13.5 8 t13.5 7q8 -4 12 -1t11 3q4 0 4 -3t2 -3q4 -2 12 -4.5t10 -2.5q12 -2 24.5 -3t22.5 -1q25 -4 42.5 3.5t35.5 21.5q25 23 46.5 45t39.5 49q14 16 25.5 34.5t23.5 41.5q6 14 10.5 30.5t14.5 39.5q12 20 16 45q0 10 3 22t5 23q6 37 13.5 71.5t11.5 69.5q10 47 19.5 95t21.5 93 q4 10 9 21.5t9 25.5q2 12 7.5 23.5t7.5 22.5l4 14l12 14q6 16 16.5 32.5t22.5 33.5q12 20 28.5 34.5t33.5 30.5q14 10 24 21.5t27 21.5q-16 16 -26.5 38t-22.5 42q-18 57 -11.5 113.5t25.5 105.5q8 37 22.5 73t30.5 69l17 28q2 2 1 3t1 3q2 4 6 10.5t8 10.5l27 45 q25 35 38 78q4 12 6.5 25.5t2.5 31.5q-4 14 -7.5 19.5t-7.5 15.5q-8 0 -14 2t-16 2q-8 0 -18.5 -5t-14.5 -5q-8 0 -14.5 4t-16.5 2l-16 18q-4 8 -6 16.5t-7 18.5q12 8 13 21q10 10 17 21t22 16q14 2 25.5 7t25.5 3v2q23 4 48.5 -3t35.5 -32h6q10 -4 13 -13.5t9 -19.5l11 -8 q2 -6 3 -15.5t5 -17.5t5 -14t3 -16q0 -4 1 -9.5t1 -9.5q0 -10 -1 -19.5t3 -19.5q-10 -53 -26 -96q-10 -23 -23.5 -43.5t-26.5 -42.5q-25 -41 -48 -82t-40 -90q-12 -29 -19 -61.5t-5 -67.5q4 -41 22.5 -60.5t42.5 -37.5q29 8 50.5 0.5t41.5 -19.5l15 -31q-2 -14 0 -23t0 -26 q-2 -6 -7 -13t-14 -11q-10 -16 -39 -17q-6 0 -13 3t-17 -1q-16 -4 -27 -8q-6 -4 -10 -8t-14 -8q-16 -8 -26.5 -16.5t-25.5 -18.5q-6 -10 -14 -18.5t-16 -16.5q-35 -41 -62 -96q0 -8 -2 -13.5t-6 -15.5q-10 -16 -15.5 -35.5t-11.5 -40.5l-28 -159q-10 -39 -15 -82l-30 -109 q-14 -49 -35 -94t-47 -86l-58 -72q-4 0 -4 -3t-4 1q-37 -43 -88 -71zM471 1470q8 -8 16 -8q-4 2 -8 5t-8 3zM469 1468q0 4 -3 5.5t-5 -0.5zM326 664q-2 2 -3 4t-6 0z" />
<glyph unicode="~" horiz-adv-x="937" d="M772 477q8 -6 8 6q6 -4 7 3.5t4 13.5q8 -2 8 -17q4 4 3 7.5t1 7.5l2 2q-2 0 4 -6q2 2 2 5t2 3q4 -4 4 -8q4 4 4 2q4 -4 2 -4l4 2q0 -4 3.5 -8.5t5.5 -8.5v-12l4 4q-2 -12 -6.5 -26.5t-8.5 -26.5q4 2 6.5 9t4.5 11q4 -4 -0.5 -16t-8.5 -17q-10 -23 -24.5 -39t-24.5 -30 q-12 -10 -23.5 -19.5t-23.5 -17.5q-51 -33 -108 -35q-23 -2 -43.5 3t-40.5 11q-12 4 -24.5 13.5t-25.5 19.5q-20 16 -36.5 34.5t-38.5 35.5q-8 4 -16.5 8t-18.5 6q-10 4 -21.5 2t-21.5 -6q-12 -4 -22.5 -11t-20.5 -18l-2 -2q-4 -8 -15.5 -13t-17.5 -17l-4 -15q-4 -4 -6 -4 t-6 -4q-2 0 -2 -2t-2 -2q-4 -4 -13.5 -4h-15.5q-14 -2 -20.5 5t-10.5 15q-4 10 -8 17.5t0 21.5q4 25 19.5 41.5t25.5 30.5q10 8 20.5 15.5t24.5 15.5q10 6 22.5 14t26.5 12q4 2 10 2q14 8 37 9q4 2 8.5 1t8.5 -1q4 -2 7 -1t7 1q12 -2 27.5 -5.5t25.5 -9.5q20 -10 38 -24.5 t34 -30.5l27 -27q10 -8 19 -16t22 -14q31 -14 58.5 -10.5t51 19t43 39t31.5 46.5q8 4 8 14z" />
<glyph unicode="&#xa1;" horiz-adv-x="901" d="M596 545q4 0 6 2q0 8 2 12q2 0 1 -3t1 -3q2 2 1 5t1 5q10 4 10 -8l9 25q4 0 2 -4.5t0 -10.5l8 17q0 -6 6 -9l4 9q4 -6 9.5 -12.5t11.5 -4.5q0 -6 5 -13t3 -13q0 2 4 -2q0 -8 3 -13.5t5 -15.5q4 -14 0 -34.5t-8 -37.5q-2 -2 -2 -10q-2 -12 -6 -24.5t-4 -24.5 q-4 -16 -9.5 -33.5t-13.5 -32.5q-8 -25 -16 -48t-17 -50q-4 -2 -4 -4t-2 -2q-31 -90 -72.5 -176t-70.5 -156q-4 -12 -13.5 -23.5t-13.5 -23.5q-10 -18 -28.5 -52t-40 -73t-45 -78t-41.5 -69l-43 -62q-10 -16 -25.5 -31.5t-26.5 -31.5q0 -4 -1 -1t-5 -1q-4 0 -8 -5.5t-8 -1.5 q-14 -6 -43 -2l-2 9q0 2 -10 6l-7 14q-2 4 -4 7t-4 9q0 4 -2 8.5t2 14.5q0 4 1 5t1 5q4 4 4 13q0 10 2 12q0 4 6.5 7t8.5 7q4 8 5 14.5t5 10.5q2 10 8 15t10 13q10 10 19.5 24.5t21.5 29.5q16 23 29.5 42t30.5 44q104 186 196.5 379.5t145.5 418.5q2 2 2 0t2 0q0 6 2 7.5 t2 9.5zM682 897q4 0 4 -2t4 0t10 12q2 0 6.5 -1t6.5 -1q4 -4 4 -8l31 -10q6 -10 13 -16.5t11 -18.5q2 -4 1 -12.5t-1 -18.5q0 -16 -3 -27.5t-7 -23.5q-4 -14 -11.5 -22.5t-11.5 -14.5q-10 -6 -26.5 -10t-26.5 -4q-12 2 -18 10t-15 12q0 4 -3 6.5t-7 6.5q0 2 -2 5t-2 7 q-4 6 -9 10t-5 19q8 14 10 33.5t10 35.5l6 6q4 4 6 9.5t9 9.5q2 2 8 2t8 6z" />
<glyph unicode="&#xa2;" horiz-adv-x="788" d="M541 362q-8 -10 -17.5 -13t-21.5 -9q0 -2 2 -2q-2 -4 -4 -4t-2 -4q-8 0 -9 -4q-4 2 -6 0t-6 -2q-4 -6 -12 -8.5t-14 -6.5q-2 -2 -2 0t-5 0q-2 -4 -7 -4t-7 -4q-23 -6 -42 -10t-44 -8q-2 2 0 3t0 3q-4 -4 -4 -9.5t-4 -9.5q-2 -4 -5 -5t-5 -3l-2 -12l-13 -25q-4 -8 -9 -16 t-9 -21l-4 -12t-6 -14q-14 -29 -28.5 -58.5t-25.5 -62.5q-2 4 -1 6t1 6q-2 -4 -4 -9t-2 -13q-6 2 -6 -6q-4 -2 -3 0t-3 0l-6 -9q-6 0 -6 -4q-4 4 -6.5 -1t-2.5 -9l-2 2q-4 0 -3 -2t-3 -4q-2 0 -8 6q-4 2 -5 1t-5 -1q-4 10 -8 17.5t-4 19.5q-2 2 -2 -3t-5 -1q-4 8 1.5 19.5 t0.5 21.5l9 41q10 37 21 68.5t20 66.5q6 4 8 10t6 10q0 2 -1 2t-1 3q4 4 7 12t5 14q-31 16 -53 35q-10 4 -13 12t-10 17q-10 10 -18 26q-4 6 -6 15.5t-6 17.5l-9 31q-4 18 -4 41.5t4 42.5q2 25 9.5 47t13.5 43q8 23 17.5 42t17.5 38q23 39 46 72.5t46 64.5q16 16 32.5 34.5 t35.5 35.5q2 8 9 12t11 10h4q20 18 42 33.5t44 32.5q18 8 32.5 16t33.5 14q14 41 32.5 77t36.5 71q16 16 26.5 39.5t22.5 46.5q8 4 13.5 8t13.5 10q12 12 23 10q8 -4 17 -4t17 -8q4 -2 5.5 -5t5.5 -3q2 -10 8 -19.5t6 -19.5q0 -8 -3 -14t-5 -15q-6 -8 -10 -18t-15 -16 q0 -2 -1 -2t-1 -2q-23 -31 -43 -62t-41 -63q12 -6 24.5 -9.5t20.5 -11.5q8 -4 12.5 -11t12.5 -16q20 -43 18 -90q-2 -16 -7 -31.5t-7 -31.5q0 -4 1 -10.5t-3 -10.5q-10 -12 -15.5 -25.5t-15.5 -23.5q-4 -4 -9 -4t-9 -4q-6 0 -10.5 -3t-8.5 -5q-6 2 -10 5t-10 1 q-18 14 -25 35q-4 6 0 16q2 16 10.5 30.5t14.5 29.5q4 10 5 18t3 16q0 6 2 11.5t0 11.5q-10 8 -25.5 11t-31.5 -1q0 -2 -1 -2t-1 -2q-2 2 0 2t0 2q-8 0 -11 -4q0 4 -3 2t-5 -4l-2 2q-2 0 -2 -4q-37 -6 -61 -33q-82 -51 -142 -133q-47 -53 -86 -131l-8 -25q-4 -8 -7 -17 t-7 -17v-4q-16 -18 -12 -46q-2 4 -2 -1v-9t-1 -7t-1 -7q0 -8 1 -14.5t1 -14.5q4 -33 21 -52t40 -32q25 -10 52.5 -12t55 1t53 10t46.5 18q23 6 37 17t32 22h3q6 6 15 9t13 11q2 -2 0 -3t-2 -3q4 4 5 1t1 1q4 -2 2 -2t-2 -4q8 -2 13.5 4t9.5 10v-6q2 2 2 0t2 0q0 -2 -2 -3 t-4 -5q6 2 12 8q-2 -6 -6 -9t-4 -9q4 0 10 6l-4 -8v-13q-4 -6 -7 -12t-11 -12q0 -2 2 -2t2 -2q-4 -4 -6.5 -4.5t-4.5 -4.5q2 -2 2 0t2 2q-4 -10 -10 -15t-14 -9q0 -4 2 -3t0 -1l-27 -17q4 0 7.5 2t7.5 4z" />
<glyph unicode="&#xa3;" horiz-adv-x="1218" d="M961 1217q-10 -2 -27 -15q-29 -12 -50.5 -32.5t-41.5 -41.5q-25 -16 -43.5 -41.5t-32.5 -52.5q-51 -70 -88 -162q-8 -12 -12 -26.5t-13 -30.5q-25 -53 -44 -108.5t-42 -110.5q2 -2 17 -2q16 -2 38.5 -4t45.5 -2l41 -4q6 -2 10 -5.5t12 -3.5q4 -2 9 -4t12 -2l2 -4 q16 -4 28.5 -11t24.5 -15v-9q0 -2 -6 -2q0 -6 2 -6h4q0 -4 -3 -4t1 -4q-4 0 -8 -5t-2 -7h-7q0 -4 -3 -4t-5 -4q-6 4 -11 -1.5t-13 -5.5q-4 -2 -9.5 -1t-9.5 1q-4 -2 -9 -2h-9h-6t-6 -4q-4 0 -5 2v2q-45 2 -86 3t-88 -3l-36 -94l-43 -88q-33 -78 -82 -149q-10 -18 -21.5 -34 t-23.5 -34q63 -10 128.5 -34.5t124.5 -37.5q14 0 24.5 -4t27.5 -4q29 4 58.5 12.5t51.5 24.5q4 -2 5 1t6 -1l12 6q4 -2 4 -4q6 2 10 3t10 5v-8q8 -2 13 2q0 -2 -1 -2t-1 -4q2 0 4 2t6 0q2 -10 0 -14q0 -2 2 0v-6q2 0 3 -2.5t5 -2.5q-4 -6 -7 -10t-3 -10q2 -4 2 -1t2 3 q-4 -14 -15.5 -23.5t-21.5 -21.5q-35 -27 -78 -38t-90 -11q-20 0 -39.5 2t-38.5 4q-2 6 -12 6q-29 6 -55.5 14.5t-48.5 18.5q-20 4 -42 9t-44 7q-8 4 -21 4q-6 0 -12 2t-12 2q-16 0 -33 -4q-6 -4 -11.5 -4t-11.5 -2l-4 -4h-6q-4 -2 -10 -7t-10 -9q-6 -8 -15.5 -13.5 t-19.5 -9.5v4l-21 -8l-16 -22q-4 -2 -9.5 -3.5t-7.5 -7.5q-4 0 -2 3t-2 -1q-2 0 -2 -1t-2 -1q0 2 -2 -1t-6 1q-2 0 -4 2q-6 -2 -7 -4t-5 2q-2 -4 -1 -1t-1 3q-6 4 -8.5 7.5t-6.5 1.5q-4 10 -8 19t-6 19q-4 -2 -4 -8q-4 6 0 10.5t6 12.5q4 8 6 16t6 15l15 18q23 25 51.5 45 t66.5 31q4 2 4.5 5t4.5 3q68 82 120 176t95 203q-14 0 -19 -6q-29 0 -53.5 -2t-48.5 -13q-4 4 -7 2t-10 -2q-16 4 -23 13.5t-20 17.5q-6 16 -13 33.5t3 34.5q6 10 21.5 22t27.5 14q14 6 29.5 6.5t28.5 2.5q33 4 69.5 6t65.5 2q10 16 15 35.5t16 36.5q0 -6 -3.5 -12.5 t-3.5 -12.5q6 16 11.5 34.5t13.5 35.5q2 2 0 2t0 4l20 57q2 -4 0 -7t0 -7q4 14 8.5 26.5t12.5 26.5q0 2 -1 2t-1 2q12 41 29.5 81t33.5 77q18 45 45 86t56 80q12 12 23.5 27.5t25.5 27.5q33 37 74 67.5t88 49.5q-16 -8 -32.5 -16.5t-27.5 -18.5q49 33 109 45q2 -4 1 0t1 4 q43 4 79 -6t60 -37q14 -23 25.5 -48.5t19.5 -55.5q2 10 -3 20t-7 21q10 -23 19.5 -53.5t9.5 -65.5q0 -39 -13.5 -74t-29.5 -63q-12 -29 -26.5 -52.5t-29.5 -46.5q-4 -6 -8 -14t-10 -12l-12 -25q-4 -8 -10.5 -16.5t-10.5 -18.5l-29 -30l-9 -4.5t-9 -2.5q-8 -14 -23.5 -20 t-29.5 -10q-4 4 -10 4q-6 6 -15 6q0 10 -5 12t-9 4q0 10 1 16.5t-5 14.5q-2 2 -4 0l26 29q-2 2 -5 -1t-3 1l8 4v8q41 47 81 98t69 113q8 18 13 35.5t9 40.5q0 39 -10 75.5t-33 49.5q-20 4 -42.5 1t-39.5 -12zM514 711q-2 4 4 8q-2 0 -2 -2q-2 -2 -2 -6zM520 735v-8q0 4 2 5 t-2 3z" />
</font>
</defs>
</svg>
